M48
; DRILL file {KiCad 6.0.9-8da3e8f707~116~ubuntu20.04.1} date vie 18 nov 2022 21:39:15
; FORMAT={-:-/ absolute / metric / decimal}
; #@! TF.CreationDate,2022-11-18T21:39:15+01:00
; #@! TF.GenerationSoftware,Kicad,Pcbnew,6.0.9-8da3e8f707~116~ubuntu20.04.1
; #@! TF.FileFunction,Plated,1,2,PTH
FMAT,2
METRIC
; #@! TA.AperFunction,Plated,PTH,ComponentDrill
T1C0.500
; #@! TA.AperFunction,Plated,PTH,ComponentDrill
T2C0.762
; #@! TA.AperFunction,Plated,PTH,ComponentDrill
T3C0.800
; #@! TA.AperFunction,Plated,PTH,ComponentDrill
T4C0.950
; #@! TA.AperFunction,Plated,PTH,ComponentDrill
T5C1.000
; #@! TA.AperFunction,Plated,PTH,ComponentDrill
T6C1.100
; #@! TA.AperFunction,Plated,PTH,ComponentDrill
T7C2.300
; #@! TA.AperFunction,Plated,PTH,ComponentDrill
T8C3.200
%
G90
G05
T1
X53.48Y-30.48
X53.48Y-104.14
X53.48Y-177.8
X54.183Y-28.783
X54.183Y-32.177
X54.183Y-102.443
X54.183Y-105.837
X54.183Y-176.103
X54.183Y-179.497
X55.88Y-28.08
X55.88Y-32.88
X55.88Y-101.74
X55.88Y-106.54
X55.88Y-175.4
X55.88Y-180.2
X57.577Y-28.783
X57.577Y-32.177
X57.577Y-102.443
X57.577Y-105.837
X57.577Y-176.103
X57.577Y-179.497
X58.28Y-30.48
X58.28Y-104.14
X58.28Y-177.8
X105.55Y-30.48
X105.55Y-104.14
X105.55Y-177.8
X106.253Y-28.783
X106.253Y-32.177
X106.253Y-102.443
X106.253Y-105.837
X106.253Y-176.103
X106.253Y-179.497
X107.95Y-28.08
X107.95Y-32.88
X107.95Y-101.74
X107.95Y-106.54
X107.95Y-175.4
X107.95Y-180.2
X109.647Y-28.783
X109.647Y-32.177
X109.647Y-102.443
X109.647Y-105.837
X109.647Y-176.103
X109.647Y-179.497
X110.35Y-30.48
X110.35Y-104.14
X110.35Y-177.8
X144.92Y-30.48
X144.92Y-104.14
X144.92Y-177.8
X145.623Y-28.783
X145.623Y-32.177
X145.623Y-102.443
X145.623Y-105.837
X145.623Y-176.103
X145.623Y-179.497
X147.32Y-28.08
X147.32Y-32.88
X147.32Y-101.74
X147.32Y-106.54
X147.32Y-175.4
X147.32Y-180.2
X149.017Y-28.783
X149.017Y-32.177
X149.017Y-102.443
X149.017Y-105.837
X149.017Y-176.103
X149.017Y-179.497
X149.72Y-30.48
X149.72Y-104.14
X149.72Y-177.8
X218.58Y-104.14
X218.58Y-177.8
X218.72Y-30.48
X219.283Y-102.443
X219.283Y-105.837
X219.283Y-176.103
X219.283Y-179.497
X219.423Y-28.783
X219.423Y-32.177
X220.98Y-101.74
X220.98Y-106.54
X220.98Y-175.4
X220.98Y-180.2
X221.12Y-28.08
X221.12Y-32.88
X222.677Y-102.443
X222.677Y-105.837
X222.677Y-176.103
X222.677Y-179.497
X222.817Y-28.783
X222.817Y-32.177
X223.38Y-104.14
X223.38Y-177.8
X223.52Y-30.48
T2
X66.04Y-123.19
X66.04Y-125.73
X66.04Y-133.35
X66.04Y-135.89
X66.04Y-138.43
X66.04Y-140.97
X66.04Y-143.51
X66.04Y-151.13
X66.04Y-153.67
X66.04Y-156.21
X66.04Y-158.75
X66.04Y-161.29
X66.04Y-168.91
X66.04Y-171.45
X68.58Y-123.19
X68.58Y-125.73
X68.58Y-133.35
X68.58Y-135.89
X68.58Y-138.43
X68.58Y-140.97
X68.58Y-143.51
X68.58Y-151.13
X68.58Y-153.67
X68.58Y-156.21
X68.58Y-158.75
X68.58Y-161.29
X68.58Y-168.91
X68.58Y-171.45
X71.12Y-123.19
X71.12Y-125.73
X71.12Y-133.35
X71.12Y-135.89
X71.12Y-138.43
X71.12Y-140.97
X71.12Y-143.51
X71.12Y-151.13
X71.12Y-153.67
X71.12Y-156.21
X71.12Y-158.75
X71.12Y-161.29
X71.12Y-168.91
X71.12Y-171.45
X73.66Y-123.19
X73.66Y-125.73
X73.66Y-133.35
X73.66Y-135.89
X73.66Y-138.43
X73.66Y-140.97
X73.66Y-143.51
X73.66Y-151.13
X73.66Y-153.67
X73.66Y-156.21
X73.66Y-158.75
X73.66Y-161.29
X73.66Y-168.91
X73.66Y-171.45
X76.2Y-123.19
X76.2Y-125.73
X76.2Y-133.35
X76.2Y-135.89
X76.2Y-138.43
X76.2Y-140.97
X76.2Y-143.51
X76.2Y-151.13
X76.2Y-153.67
X76.2Y-156.21
X76.2Y-158.75
X76.2Y-161.29
X76.2Y-168.91
X76.2Y-171.45
X78.74Y-133.35
X78.74Y-135.89
X78.74Y-138.43
X78.74Y-140.97
X78.74Y-143.51
X78.74Y-151.13
X78.74Y-153.67
X78.74Y-156.21
X78.74Y-158.75
X78.74Y-161.29
X81.28Y-123.19
X81.28Y-125.73
X81.28Y-133.35
X81.28Y-135.89
X81.28Y-138.43
X81.28Y-140.97
X81.28Y-143.51
X81.28Y-151.13
X81.28Y-153.67
X81.28Y-156.21
X81.28Y-158.75
X81.28Y-161.29
X81.28Y-168.91
X81.28Y-171.45
X83.82Y-123.19
X83.82Y-125.73
X83.82Y-133.35
X83.82Y-135.89
X83.82Y-138.43
X83.82Y-140.97
X83.82Y-143.51
X83.82Y-151.13
X83.82Y-153.67
X83.82Y-156.21
X83.82Y-158.75
X83.82Y-161.29
X83.82Y-168.91
X83.82Y-171.45
X86.36Y-123.19
X86.36Y-125.73
X86.36Y-133.35
X86.36Y-135.89
X86.36Y-138.43
X86.36Y-140.97
X86.36Y-143.51
X86.36Y-151.13
X86.36Y-153.67
X86.36Y-156.21
X86.36Y-158.75
X86.36Y-161.29
X86.36Y-168.91
X86.36Y-171.45
X88.9Y-123.19
X88.9Y-125.73
X88.9Y-133.35
X88.9Y-135.89
X88.9Y-138.43
X88.9Y-140.97
X88.9Y-143.51
X88.9Y-151.13
X88.9Y-153.67
X88.9Y-156.21
X88.9Y-158.75
X88.9Y-161.29
X88.9Y-168.91
X88.9Y-171.45
X91.44Y-123.19
X91.44Y-125.73
X91.44Y-133.35
X91.44Y-135.89
X91.44Y-138.43
X91.44Y-140.97
X91.44Y-143.51
X91.44Y-151.13
X91.44Y-153.67
X91.44Y-156.21
X91.44Y-158.75
X91.44Y-161.29
X91.44Y-168.91
X91.44Y-171.45
X93.98Y-133.35
X93.98Y-135.89
X93.98Y-138.43
X93.98Y-140.97
X93.98Y-143.51
X93.98Y-151.13
X93.98Y-153.67
X93.98Y-156.21
X93.98Y-158.75
X93.98Y-161.29
X96.52Y-123.19
X96.52Y-125.73
X96.52Y-133.35
X96.52Y-135.89
X96.52Y-138.43
X96.52Y-140.97
X96.52Y-143.51
X96.52Y-151.13
X96.52Y-153.67
X96.52Y-156.21
X96.52Y-158.75
X96.52Y-161.29
X96.52Y-168.91
X96.52Y-171.45
X99.06Y-123.19
X99.06Y-125.73
X99.06Y-133.35
X99.06Y-135.89
X99.06Y-138.43
X99.06Y-140.97
X99.06Y-143.51
X99.06Y-151.13
X99.06Y-153.67
X99.06Y-156.21
X99.06Y-158.75
X99.06Y-161.29
X99.06Y-168.91
X99.06Y-171.45
X101.6Y-123.19
X101.6Y-125.73
X101.6Y-133.35
X101.6Y-135.89
X101.6Y-138.43
X101.6Y-140.97
X101.6Y-143.51
X101.6Y-151.13
X101.6Y-153.67
X101.6Y-156.21
X101.6Y-158.75
X101.6Y-161.29
X101.6Y-168.91
X101.6Y-171.45
X104.14Y-123.19
X104.14Y-125.73
X104.14Y-133.35
X104.14Y-135.89
X104.14Y-138.43
X104.14Y-140.97
X104.14Y-143.51
X104.14Y-151.13
X104.14Y-153.67
X104.14Y-156.21
X104.14Y-158.75
X104.14Y-161.29
X104.14Y-168.91
X104.14Y-171.45
X106.68Y-123.19
X106.68Y-125.73
X106.68Y-133.35
X106.68Y-135.89
X106.68Y-138.43
X106.68Y-140.97
X106.68Y-143.51
X106.68Y-151.13
X106.68Y-153.67
X106.68Y-156.21
X106.68Y-158.75
X106.68Y-161.29
X106.68Y-168.91
X106.68Y-171.45
X109.22Y-133.35
X109.22Y-135.89
X109.22Y-138.43
X109.22Y-140.97
X109.22Y-143.51
X109.22Y-151.13
X109.22Y-153.67
X109.22Y-156.21
X109.22Y-158.75
X109.22Y-161.29
X111.76Y-123.19
X111.76Y-125.73
X111.76Y-133.35
X111.76Y-135.89
X111.76Y-138.43
X111.76Y-140.97
X111.76Y-143.51
X111.76Y-151.13
X111.76Y-153.67
X111.76Y-156.21
X111.76Y-158.75
X111.76Y-161.29
X111.76Y-168.91
X111.76Y-171.45
X114.3Y-123.19
X114.3Y-125.73
X114.3Y-133.35
X114.3Y-135.89
X114.3Y-138.43
X114.3Y-140.97
X114.3Y-143.51
X114.3Y-151.13
X114.3Y-153.67
X114.3Y-156.21
X114.3Y-158.75
X114.3Y-161.29
X114.3Y-168.91
X114.3Y-171.45
X116.84Y-123.19
X116.84Y-125.73
X116.84Y-133.35
X116.84Y-135.89
X116.84Y-138.43
X116.84Y-140.97
X116.84Y-143.51
X116.84Y-151.13
X116.84Y-153.67
X116.84Y-156.21
X116.84Y-158.75
X116.84Y-161.29
X116.84Y-168.91
X116.84Y-171.45
X119.38Y-123.19
X119.38Y-125.73
X119.38Y-133.35
X119.38Y-135.89
X119.38Y-138.43
X119.38Y-140.97
X119.38Y-143.51
X119.38Y-151.13
X119.38Y-153.67
X119.38Y-156.21
X119.38Y-158.75
X119.38Y-161.29
X119.38Y-168.91
X119.38Y-171.45
X121.92Y-123.19
X121.92Y-125.73
X121.92Y-133.35
X121.92Y-135.89
X121.92Y-138.43
X121.92Y-140.97
X121.92Y-143.51
X121.92Y-151.13
X121.92Y-153.67
X121.92Y-156.21
X121.92Y-158.75
X121.92Y-161.29
X121.92Y-168.91
X121.92Y-171.45
X124.46Y-133.35
X124.46Y-135.89
X124.46Y-138.43
X124.46Y-140.97
X124.46Y-143.51
X124.46Y-151.13
X124.46Y-153.67
X124.46Y-156.21
X124.46Y-158.75
X124.46Y-161.29
X127.0Y-123.19
X127.0Y-125.73
X127.0Y-133.35
X127.0Y-135.89
X127.0Y-138.43
X127.0Y-140.97
X127.0Y-143.51
X127.0Y-151.13
X127.0Y-153.67
X127.0Y-156.21
X127.0Y-158.75
X127.0Y-161.29
X127.0Y-168.91
X127.0Y-171.45
X129.54Y-123.19
X129.54Y-125.73
X129.54Y-133.35
X129.54Y-135.89
X129.54Y-138.43
X129.54Y-140.97
X129.54Y-143.51
X129.54Y-151.13
X129.54Y-153.67
X129.54Y-156.21
X129.54Y-158.75
X129.54Y-161.29
X129.54Y-168.91
X129.54Y-171.45
X132.08Y-123.19
X132.08Y-125.73
X132.08Y-133.35
X132.08Y-135.89
X132.08Y-138.43
X132.08Y-140.97
X132.08Y-143.51
X132.08Y-151.13
X132.08Y-153.67
X132.08Y-156.21
X132.08Y-158.75
X132.08Y-161.29
X132.08Y-168.91
X132.08Y-171.45
X134.62Y-123.19
X134.62Y-125.73
X134.62Y-133.35
X134.62Y-135.89
X134.62Y-138.43
X134.62Y-140.97
X134.62Y-143.51
X134.62Y-151.13
X134.62Y-153.67
X134.62Y-156.21
X134.62Y-158.75
X134.62Y-161.29
X134.62Y-168.91
X134.62Y-171.45
X137.16Y-123.19
X137.16Y-125.73
X137.16Y-133.35
X137.16Y-135.89
X137.16Y-138.43
X137.16Y-140.97
X137.16Y-143.51
X137.16Y-151.13
X137.16Y-153.67
X137.16Y-156.21
X137.16Y-158.75
X137.16Y-161.29
X137.16Y-168.91
X137.16Y-171.45
X139.7Y-123.19
X139.7Y-125.73
X139.7Y-133.35
X139.7Y-135.89
X139.7Y-138.43
X139.7Y-140.97
X139.7Y-143.51
X139.7Y-151.13
X139.7Y-153.67
X139.7Y-156.21
X139.7Y-158.75
X139.7Y-161.29
X139.7Y-168.91
X139.7Y-171.45
X142.24Y-123.19
X142.24Y-125.73
X142.24Y-133.35
X142.24Y-135.89
X142.24Y-138.43
X142.24Y-140.97
X142.24Y-143.51
X142.24Y-151.13
X142.24Y-153.67
X142.24Y-156.21
X142.24Y-158.75
X142.24Y-161.29
X142.24Y-168.91
X142.24Y-171.45
X144.78Y-123.19
X144.78Y-125.73
X144.78Y-133.35
X144.78Y-135.89
X144.78Y-138.43
X144.78Y-140.97
X144.78Y-143.51
X144.78Y-151.13
X144.78Y-153.67
X144.78Y-156.21
X144.78Y-158.75
X144.78Y-161.29
X144.78Y-168.91
X144.78Y-171.45
X147.32Y-123.19
X147.32Y-125.73
X147.32Y-133.35
X147.32Y-135.89
X147.32Y-138.43
X147.32Y-140.97
X147.32Y-143.51
X147.32Y-151.13
X147.32Y-153.67
X147.32Y-156.21
X147.32Y-158.75
X147.32Y-161.29
X147.32Y-168.91
X147.32Y-171.45
X149.86Y-123.19
X149.86Y-125.73
X149.86Y-133.35
X149.86Y-135.89
X149.86Y-138.43
X149.86Y-140.97
X149.86Y-143.51
X149.86Y-151.13
X149.86Y-153.67
X149.86Y-156.21
X149.86Y-158.75
X149.86Y-161.29
X149.86Y-168.91
X149.86Y-171.45
X152.4Y-133.35
X152.4Y-135.89
X152.4Y-138.43
X152.4Y-140.97
X152.4Y-143.51
X152.4Y-151.13
X152.4Y-153.67
X152.4Y-156.21
X152.4Y-158.75
X152.4Y-161.29
X154.94Y-123.19
X154.94Y-125.73
X154.94Y-133.35
X154.94Y-135.89
X154.94Y-138.43
X154.94Y-140.97
X154.94Y-143.51
X154.94Y-151.13
X154.94Y-153.67
X154.94Y-156.21
X154.94Y-158.75
X154.94Y-161.29
X154.94Y-168.91
X154.94Y-171.45
X157.48Y-123.19
X157.48Y-125.73
X157.48Y-133.35
X157.48Y-135.89
X157.48Y-138.43
X157.48Y-140.97
X157.48Y-143.51
X157.48Y-151.13
X157.48Y-153.67
X157.48Y-156.21
X157.48Y-158.75
X157.48Y-161.29
X157.48Y-168.91
X157.48Y-171.45
X160.02Y-123.19
X160.02Y-125.73
X160.02Y-133.35
X160.02Y-135.89
X160.02Y-138.43
X160.02Y-140.97
X160.02Y-143.51
X160.02Y-151.13
X160.02Y-153.67
X160.02Y-156.21
X160.02Y-158.75
X160.02Y-161.29
X160.02Y-168.91
X160.02Y-171.45
X162.56Y-123.19
X162.56Y-125.73
X162.56Y-133.35
X162.56Y-135.89
X162.56Y-138.43
X162.56Y-140.97
X162.56Y-143.51
X162.56Y-151.13
X162.56Y-153.67
X162.56Y-156.21
X162.56Y-158.75
X162.56Y-161.29
X162.56Y-168.91
X162.56Y-171.45
X165.1Y-33.02
X165.1Y-35.56
X165.1Y-38.1
X165.1Y-40.64
X165.1Y-43.18
X165.1Y-48.26
X165.1Y-50.8
X165.1Y-53.34
X165.1Y-55.88
X165.1Y-58.42
X165.1Y-63.5
X165.1Y-66.04
X165.1Y-68.58
X165.1Y-71.12
X165.1Y-73.66
X165.1Y-78.74
X165.1Y-81.28
X165.1Y-83.82
X165.1Y-86.36
X165.1Y-88.9
X165.1Y-93.98
X165.1Y-96.52
X165.1Y-99.06
X165.1Y-101.6
X165.1Y-104.14
X165.1Y-123.19
X165.1Y-125.73
X165.1Y-133.35
X165.1Y-135.89
X165.1Y-138.43
X165.1Y-140.97
X165.1Y-143.51
X165.1Y-151.13
X165.1Y-153.67
X165.1Y-156.21
X165.1Y-158.75
X165.1Y-161.29
X165.1Y-168.91
X165.1Y-171.45
X167.64Y-33.02
X167.64Y-35.56
X167.64Y-38.1
X167.64Y-40.64
X167.64Y-43.18
X167.64Y-48.26
X167.64Y-50.8
X167.64Y-53.34
X167.64Y-55.88
X167.64Y-58.42
X167.64Y-63.5
X167.64Y-66.04
X167.64Y-68.58
X167.64Y-71.12
X167.64Y-73.66
X167.64Y-78.74
X167.64Y-81.28
X167.64Y-83.82
X167.64Y-86.36
X167.64Y-88.9
X167.64Y-93.98
X167.64Y-96.52
X167.64Y-99.06
X167.64Y-101.6
X167.64Y-104.14
X167.64Y-133.35
X167.64Y-135.89
X167.64Y-138.43
X167.64Y-140.97
X167.64Y-143.51
X167.64Y-151.13
X167.64Y-153.67
X167.64Y-156.21
X167.64Y-158.75
X167.64Y-161.29
X170.18Y-123.19
X170.18Y-125.73
X170.18Y-133.35
X170.18Y-135.89
X170.18Y-138.43
X170.18Y-140.97
X170.18Y-143.51
X170.18Y-151.13
X170.18Y-153.67
X170.18Y-156.21
X170.18Y-158.75
X170.18Y-161.29
X170.18Y-168.91
X170.18Y-171.45
X172.72Y-123.19
X172.72Y-125.73
X172.72Y-133.35
X172.72Y-135.89
X172.72Y-138.43
X172.72Y-140.97
X172.72Y-143.51
X172.72Y-151.13
X172.72Y-153.67
X172.72Y-156.21
X172.72Y-158.75
X172.72Y-161.29
X172.72Y-168.91
X172.72Y-171.45
X175.26Y-33.02
X175.26Y-35.56
X175.26Y-38.1
X175.26Y-40.64
X175.26Y-43.18
X175.26Y-45.72
X175.26Y-48.26
X175.26Y-50.8
X175.26Y-53.34
X175.26Y-55.88
X175.26Y-58.42
X175.26Y-60.96
X175.26Y-63.5
X175.26Y-66.04
X175.26Y-68.58
X175.26Y-71.12
X175.26Y-73.66
X175.26Y-76.2
X175.26Y-78.74
X175.26Y-81.28
X175.26Y-83.82
X175.26Y-86.36
X175.26Y-88.9
X175.26Y-91.44
X175.26Y-93.98
X175.26Y-96.52
X175.26Y-99.06
X175.26Y-101.6
X175.26Y-104.14
X175.26Y-123.19
X175.26Y-125.73
X175.26Y-133.35
X175.26Y-135.89
X175.26Y-138.43
X175.26Y-140.97
X175.26Y-143.51
X175.26Y-151.13
X175.26Y-153.67
X175.26Y-156.21
X175.26Y-158.75
X175.26Y-161.29
X175.26Y-168.91
X175.26Y-171.45
X177.8Y-33.02
X177.8Y-35.56
X177.8Y-38.1
X177.8Y-40.64
X177.8Y-43.18
X177.8Y-45.72
X177.8Y-48.26
X177.8Y-50.8
X177.8Y-53.34
X177.8Y-55.88
X177.8Y-58.42
X177.8Y-60.96
X177.8Y-63.5
X177.8Y-66.04
X177.8Y-68.58
X177.8Y-71.12
X177.8Y-73.66
X177.8Y-76.2
X177.8Y-78.74
X177.8Y-81.28
X177.8Y-83.82
X177.8Y-86.36
X177.8Y-88.9
X177.8Y-91.44
X177.8Y-93.98
X177.8Y-96.52
X177.8Y-99.06
X177.8Y-101.6
X177.8Y-104.14
X177.8Y-123.19
X177.8Y-125.73
X177.8Y-133.35
X177.8Y-135.89
X177.8Y-138.43
X177.8Y-140.97
X177.8Y-143.51
X177.8Y-151.13
X177.8Y-153.67
X177.8Y-156.21
X177.8Y-158.75
X177.8Y-161.29
X177.8Y-168.91
X177.8Y-171.45
X180.34Y-33.02
X180.34Y-35.56
X180.34Y-38.1
X180.34Y-40.64
X180.34Y-43.18
X180.34Y-45.72
X180.34Y-48.26
X180.34Y-50.8
X180.34Y-53.34
X180.34Y-55.88
X180.34Y-58.42
X180.34Y-60.96
X180.34Y-63.5
X180.34Y-66.04
X180.34Y-68.58
X180.34Y-71.12
X180.34Y-73.66
X180.34Y-76.2
X180.34Y-78.74
X180.34Y-81.28
X180.34Y-83.82
X180.34Y-86.36
X180.34Y-88.9
X180.34Y-91.44
X180.34Y-93.98
X180.34Y-96.52
X180.34Y-99.06
X180.34Y-101.6
X180.34Y-104.14
X180.34Y-123.19
X180.34Y-125.73
X180.34Y-133.35
X180.34Y-135.89
X180.34Y-138.43
X180.34Y-140.97
X180.34Y-143.51
X180.34Y-151.13
X180.34Y-153.67
X180.34Y-156.21
X180.34Y-158.75
X180.34Y-161.29
X180.34Y-168.91
X180.34Y-171.45
X182.88Y-33.02
X182.88Y-35.56
X182.88Y-38.1
X182.88Y-40.64
X182.88Y-43.18
X182.88Y-45.72
X182.88Y-48.26
X182.88Y-50.8
X182.88Y-53.34
X182.88Y-55.88
X182.88Y-58.42
X182.88Y-60.96
X182.88Y-63.5
X182.88Y-66.04
X182.88Y-68.58
X182.88Y-71.12
X182.88Y-73.66
X182.88Y-76.2
X182.88Y-78.74
X182.88Y-81.28
X182.88Y-83.82
X182.88Y-86.36
X182.88Y-88.9
X182.88Y-91.44
X182.88Y-93.98
X182.88Y-96.52
X182.88Y-99.06
X182.88Y-101.6
X182.88Y-104.14
X182.88Y-133.35
X182.88Y-135.89
X182.88Y-138.43
X182.88Y-140.97
X182.88Y-143.51
X182.88Y-151.13
X182.88Y-153.67
X182.88Y-156.21
X182.88Y-158.75
X182.88Y-161.29
X185.42Y-33.02
X185.42Y-35.56
X185.42Y-38.1
X185.42Y-40.64
X185.42Y-43.18
X185.42Y-45.72
X185.42Y-48.26
X185.42Y-50.8
X185.42Y-53.34
X185.42Y-55.88
X185.42Y-58.42
X185.42Y-60.96
X185.42Y-63.5
X185.42Y-66.04
X185.42Y-68.58
X185.42Y-71.12
X185.42Y-73.66
X185.42Y-76.2
X185.42Y-78.74
X185.42Y-81.28
X185.42Y-83.82
X185.42Y-86.36
X185.42Y-88.9
X185.42Y-91.44
X185.42Y-93.98
X185.42Y-96.52
X185.42Y-99.06
X185.42Y-101.6
X185.42Y-104.14
X185.42Y-123.19
X185.42Y-125.73
X185.42Y-133.35
X185.42Y-135.89
X185.42Y-138.43
X185.42Y-140.97
X185.42Y-143.51
X185.42Y-151.13
X185.42Y-153.67
X185.42Y-156.21
X185.42Y-158.75
X185.42Y-161.29
X185.42Y-168.91
X185.42Y-171.45
X187.96Y-123.19
X187.96Y-125.73
X187.96Y-133.35
X187.96Y-135.89
X187.96Y-138.43
X187.96Y-140.97
X187.96Y-143.51
X187.96Y-151.13
X187.96Y-153.67
X187.96Y-156.21
X187.96Y-158.75
X187.96Y-161.29
X187.96Y-168.91
X187.96Y-171.45
X190.5Y-123.19
X190.5Y-125.73
X190.5Y-133.35
X190.5Y-135.89
X190.5Y-138.43
X190.5Y-140.97
X190.5Y-143.51
X190.5Y-151.13
X190.5Y-153.67
X190.5Y-156.21
X190.5Y-158.75
X190.5Y-161.29
X190.5Y-168.91
X190.5Y-171.45
X193.04Y-33.02
X193.04Y-35.56
X193.04Y-38.1
X193.04Y-40.64
X193.04Y-43.18
X193.04Y-45.72
X193.04Y-48.26
X193.04Y-50.8
X193.04Y-53.34
X193.04Y-55.88
X193.04Y-58.42
X193.04Y-60.96
X193.04Y-63.5
X193.04Y-66.04
X193.04Y-68.58
X193.04Y-71.12
X193.04Y-73.66
X193.04Y-76.2
X193.04Y-78.74
X193.04Y-81.28
X193.04Y-83.82
X193.04Y-86.36
X193.04Y-88.9
X193.04Y-91.44
X193.04Y-93.98
X193.04Y-96.52
X193.04Y-99.06
X193.04Y-101.6
X193.04Y-104.14
X193.04Y-123.19
X193.04Y-125.73
X193.04Y-133.35
X193.04Y-135.89
X193.04Y-138.43
X193.04Y-140.97
X193.04Y-143.51
X193.04Y-151.13
X193.04Y-153.67
X193.04Y-156.21
X193.04Y-158.75
X193.04Y-161.29
X193.04Y-168.91
X193.04Y-171.45
X195.58Y-33.02
X195.58Y-35.56
X195.58Y-38.1
X195.58Y-40.64
X195.58Y-43.18
X195.58Y-45.72
X195.58Y-48.26
X195.58Y-50.8
X195.58Y-53.34
X195.58Y-55.88
X195.58Y-58.42
X195.58Y-60.96
X195.58Y-63.5
X195.58Y-66.04
X195.58Y-68.58
X195.58Y-71.12
X195.58Y-73.66
X195.58Y-76.2
X195.58Y-78.74
X195.58Y-81.28
X195.58Y-83.82
X195.58Y-86.36
X195.58Y-88.9
X195.58Y-91.44
X195.58Y-93.98
X195.58Y-96.52
X195.58Y-99.06
X195.58Y-101.6
X195.58Y-104.14
X195.58Y-123.19
X195.58Y-125.73
X195.58Y-133.35
X195.58Y-135.89
X195.58Y-138.43
X195.58Y-140.97
X195.58Y-143.51
X195.58Y-151.13
X195.58Y-153.67
X195.58Y-156.21
X195.58Y-158.75
X195.58Y-161.29
X195.58Y-168.91
X195.58Y-171.45
X198.12Y-33.02
X198.12Y-35.56
X198.12Y-38.1
X198.12Y-40.64
X198.12Y-43.18
X198.12Y-45.72
X198.12Y-48.26
X198.12Y-50.8
X198.12Y-53.34
X198.12Y-55.88
X198.12Y-58.42
X198.12Y-60.96
X198.12Y-63.5
X198.12Y-66.04
X198.12Y-68.58
X198.12Y-71.12
X198.12Y-73.66
X198.12Y-76.2
X198.12Y-78.74
X198.12Y-81.28
X198.12Y-83.82
X198.12Y-86.36
X198.12Y-88.9
X198.12Y-91.44
X198.12Y-93.98
X198.12Y-96.52
X198.12Y-99.06
X198.12Y-101.6
X198.12Y-104.14
X198.12Y-133.35
X198.12Y-135.89
X198.12Y-138.43
X198.12Y-140.97
X198.12Y-143.51
X198.12Y-151.13
X198.12Y-153.67
X198.12Y-156.21
X198.12Y-158.75
X198.12Y-161.29
X200.66Y-33.02
X200.66Y-35.56
X200.66Y-38.1
X200.66Y-40.64
X200.66Y-43.18
X200.66Y-45.72
X200.66Y-48.26
X200.66Y-50.8
X200.66Y-53.34
X200.66Y-55.88
X200.66Y-58.42
X200.66Y-60.96
X200.66Y-63.5
X200.66Y-66.04
X200.66Y-68.58
X200.66Y-71.12
X200.66Y-73.66
X200.66Y-76.2
X200.66Y-78.74
X200.66Y-81.28
X200.66Y-83.82
X200.66Y-86.36
X200.66Y-88.9
X200.66Y-91.44
X200.66Y-93.98
X200.66Y-96.52
X200.66Y-99.06
X200.66Y-101.6
X200.66Y-104.14
X200.66Y-123.19
X200.66Y-125.73
X200.66Y-133.35
X200.66Y-135.89
X200.66Y-138.43
X200.66Y-140.97
X200.66Y-143.51
X200.66Y-151.13
X200.66Y-153.67
X200.66Y-156.21
X200.66Y-158.75
X200.66Y-161.29
X200.66Y-168.91
X200.66Y-171.45
X203.2Y-33.02
X203.2Y-35.56
X203.2Y-38.1
X203.2Y-40.64
X203.2Y-43.18
X203.2Y-45.72
X203.2Y-48.26
X203.2Y-50.8
X203.2Y-53.34
X203.2Y-55.88
X203.2Y-58.42
X203.2Y-60.96
X203.2Y-63.5
X203.2Y-66.04
X203.2Y-68.58
X203.2Y-71.12
X203.2Y-73.66
X203.2Y-76.2
X203.2Y-78.74
X203.2Y-81.28
X203.2Y-83.82
X203.2Y-86.36
X203.2Y-88.9
X203.2Y-91.44
X203.2Y-93.98
X203.2Y-96.52
X203.2Y-99.06
X203.2Y-101.6
X203.2Y-104.14
X203.2Y-123.19
X203.2Y-125.73
X203.2Y-133.35
X203.2Y-135.89
X203.2Y-138.43
X203.2Y-140.97
X203.2Y-143.51
X203.2Y-151.13
X203.2Y-153.67
X203.2Y-156.21
X203.2Y-158.75
X203.2Y-161.29
X203.2Y-168.91
X203.2Y-171.45
X205.74Y-123.19
X205.74Y-125.73
X205.74Y-133.35
X205.74Y-135.89
X205.74Y-138.43
X205.74Y-140.97
X205.74Y-143.51
X205.74Y-151.13
X205.74Y-153.67
X205.74Y-156.21
X205.74Y-158.75
X205.74Y-161.29
X205.74Y-168.91
X205.74Y-171.45
X208.28Y-123.19
X208.28Y-125.73
X208.28Y-133.35
X208.28Y-135.89
X208.28Y-138.43
X208.28Y-140.97
X208.28Y-143.51
X208.28Y-151.13
X208.28Y-153.67
X208.28Y-156.21
X208.28Y-158.75
X208.28Y-161.29
X208.28Y-168.91
X208.28Y-171.45
X210.82Y-33.02
X210.82Y-35.56
X210.82Y-38.1
X210.82Y-40.64
X210.82Y-43.18
X210.82Y-48.26
X210.82Y-50.8
X210.82Y-53.34
X210.82Y-55.88
X210.82Y-58.42
X210.82Y-63.5
X210.82Y-66.04
X210.82Y-68.58
X210.82Y-71.12
X210.82Y-73.66
X210.82Y-78.74
X210.82Y-81.28
X210.82Y-83.82
X210.82Y-86.36
X210.82Y-88.9
X210.82Y-93.98
X210.82Y-96.52
X210.82Y-99.06
X210.82Y-101.6
X210.82Y-104.14
X210.82Y-123.19
X210.82Y-125.73
X210.82Y-133.35
X210.82Y-135.89
X210.82Y-138.43
X210.82Y-140.97
X210.82Y-143.51
X210.82Y-151.13
X210.82Y-153.67
X210.82Y-156.21
X210.82Y-158.75
X210.82Y-161.29
X210.82Y-168.91
X210.82Y-171.45
X213.36Y-33.02
X213.36Y-35.56
X213.36Y-38.1
X213.36Y-40.64
X213.36Y-43.18
X213.36Y-48.26
X213.36Y-50.8
X213.36Y-53.34
X213.36Y-55.88
X213.36Y-58.42
X213.36Y-63.5
X213.36Y-66.04
X213.36Y-68.58
X213.36Y-71.12
X213.36Y-73.66
X213.36Y-78.74
X213.36Y-81.28
X213.36Y-83.82
X213.36Y-86.36
X213.36Y-88.9
X213.36Y-93.98
X213.36Y-96.52
X213.36Y-99.06
X213.36Y-101.6
X213.36Y-104.14
T3
X62.23Y-68.58
X62.23Y-77.47
X62.23Y-86.36
X64.77Y-44.45
X64.77Y-59.69
X72.39Y-44.45
X72.39Y-59.69
X72.43Y-96.52
X74.93Y-68.58
X74.93Y-77.47
X74.93Y-86.36
X74.93Y-96.52
X84.592Y-48.504
X84.592Y-51.044
X84.592Y-53.584
X84.592Y-56.124
X84.592Y-58.664
X84.592Y-61.204
X84.592Y-63.744
X84.592Y-66.284
X84.592Y-68.824
X84.592Y-71.364
X84.592Y-73.904
X84.592Y-76.444
X84.592Y-78.984
X84.592Y-81.524
X84.592Y-84.064
X84.592Y-86.604
X84.592Y-89.144
X84.592Y-91.684
X84.592Y-94.224
X84.592Y-96.764
X90.733Y-44.689
X93.233Y-44.689
X99.832Y-48.504
X99.832Y-51.044
X99.832Y-53.584
X99.832Y-56.124
X99.832Y-58.664
X99.832Y-61.204
X99.832Y-63.744
X99.832Y-66.284
X99.832Y-68.824
X99.832Y-71.364
X99.832Y-73.904
X99.832Y-76.444
X99.832Y-78.984
X99.832Y-81.524
X99.832Y-84.064
X99.832Y-86.604
X99.832Y-89.144
X99.832Y-91.684
X99.832Y-94.224
X99.832Y-96.764
X106.441Y-54.889
X106.441Y-57.389
X106.441Y-75.169
X106.441Y-77.669
X109.982Y-48.504
X109.982Y-63.744
X109.982Y-68.824
X109.982Y-84.064
X112.522Y-48.504
X112.522Y-63.744
X112.522Y-68.824
X112.522Y-84.064
X115.062Y-48.504
X115.062Y-63.744
X115.062Y-68.824
X115.062Y-84.064
X117.602Y-48.504
X117.602Y-63.744
X117.602Y-68.824
X117.602Y-84.064
X120.142Y-48.504
X120.142Y-63.744
X120.142Y-68.824
X120.142Y-84.064
X122.682Y-48.504
X122.682Y-63.744
X122.682Y-68.824
X122.682Y-84.064
X125.222Y-48.504
X125.222Y-63.744
X125.222Y-68.824
X125.222Y-84.064
X127.762Y-48.504
X127.762Y-63.744
X127.762Y-68.824
X127.762Y-84.064
X130.302Y-48.504
X130.302Y-63.744
X130.302Y-68.824
X130.302Y-84.064
X132.842Y-48.504
X132.842Y-63.744
X132.842Y-68.824
X132.842Y-84.064
X135.382Y-48.504
X135.382Y-63.744
X135.382Y-68.824
X135.382Y-84.064
X137.922Y-48.504
X137.922Y-63.744
X137.922Y-68.824
X137.922Y-84.064
X140.462Y-48.504
X140.462Y-63.744
X140.462Y-68.824
X140.462Y-84.064
X143.002Y-48.504
X143.002Y-63.744
X143.002Y-68.824
X143.002Y-84.064
T4
X80.03Y-35.267
X80.03Y-37.267
X82.53Y-35.267
X82.53Y-37.267
T5
X63.5Y-114.3
X66.04Y-114.3
X68.58Y-114.3
X71.12Y-114.3
X73.66Y-114.3
X76.2Y-114.3
X78.74Y-114.3
X81.28Y-114.3
X83.82Y-114.3
X86.36Y-114.3
X93.98Y-114.3
X96.52Y-114.3
X99.06Y-114.3
X101.6Y-114.3
X104.14Y-114.3
X106.68Y-114.3
X109.22Y-114.3
X111.76Y-114.3
X114.3Y-114.3
X116.84Y-114.3
X119.38Y-114.3
X121.92Y-114.3
X124.46Y-114.3
X127.0Y-114.3
X129.54Y-114.3
X132.08Y-114.3
X139.7Y-114.3
X142.24Y-114.3
X144.78Y-114.3
X147.32Y-114.3
X149.86Y-114.3
X152.4Y-114.3
X154.94Y-114.3
X157.48Y-33.02
X157.48Y-35.56
X157.48Y-38.1
X157.48Y-40.64
X157.48Y-43.18
X157.48Y-45.72
X157.48Y-48.26
X157.48Y-50.8
X157.48Y-58.42
X157.48Y-60.96
X157.48Y-63.5
X157.48Y-66.04
X157.48Y-68.58
X157.48Y-71.12
X157.48Y-73.66
X157.48Y-76.2
X157.48Y-86.36
X157.48Y-88.9
X157.48Y-91.44
X157.48Y-99.06
X157.48Y-101.6
X157.48Y-104.14
X157.48Y-114.3
X165.1Y-111.76
X165.1Y-114.3
X167.64Y-111.76
X167.64Y-114.3
X170.18Y-111.76
X170.18Y-114.3
X172.72Y-111.76
X172.72Y-114.3
X175.26Y-111.76
X175.26Y-114.3
X177.8Y-111.76
X177.8Y-114.3
X180.34Y-111.76
X180.34Y-114.3
X182.88Y-111.76
X182.88Y-114.3
X185.42Y-111.76
X185.42Y-114.3
X187.96Y-111.76
X187.96Y-114.3
X190.5Y-111.76
X190.5Y-114.3
X193.04Y-111.76
X193.04Y-114.3
X195.58Y-111.76
X195.58Y-114.3
X198.12Y-111.76
X198.12Y-114.3
X200.66Y-111.76
X200.66Y-114.3
X203.2Y-111.76
X203.2Y-114.3
X205.74Y-111.76
X205.74Y-114.3
X208.28Y-111.76
X208.28Y-114.3
X210.82Y-111.76
X210.82Y-114.3
X213.36Y-111.76
X213.36Y-114.3
T6
X53.63Y-69.14
X53.63Y-75.64
X58.13Y-69.14
X58.13Y-75.64
T7
X75.28Y-32.407
X87.28Y-32.407
T8
X55.88Y-30.48
X55.88Y-104.14
X55.88Y-177.8
X107.95Y-30.48
X107.95Y-104.14
X107.95Y-177.8
X147.32Y-30.48
X147.32Y-104.14
X147.32Y-177.8
X220.98Y-104.14
X220.98Y-177.8
X221.12Y-30.48
T0
M30
