%TF.GenerationSoftware,KiCad,Pcbnew,6.0.9-8da3e8f707~116~ubuntu20.04.1*%
%TF.CreationDate,2022-11-18T21:38:56+01:00*%
%TF.ProjectId,WD6502,57443635-3032-42e6-9b69-6361645f7063,rev?*%
%TF.SameCoordinates,Original*%
%TF.FileFunction,Soldermask,Top*%
%TF.FilePolarity,Negative*%
%FSLAX46Y46*%
G04 Gerber Fmt 4.6, Leading zero omitted, Abs format (unit mm)*
G04 Created by KiCad (PCBNEW 6.0.9-8da3e8f707~116~ubuntu20.04.1) date 2022-11-18 21:38:56*
%MOMM*%
%LPD*%
G01*
G04 APERTURE LIST*
%ADD10R,2.400000X1.600000*%
%ADD11O,2.400000X1.600000*%
%ADD12C,1.600000*%
%ADD13O,1.600000X1.600000*%
%ADD14C,0.800000*%
%ADD15C,6.400000*%
%ADD16R,1.600000X2.400000*%
%ADD17O,1.600000X2.400000*%
%ADD18R,1.700000X1.700000*%
%ADD19O,1.700000X1.700000*%
%ADD20R,1.600000X1.600000*%
%ADD21C,4.000000*%
%ADD22C,1.524000*%
%ADD23C,2.000000*%
G04 APERTURE END LIST*
D10*
%TO.C,U1*%
X84592000Y-48504000D03*
D11*
X84592000Y-51044000D03*
X84592000Y-53584000D03*
X84592000Y-56124000D03*
X84592000Y-58664000D03*
X84592000Y-61204000D03*
X84592000Y-63744000D03*
X84592000Y-66284000D03*
X84592000Y-68824000D03*
X84592000Y-71364000D03*
X84592000Y-73904000D03*
X84592000Y-76444000D03*
X84592000Y-78984000D03*
X84592000Y-81524000D03*
X84592000Y-84064000D03*
X84592000Y-86604000D03*
X84592000Y-89144000D03*
X84592000Y-91684000D03*
X84592000Y-94224000D03*
X84592000Y-96764000D03*
X99832000Y-96764000D03*
X99832000Y-94224000D03*
X99832000Y-91684000D03*
X99832000Y-89144000D03*
X99832000Y-86604000D03*
X99832000Y-84064000D03*
X99832000Y-81524000D03*
X99832000Y-78984000D03*
X99832000Y-76444000D03*
X99832000Y-73904000D03*
X99832000Y-71364000D03*
X99832000Y-68824000D03*
X99832000Y-66284000D03*
X99832000Y-63744000D03*
X99832000Y-61204000D03*
X99832000Y-58664000D03*
X99832000Y-56124000D03*
X99832000Y-53584000D03*
X99832000Y-51044000D03*
X99832000Y-48504000D03*
%TD*%
D12*
%TO.C,R1*%
X62230000Y-86360000D03*
D13*
X74930000Y-86360000D03*
%TD*%
D14*
%TO.C,H2*%
X221120000Y-28080000D03*
X218720000Y-30480000D03*
X221120000Y-32880000D03*
X219422944Y-32177056D03*
D15*
X221120000Y-30480000D03*
D14*
X222817056Y-32177056D03*
X223520000Y-30480000D03*
X219422944Y-28782944D03*
X222817056Y-28782944D03*
%TD*%
D12*
%TO.C,R2*%
X62230000Y-77470000D03*
D13*
X74930000Y-77470000D03*
%TD*%
D16*
%TO.C,U3*%
X109982000Y-63744000D03*
D17*
X112522000Y-63744000D03*
X115062000Y-63744000D03*
X117602000Y-63744000D03*
X120142000Y-63744000D03*
X122682000Y-63744000D03*
X125222000Y-63744000D03*
X127762000Y-63744000D03*
X130302000Y-63744000D03*
X132842000Y-63744000D03*
X135382000Y-63744000D03*
X137922000Y-63744000D03*
X140462000Y-63744000D03*
X143002000Y-63744000D03*
X143002000Y-48504000D03*
X140462000Y-48504000D03*
X137922000Y-48504000D03*
X135382000Y-48504000D03*
X132842000Y-48504000D03*
X130302000Y-48504000D03*
X127762000Y-48504000D03*
X125222000Y-48504000D03*
X122682000Y-48504000D03*
X120142000Y-48504000D03*
X117602000Y-48504000D03*
X115062000Y-48504000D03*
X112522000Y-48504000D03*
X109982000Y-48504000D03*
%TD*%
D14*
%TO.C,H12*%
X149017056Y-176102944D03*
X147320000Y-175400000D03*
X144920000Y-177800000D03*
X145622944Y-176102944D03*
X147320000Y-180200000D03*
X149720000Y-177800000D03*
D15*
X147320000Y-177800000D03*
D14*
X149017056Y-179497056D03*
X145622944Y-179497056D03*
%TD*%
D12*
%TO.C,C4*%
X74930000Y-96520000D03*
X72430000Y-96520000D03*
%TD*%
D16*
%TO.C,U2*%
X109982000Y-84064000D03*
D17*
X112522000Y-84064000D03*
X115062000Y-84064000D03*
X117602000Y-84064000D03*
X120142000Y-84064000D03*
X122682000Y-84064000D03*
X125222000Y-84064000D03*
X127762000Y-84064000D03*
X130302000Y-84064000D03*
X132842000Y-84064000D03*
X135382000Y-84064000D03*
X137922000Y-84064000D03*
X140462000Y-84064000D03*
X143002000Y-84064000D03*
X143002000Y-68824000D03*
X140462000Y-68824000D03*
X137922000Y-68824000D03*
X135382000Y-68824000D03*
X132842000Y-68824000D03*
X130302000Y-68824000D03*
X127762000Y-68824000D03*
X125222000Y-68824000D03*
X122682000Y-68824000D03*
X120142000Y-68824000D03*
X117602000Y-68824000D03*
X115062000Y-68824000D03*
X112522000Y-68824000D03*
X109982000Y-68824000D03*
%TD*%
D18*
%TO.C,J7*%
X157480000Y-50800000D03*
D19*
X157480000Y-48260000D03*
X157480000Y-45720000D03*
X157480000Y-43180000D03*
X157480000Y-40640000D03*
X157480000Y-38100000D03*
X157480000Y-35560000D03*
X157480000Y-33020000D03*
%TD*%
D15*
%TO.C,H8*%
X147320000Y-104140000D03*
D14*
X145622944Y-105837056D03*
X147320000Y-101740000D03*
X149017056Y-102442944D03*
X145622944Y-102442944D03*
X149720000Y-104140000D03*
X149017056Y-105837056D03*
X144920000Y-104140000D03*
X147320000Y-106540000D03*
%TD*%
D20*
%TO.C,J6*%
X80030000Y-37267500D03*
D12*
X82530000Y-37267500D03*
X82530000Y-35267500D03*
X80030000Y-35267500D03*
D21*
X87280000Y-32407500D03*
X75280000Y-32407500D03*
%TD*%
D12*
%TO.C,C1*%
X90733000Y-44689000D03*
X93233000Y-44689000D03*
%TD*%
D22*
%TO.C,U5*%
X180340000Y-171450000D03*
X200660000Y-171450000D03*
X147320000Y-171450000D03*
X177800000Y-171450000D03*
X210820000Y-171450000D03*
X165100000Y-171450000D03*
X142240000Y-171450000D03*
X185420000Y-171450000D03*
X139700000Y-171450000D03*
X157480000Y-171450000D03*
X162560000Y-171450000D03*
X154940000Y-171450000D03*
X170180000Y-171450000D03*
X144780000Y-171450000D03*
X195580000Y-171450000D03*
X208280000Y-171450000D03*
X193040000Y-171450000D03*
X172720000Y-171450000D03*
X205740000Y-171450000D03*
X175260000Y-171450000D03*
X203200000Y-171450000D03*
X160020000Y-171450000D03*
X190500000Y-171450000D03*
X149860000Y-171450000D03*
X187960000Y-171450000D03*
X175260000Y-125730000D03*
X210820000Y-125730000D03*
X142240000Y-125730000D03*
X172720000Y-125730000D03*
X203200000Y-125730000D03*
X195580000Y-125730000D03*
X205740000Y-125730000D03*
X200660000Y-125730000D03*
X193040000Y-125730000D03*
X154940000Y-125730000D03*
X187960000Y-125730000D03*
X190500000Y-125730000D03*
X185420000Y-125730000D03*
X165100000Y-125730000D03*
X157480000Y-125730000D03*
X147320000Y-125730000D03*
X139700000Y-125730000D03*
X149860000Y-125730000D03*
X170180000Y-125730000D03*
X144780000Y-125730000D03*
X208280000Y-125730000D03*
X180340000Y-125730000D03*
X177800000Y-125730000D03*
X160020000Y-125730000D03*
X162560000Y-125730000D03*
X139700000Y-168910000D03*
X160020000Y-168910000D03*
X154940000Y-168910000D03*
X193040000Y-168910000D03*
X203200000Y-168910000D03*
X195580000Y-168910000D03*
X170180000Y-168910000D03*
X187960000Y-168910000D03*
X172720000Y-168910000D03*
X142240000Y-168910000D03*
X144780000Y-168910000D03*
X185420000Y-168910000D03*
X205740000Y-168910000D03*
X147320000Y-168910000D03*
X175260000Y-168910000D03*
X190500000Y-168910000D03*
X157480000Y-168910000D03*
X208280000Y-168910000D03*
X210820000Y-168910000D03*
X200660000Y-168910000D03*
X149860000Y-168910000D03*
X177800000Y-168910000D03*
X165100000Y-168910000D03*
X180340000Y-168910000D03*
X162560000Y-168910000D03*
X195580000Y-123190000D03*
X170180000Y-123190000D03*
X208280000Y-123190000D03*
X157480000Y-123190000D03*
X175260000Y-123190000D03*
X160020000Y-123190000D03*
X162560000Y-123190000D03*
X139700000Y-123190000D03*
X177800000Y-123190000D03*
X187960000Y-123190000D03*
X203200000Y-123190000D03*
X185420000Y-123190000D03*
X210820000Y-123190000D03*
X165100000Y-123190000D03*
X172720000Y-123190000D03*
X149860000Y-123190000D03*
X193040000Y-123190000D03*
X190500000Y-123190000D03*
X154940000Y-123190000D03*
X205740000Y-123190000D03*
X147320000Y-123190000D03*
X144780000Y-123190000D03*
X180340000Y-123190000D03*
X200660000Y-123190000D03*
X142240000Y-123190000D03*
X157480000Y-161290000D03*
X208280000Y-161290000D03*
X198120000Y-161290000D03*
X185420000Y-161290000D03*
X160020000Y-161290000D03*
X165100000Y-161290000D03*
X154940000Y-161290000D03*
X177800000Y-161290000D03*
X203200000Y-161290000D03*
X167640000Y-161290000D03*
X144780000Y-161290000D03*
X190500000Y-161290000D03*
X152400000Y-161290000D03*
X170180000Y-161290000D03*
X195580000Y-161290000D03*
X205740000Y-161290000D03*
X162560000Y-161290000D03*
X147320000Y-161290000D03*
X200660000Y-161290000D03*
X210820000Y-161290000D03*
X180340000Y-161290000D03*
X142240000Y-161290000D03*
X175260000Y-161290000D03*
X149860000Y-161290000D03*
X193040000Y-161290000D03*
X182880000Y-161290000D03*
X187960000Y-161290000D03*
X172720000Y-161290000D03*
X139700000Y-161290000D03*
X152400000Y-158750000D03*
X144780000Y-158750000D03*
X190500000Y-158750000D03*
X203200000Y-158750000D03*
X147320000Y-158750000D03*
X177800000Y-158750000D03*
X180340000Y-158750000D03*
X205740000Y-158750000D03*
X210820000Y-158750000D03*
X200660000Y-158750000D03*
X187960000Y-158750000D03*
X154940000Y-158750000D03*
X162560000Y-158750000D03*
X139700000Y-158750000D03*
X170180000Y-158750000D03*
X175260000Y-158750000D03*
X157480000Y-158750000D03*
X172720000Y-158750000D03*
X142240000Y-158750000D03*
X149860000Y-158750000D03*
X198120000Y-158750000D03*
X208280000Y-158750000D03*
X167640000Y-158750000D03*
X160020000Y-158750000D03*
X193040000Y-158750000D03*
X185420000Y-158750000D03*
X195580000Y-158750000D03*
X182880000Y-158750000D03*
X165100000Y-158750000D03*
X172720000Y-156210000D03*
X162560000Y-156210000D03*
X139700000Y-156210000D03*
X193040000Y-156210000D03*
X180340000Y-156210000D03*
X142240000Y-156210000D03*
X167640000Y-156210000D03*
X147320000Y-156210000D03*
X185420000Y-156210000D03*
X154940000Y-156210000D03*
X208280000Y-156210000D03*
X203200000Y-156210000D03*
X165100000Y-156210000D03*
X205740000Y-156210000D03*
X175260000Y-156210000D03*
X210820000Y-156210000D03*
X170180000Y-156210000D03*
X190500000Y-156210000D03*
X157480000Y-156210000D03*
X200660000Y-156210000D03*
X160020000Y-156210000D03*
X144780000Y-156210000D03*
X177800000Y-156210000D03*
X198120000Y-156210000D03*
X152400000Y-156210000D03*
X149860000Y-156210000D03*
X187960000Y-156210000D03*
X195580000Y-156210000D03*
X182880000Y-156210000D03*
X180340000Y-153670000D03*
X152400000Y-153670000D03*
X195580000Y-153670000D03*
X147320000Y-153670000D03*
X175260000Y-153670000D03*
X165100000Y-153670000D03*
X157480000Y-153670000D03*
X139700000Y-153670000D03*
X149860000Y-153670000D03*
X205740000Y-153670000D03*
X208280000Y-153670000D03*
X162560000Y-153670000D03*
X160020000Y-153670000D03*
X200660000Y-153670000D03*
X172720000Y-153670000D03*
X185420000Y-153670000D03*
X203200000Y-153670000D03*
X193040000Y-153670000D03*
X144780000Y-153670000D03*
X187960000Y-153670000D03*
X154940000Y-153670000D03*
X190500000Y-153670000D03*
X167640000Y-153670000D03*
X177800000Y-153670000D03*
X210820000Y-153670000D03*
X182880000Y-153670000D03*
X198120000Y-153670000D03*
X170180000Y-153670000D03*
X142240000Y-153670000D03*
X187960000Y-151130000D03*
X177800000Y-151130000D03*
X182880000Y-151130000D03*
X144780000Y-151130000D03*
X190500000Y-151130000D03*
X154940000Y-151130000D03*
X198120000Y-151130000D03*
X157480000Y-151130000D03*
X210820000Y-151130000D03*
X205740000Y-151130000D03*
X200660000Y-151130000D03*
X139700000Y-151130000D03*
X172720000Y-151130000D03*
X147320000Y-151130000D03*
X193040000Y-151130000D03*
X165100000Y-151130000D03*
X203200000Y-151130000D03*
X180340000Y-151130000D03*
X208280000Y-151130000D03*
X149860000Y-151130000D03*
X142240000Y-151130000D03*
X162560000Y-151130000D03*
X175260000Y-151130000D03*
X170180000Y-151130000D03*
X160020000Y-151130000D03*
X152400000Y-151130000D03*
X195580000Y-151130000D03*
X167640000Y-151130000D03*
X185420000Y-151130000D03*
X152400000Y-143510000D03*
X180340000Y-143510000D03*
X172720000Y-143510000D03*
X193040000Y-143510000D03*
X182880000Y-143510000D03*
X139700000Y-143510000D03*
X144780000Y-143510000D03*
X165100000Y-143510000D03*
X200660000Y-143510000D03*
X187960000Y-143510000D03*
X157480000Y-143510000D03*
X142240000Y-143510000D03*
X208280000Y-143510000D03*
X160020000Y-143510000D03*
X185420000Y-143510000D03*
X198120000Y-143510000D03*
X205740000Y-143510000D03*
X175260000Y-143510000D03*
X154940000Y-143510000D03*
X177800000Y-143510000D03*
X210820000Y-143510000D03*
X167640000Y-143510000D03*
X149860000Y-143510000D03*
X203200000Y-143510000D03*
X147320000Y-143510000D03*
X170180000Y-143510000D03*
X190500000Y-143510000D03*
X162560000Y-143510000D03*
X195580000Y-143510000D03*
X142240000Y-140970000D03*
X172720000Y-140970000D03*
X200660000Y-140970000D03*
X162560000Y-140970000D03*
X154940000Y-140970000D03*
X147320000Y-140970000D03*
X203200000Y-140970000D03*
X139700000Y-140970000D03*
X165100000Y-140970000D03*
X149860000Y-140970000D03*
X210820000Y-140970000D03*
X185420000Y-140970000D03*
X167640000Y-140970000D03*
X175260000Y-140970000D03*
X144780000Y-140970000D03*
X208280000Y-140970000D03*
X195580000Y-140970000D03*
X177800000Y-140970000D03*
X170180000Y-140970000D03*
X193040000Y-140970000D03*
X160020000Y-140970000D03*
X152400000Y-140970000D03*
X187960000Y-140970000D03*
X190500000Y-140970000D03*
X157480000Y-140970000D03*
X180340000Y-140970000D03*
X205740000Y-140970000D03*
X182880000Y-140970000D03*
X198120000Y-140970000D03*
X147320000Y-138430000D03*
X139700000Y-138430000D03*
X193040000Y-138430000D03*
X185420000Y-138430000D03*
X154940000Y-138430000D03*
X170180000Y-138430000D03*
X144780000Y-138430000D03*
X172720000Y-138430000D03*
X157480000Y-138430000D03*
X149860000Y-138430000D03*
X177800000Y-138430000D03*
X208280000Y-138430000D03*
X200660000Y-138430000D03*
X180340000Y-138430000D03*
X203200000Y-138430000D03*
X167640000Y-138430000D03*
X187960000Y-138430000D03*
X195580000Y-138430000D03*
X162560000Y-138430000D03*
X152400000Y-138430000D03*
X210820000Y-138430000D03*
X198120000Y-138430000D03*
X205740000Y-138430000D03*
X175260000Y-138430000D03*
X142240000Y-138430000D03*
X182880000Y-138430000D03*
X160020000Y-138430000D03*
X190500000Y-138430000D03*
X165100000Y-138430000D03*
X172720000Y-135890000D03*
X157480000Y-135890000D03*
X210820000Y-135890000D03*
X175260000Y-135890000D03*
X187960000Y-135890000D03*
X154940000Y-135890000D03*
X165100000Y-135890000D03*
X185420000Y-135890000D03*
X205740000Y-135890000D03*
X200660000Y-135890000D03*
X170180000Y-135890000D03*
X182880000Y-135890000D03*
X162560000Y-135890000D03*
X190500000Y-135890000D03*
X149860000Y-135890000D03*
X198120000Y-135890000D03*
X177800000Y-135890000D03*
X139700000Y-135890000D03*
X195580000Y-135890000D03*
X147320000Y-135890000D03*
X144780000Y-135890000D03*
X208280000Y-135890000D03*
X203200000Y-135890000D03*
X142240000Y-135890000D03*
X152400000Y-135890000D03*
X193040000Y-135890000D03*
X160020000Y-135890000D03*
X180340000Y-135890000D03*
X167640000Y-135890000D03*
X152400000Y-133350000D03*
X142240000Y-133350000D03*
X200660000Y-133350000D03*
X165100000Y-133350000D03*
X160020000Y-133350000D03*
X208280000Y-133350000D03*
X157480000Y-133350000D03*
X154940000Y-133350000D03*
X170180000Y-133350000D03*
X147320000Y-133350000D03*
X187960000Y-133350000D03*
X149860000Y-133350000D03*
X198120000Y-133350000D03*
X205740000Y-133350000D03*
X167640000Y-133350000D03*
X195580000Y-133350000D03*
X175260000Y-133350000D03*
X193040000Y-133350000D03*
X182880000Y-133350000D03*
X210820000Y-133350000D03*
X172720000Y-133350000D03*
X139700000Y-133350000D03*
X203200000Y-133350000D03*
X190500000Y-133350000D03*
X162560000Y-133350000D03*
X144780000Y-133350000D03*
X180340000Y-133350000D03*
X185420000Y-133350000D03*
X177800000Y-133350000D03*
%TD*%
D18*
%TO.C,J8*%
X157480000Y-58420000D03*
D19*
X157480000Y-60960000D03*
X157480000Y-63500000D03*
X157480000Y-66040000D03*
X157480000Y-68580000D03*
X157480000Y-71120000D03*
X157480000Y-73660000D03*
X157480000Y-76200000D03*
%TD*%
D14*
%TO.C,H6*%
X220980000Y-180200000D03*
D15*
X220980000Y-177800000D03*
D14*
X218580000Y-177800000D03*
X219282944Y-176102944D03*
X220980000Y-175400000D03*
X219282944Y-179497056D03*
X222677056Y-179497056D03*
X223380000Y-177800000D03*
X222677056Y-176102944D03*
%TD*%
%TO.C,H7*%
X110350000Y-104140000D03*
X106252944Y-105837056D03*
X107950000Y-106540000D03*
D15*
X107950000Y-104140000D03*
D14*
X109647056Y-102442944D03*
X105550000Y-104140000D03*
X109647056Y-105837056D03*
X106252944Y-102442944D03*
X107950000Y-101740000D03*
%TD*%
D18*
%TO.C,J4*%
X157480000Y-86360000D03*
D19*
X157480000Y-88900000D03*
X157480000Y-91440000D03*
%TD*%
D18*
%TO.C,J5*%
X157480000Y-99060000D03*
D19*
X157480000Y-101600000D03*
X157480000Y-104140000D03*
%TD*%
D18*
%TO.C,J2*%
X139700000Y-114300000D03*
D19*
X142240000Y-114300000D03*
X144780000Y-114300000D03*
X147320000Y-114300000D03*
X149860000Y-114300000D03*
X152400000Y-114300000D03*
X154940000Y-114300000D03*
X157480000Y-114300000D03*
%TD*%
D12*
%TO.C,C3*%
X106441000Y-57389000D03*
X106441000Y-54889000D03*
%TD*%
D22*
%TO.C,U4*%
X165100000Y-35560000D03*
X165100000Y-48260000D03*
X165100000Y-40640000D03*
X165100000Y-83820000D03*
X165100000Y-86360000D03*
X165100000Y-53340000D03*
X165100000Y-93980000D03*
X165100000Y-104140000D03*
X165100000Y-58420000D03*
X165100000Y-68580000D03*
X165100000Y-43180000D03*
X165100000Y-55880000D03*
X165100000Y-78740000D03*
X165100000Y-63500000D03*
X165100000Y-33020000D03*
X165100000Y-88900000D03*
X165100000Y-96520000D03*
X165100000Y-101600000D03*
X165100000Y-71120000D03*
X165100000Y-38100000D03*
X165100000Y-66040000D03*
X165100000Y-73660000D03*
X165100000Y-99060000D03*
X165100000Y-50800000D03*
X165100000Y-81280000D03*
X210820000Y-33020000D03*
X210820000Y-88900000D03*
X210820000Y-50800000D03*
X210820000Y-83820000D03*
X210820000Y-81280000D03*
X210820000Y-73660000D03*
X210820000Y-58420000D03*
X210820000Y-63500000D03*
X210820000Y-48260000D03*
X210820000Y-96520000D03*
X210820000Y-40640000D03*
X210820000Y-53340000D03*
X210820000Y-66040000D03*
X210820000Y-43180000D03*
X210820000Y-104140000D03*
X210820000Y-99060000D03*
X210820000Y-38100000D03*
X210820000Y-35560000D03*
X210820000Y-86360000D03*
X210820000Y-101600000D03*
X210820000Y-78740000D03*
X210820000Y-55880000D03*
X210820000Y-68580000D03*
X210820000Y-71120000D03*
X210820000Y-93980000D03*
X167640000Y-66040000D03*
X167640000Y-48260000D03*
X167640000Y-43180000D03*
X167640000Y-40640000D03*
X167640000Y-50800000D03*
X167640000Y-86360000D03*
X167640000Y-63500000D03*
X167640000Y-38100000D03*
X167640000Y-101600000D03*
X167640000Y-96520000D03*
X167640000Y-58420000D03*
X167640000Y-88900000D03*
X167640000Y-68580000D03*
X167640000Y-99060000D03*
X167640000Y-55880000D03*
X167640000Y-93980000D03*
X167640000Y-78740000D03*
X167640000Y-53340000D03*
X167640000Y-73660000D03*
X167640000Y-104140000D03*
X167640000Y-71120000D03*
X167640000Y-81280000D03*
X167640000Y-33020000D03*
X167640000Y-83820000D03*
X167640000Y-35560000D03*
X213360000Y-96520000D03*
X213360000Y-104140000D03*
X213360000Y-81280000D03*
X213360000Y-58420000D03*
X213360000Y-40640000D03*
X213360000Y-83820000D03*
X213360000Y-33020000D03*
X213360000Y-68580000D03*
X213360000Y-73660000D03*
X213360000Y-88900000D03*
X213360000Y-71120000D03*
X213360000Y-48260000D03*
X213360000Y-50800000D03*
X213360000Y-66040000D03*
X213360000Y-86360000D03*
X213360000Y-78740000D03*
X213360000Y-93980000D03*
X213360000Y-63500000D03*
X213360000Y-38100000D03*
X213360000Y-55880000D03*
X213360000Y-35560000D03*
X213360000Y-99060000D03*
X213360000Y-101600000D03*
X213360000Y-43180000D03*
X213360000Y-53340000D03*
X175260000Y-35560000D03*
X175260000Y-33020000D03*
X175260000Y-83820000D03*
X175260000Y-86360000D03*
X175260000Y-93980000D03*
X175260000Y-50800000D03*
X175260000Y-60960000D03*
X175260000Y-99060000D03*
X175260000Y-104140000D03*
X175260000Y-71120000D03*
X175260000Y-48260000D03*
X175260000Y-101600000D03*
X175260000Y-81280000D03*
X175260000Y-55880000D03*
X175260000Y-68580000D03*
X175260000Y-78740000D03*
X175260000Y-91440000D03*
X175260000Y-53340000D03*
X175260000Y-38100000D03*
X175260000Y-66040000D03*
X175260000Y-63500000D03*
X175260000Y-43180000D03*
X175260000Y-76200000D03*
X175260000Y-96520000D03*
X175260000Y-40640000D03*
X175260000Y-88900000D03*
X175260000Y-58420000D03*
X175260000Y-45720000D03*
X175260000Y-73660000D03*
X177800000Y-40640000D03*
X177800000Y-104140000D03*
X177800000Y-68580000D03*
X177800000Y-71120000D03*
X177800000Y-86360000D03*
X177800000Y-83820000D03*
X177800000Y-48260000D03*
X177800000Y-55880000D03*
X177800000Y-45720000D03*
X177800000Y-43180000D03*
X177800000Y-33020000D03*
X177800000Y-63500000D03*
X177800000Y-78740000D03*
X177800000Y-58420000D03*
X177800000Y-50800000D03*
X177800000Y-99060000D03*
X177800000Y-53340000D03*
X177800000Y-101600000D03*
X177800000Y-76200000D03*
X177800000Y-60960000D03*
X177800000Y-81280000D03*
X177800000Y-93980000D03*
X177800000Y-88900000D03*
X177800000Y-96520000D03*
X177800000Y-38100000D03*
X177800000Y-35560000D03*
X177800000Y-73660000D03*
X177800000Y-91440000D03*
X177800000Y-66040000D03*
X180340000Y-58420000D03*
X180340000Y-101600000D03*
X180340000Y-48260000D03*
X180340000Y-35560000D03*
X180340000Y-68580000D03*
X180340000Y-53340000D03*
X180340000Y-63500000D03*
X180340000Y-104140000D03*
X180340000Y-99060000D03*
X180340000Y-50800000D03*
X180340000Y-76200000D03*
X180340000Y-88900000D03*
X180340000Y-60960000D03*
X180340000Y-71120000D03*
X180340000Y-83820000D03*
X180340000Y-55880000D03*
X180340000Y-45720000D03*
X180340000Y-96520000D03*
X180340000Y-81280000D03*
X180340000Y-66040000D03*
X180340000Y-38100000D03*
X180340000Y-86360000D03*
X180340000Y-91440000D03*
X180340000Y-33020000D03*
X180340000Y-78740000D03*
X180340000Y-43180000D03*
X180340000Y-93980000D03*
X180340000Y-40640000D03*
X180340000Y-73660000D03*
X182880000Y-38100000D03*
X182880000Y-40640000D03*
X182880000Y-45720000D03*
X182880000Y-88900000D03*
X182880000Y-73660000D03*
X182880000Y-63500000D03*
X182880000Y-93980000D03*
X182880000Y-33020000D03*
X182880000Y-96520000D03*
X182880000Y-66040000D03*
X182880000Y-71120000D03*
X182880000Y-68580000D03*
X182880000Y-53340000D03*
X182880000Y-60960000D03*
X182880000Y-76200000D03*
X182880000Y-48260000D03*
X182880000Y-55880000D03*
X182880000Y-81280000D03*
X182880000Y-104140000D03*
X182880000Y-91440000D03*
X182880000Y-86360000D03*
X182880000Y-43180000D03*
X182880000Y-83820000D03*
X182880000Y-99060000D03*
X182880000Y-78740000D03*
X182880000Y-58420000D03*
X182880000Y-50800000D03*
X182880000Y-35560000D03*
X182880000Y-101600000D03*
X185420000Y-48260000D03*
X185420000Y-73660000D03*
X185420000Y-50800000D03*
X185420000Y-68580000D03*
X185420000Y-55880000D03*
X185420000Y-93980000D03*
X185420000Y-45720000D03*
X185420000Y-99060000D03*
X185420000Y-58420000D03*
X185420000Y-53340000D03*
X185420000Y-83820000D03*
X185420000Y-104140000D03*
X185420000Y-96520000D03*
X185420000Y-33020000D03*
X185420000Y-40640000D03*
X185420000Y-86360000D03*
X185420000Y-63500000D03*
X185420000Y-78740000D03*
X185420000Y-71120000D03*
X185420000Y-81280000D03*
X185420000Y-101600000D03*
X185420000Y-43180000D03*
X185420000Y-76200000D03*
X185420000Y-60960000D03*
X185420000Y-38100000D03*
X185420000Y-88900000D03*
X185420000Y-66040000D03*
X185420000Y-35560000D03*
X185420000Y-91440000D03*
X193040000Y-38100000D03*
X193040000Y-104140000D03*
X193040000Y-83820000D03*
X193040000Y-40640000D03*
X193040000Y-53340000D03*
X193040000Y-71120000D03*
X193040000Y-76200000D03*
X193040000Y-78740000D03*
X193040000Y-33020000D03*
X193040000Y-99060000D03*
X193040000Y-73660000D03*
X193040000Y-81280000D03*
X193040000Y-63500000D03*
X193040000Y-68580000D03*
X193040000Y-58420000D03*
X193040000Y-88900000D03*
X193040000Y-48260000D03*
X193040000Y-86360000D03*
X193040000Y-66040000D03*
X193040000Y-50800000D03*
X193040000Y-35560000D03*
X193040000Y-60960000D03*
X193040000Y-45720000D03*
X193040000Y-96520000D03*
X193040000Y-55880000D03*
X193040000Y-101600000D03*
X193040000Y-91440000D03*
X193040000Y-93980000D03*
X193040000Y-43180000D03*
X195580000Y-33020000D03*
X195580000Y-78740000D03*
X195580000Y-60960000D03*
X195580000Y-99060000D03*
X195580000Y-81280000D03*
X195580000Y-91440000D03*
X195580000Y-35560000D03*
X195580000Y-86360000D03*
X195580000Y-66040000D03*
X195580000Y-53340000D03*
X195580000Y-101600000D03*
X195580000Y-40640000D03*
X195580000Y-73660000D03*
X195580000Y-45720000D03*
X195580000Y-55880000D03*
X195580000Y-83820000D03*
X195580000Y-63500000D03*
X195580000Y-104140000D03*
X195580000Y-68580000D03*
X195580000Y-71120000D03*
X195580000Y-50800000D03*
X195580000Y-48260000D03*
X195580000Y-76200000D03*
X195580000Y-38100000D03*
X195580000Y-58420000D03*
X195580000Y-43180000D03*
X195580000Y-93980000D03*
X195580000Y-96520000D03*
X195580000Y-88900000D03*
X198120000Y-99060000D03*
X198120000Y-55880000D03*
X198120000Y-53340000D03*
X198120000Y-40640000D03*
X198120000Y-43180000D03*
X198120000Y-68580000D03*
X198120000Y-76200000D03*
X198120000Y-63500000D03*
X198120000Y-71120000D03*
X198120000Y-104140000D03*
X198120000Y-86360000D03*
X198120000Y-50800000D03*
X198120000Y-101600000D03*
X198120000Y-33020000D03*
X198120000Y-88900000D03*
X198120000Y-91440000D03*
X198120000Y-45720000D03*
X198120000Y-66040000D03*
X198120000Y-96520000D03*
X198120000Y-38100000D03*
X198120000Y-73660000D03*
X198120000Y-83820000D03*
X198120000Y-60960000D03*
X198120000Y-78740000D03*
X198120000Y-58420000D03*
X198120000Y-81280000D03*
X198120000Y-93980000D03*
X198120000Y-48260000D03*
X198120000Y-35560000D03*
X200660000Y-66040000D03*
X200660000Y-68580000D03*
X200660000Y-53340000D03*
X200660000Y-60960000D03*
X200660000Y-33020000D03*
X200660000Y-63500000D03*
X200660000Y-93980000D03*
X200660000Y-91440000D03*
X200660000Y-104140000D03*
X200660000Y-45720000D03*
X200660000Y-58420000D03*
X200660000Y-55880000D03*
X200660000Y-83820000D03*
X200660000Y-99060000D03*
X200660000Y-50800000D03*
X200660000Y-38100000D03*
X200660000Y-81280000D03*
X200660000Y-96520000D03*
X200660000Y-73660000D03*
X200660000Y-86360000D03*
X200660000Y-78740000D03*
X200660000Y-88900000D03*
X200660000Y-71120000D03*
X200660000Y-43180000D03*
X200660000Y-101600000D03*
X200660000Y-35560000D03*
X200660000Y-48260000D03*
X200660000Y-40640000D03*
X200660000Y-76200000D03*
X203200000Y-60960000D03*
X203200000Y-40640000D03*
X203200000Y-68580000D03*
X203200000Y-81280000D03*
X203200000Y-78740000D03*
X203200000Y-96520000D03*
X203200000Y-101600000D03*
X203200000Y-58420000D03*
X203200000Y-53340000D03*
X203200000Y-33020000D03*
X203200000Y-99060000D03*
X203200000Y-35560000D03*
X203200000Y-88900000D03*
X203200000Y-48260000D03*
X203200000Y-86360000D03*
X203200000Y-76200000D03*
X203200000Y-66040000D03*
X203200000Y-63500000D03*
X203200000Y-83820000D03*
X203200000Y-45720000D03*
X203200000Y-50800000D03*
X203200000Y-91440000D03*
X203200000Y-55880000D03*
X203200000Y-73660000D03*
X203200000Y-71120000D03*
X203200000Y-93980000D03*
X203200000Y-104140000D03*
X203200000Y-43180000D03*
X203200000Y-38100000D03*
%TD*%
D20*
%TO.C,X1*%
X72390000Y-59690000D03*
D12*
X72390000Y-44450000D03*
X64770000Y-44450000D03*
X64770000Y-59690000D03*
%TD*%
D18*
%TO.C,J9*%
X165100000Y-111760000D03*
D19*
X165100000Y-114300000D03*
X167640000Y-111760000D03*
X167640000Y-114300000D03*
X170180000Y-111760000D03*
X170180000Y-114300000D03*
X172720000Y-111760000D03*
X172720000Y-114300000D03*
X175260000Y-111760000D03*
X175260000Y-114300000D03*
X177800000Y-111760000D03*
X177800000Y-114300000D03*
X180340000Y-111760000D03*
X180340000Y-114300000D03*
X182880000Y-111760000D03*
X182880000Y-114300000D03*
X185420000Y-111760000D03*
X185420000Y-114300000D03*
X187960000Y-111760000D03*
X187960000Y-114300000D03*
X190500000Y-111760000D03*
X190500000Y-114300000D03*
X193040000Y-111760000D03*
X193040000Y-114300000D03*
X195580000Y-111760000D03*
X195580000Y-114300000D03*
X198120000Y-111760000D03*
X198120000Y-114300000D03*
X200660000Y-111760000D03*
X200660000Y-114300000D03*
X203200000Y-111760000D03*
X203200000Y-114300000D03*
X205740000Y-111760000D03*
X205740000Y-114300000D03*
X208280000Y-111760000D03*
X208280000Y-114300000D03*
X210820000Y-111760000D03*
X210820000Y-114300000D03*
X213360000Y-111760000D03*
X213360000Y-114300000D03*
%TD*%
D14*
%TO.C,H10*%
X57577056Y-102442944D03*
X53480000Y-104140000D03*
D15*
X55880000Y-104140000D03*
D14*
X58280000Y-104140000D03*
X54182944Y-102442944D03*
X55880000Y-106540000D03*
X57577056Y-105837056D03*
X55880000Y-101740000D03*
X54182944Y-105837056D03*
%TD*%
D18*
%TO.C,J3*%
X63500000Y-114300000D03*
D19*
X66040000Y-114300000D03*
X68580000Y-114300000D03*
X71120000Y-114300000D03*
X73660000Y-114300000D03*
X76200000Y-114300000D03*
X78740000Y-114300000D03*
X81280000Y-114300000D03*
X83820000Y-114300000D03*
X86360000Y-114300000D03*
%TD*%
D22*
%TO.C,U6*%
X111760000Y-171450000D03*
X101600000Y-171450000D03*
X76200000Y-171450000D03*
X121920000Y-171450000D03*
X83820000Y-171450000D03*
X91440000Y-171450000D03*
X71120000Y-171450000D03*
X119380000Y-171450000D03*
X73660000Y-171450000D03*
X106680000Y-171450000D03*
X114300000Y-171450000D03*
X116840000Y-171450000D03*
X134620000Y-171450000D03*
X99060000Y-171450000D03*
X132080000Y-171450000D03*
X81280000Y-171450000D03*
X96520000Y-171450000D03*
X129540000Y-171450000D03*
X88900000Y-171450000D03*
X137160000Y-171450000D03*
X127000000Y-171450000D03*
X104140000Y-171450000D03*
X66040000Y-171450000D03*
X86360000Y-171450000D03*
X68580000Y-171450000D03*
X81280000Y-125730000D03*
X68580000Y-125730000D03*
X114300000Y-125730000D03*
X91440000Y-125730000D03*
X119380000Y-125730000D03*
X96520000Y-125730000D03*
X71120000Y-125730000D03*
X106680000Y-125730000D03*
X99060000Y-125730000D03*
X76200000Y-125730000D03*
X104140000Y-125730000D03*
X137160000Y-125730000D03*
X127000000Y-125730000D03*
X116840000Y-125730000D03*
X86360000Y-125730000D03*
X121920000Y-125730000D03*
X111760000Y-125730000D03*
X66040000Y-125730000D03*
X129540000Y-125730000D03*
X101600000Y-125730000D03*
X83820000Y-125730000D03*
X88900000Y-125730000D03*
X132080000Y-125730000D03*
X73660000Y-125730000D03*
X134620000Y-125730000D03*
X101600000Y-168910000D03*
X76200000Y-168910000D03*
X88900000Y-168910000D03*
X121920000Y-168910000D03*
X96520000Y-168910000D03*
X127000000Y-168910000D03*
X83820000Y-168910000D03*
X116840000Y-168910000D03*
X68580000Y-168910000D03*
X81280000Y-168910000D03*
X86360000Y-168910000D03*
X134620000Y-168910000D03*
X66040000Y-168910000D03*
X73660000Y-168910000D03*
X91440000Y-168910000D03*
X114300000Y-168910000D03*
X106680000Y-168910000D03*
X132080000Y-168910000D03*
X104140000Y-168910000D03*
X129540000Y-168910000D03*
X111760000Y-168910000D03*
X137160000Y-168910000D03*
X71120000Y-168910000D03*
X99060000Y-168910000D03*
X119380000Y-168910000D03*
X101600000Y-123190000D03*
X91440000Y-123190000D03*
X81280000Y-123190000D03*
X88900000Y-123190000D03*
X121920000Y-123190000D03*
X66040000Y-123190000D03*
X129540000Y-123190000D03*
X116840000Y-123190000D03*
X83820000Y-123190000D03*
X68580000Y-123190000D03*
X119380000Y-123190000D03*
X96520000Y-123190000D03*
X99060000Y-123190000D03*
X73660000Y-123190000D03*
X111760000Y-123190000D03*
X71120000Y-123190000D03*
X104140000Y-123190000D03*
X137160000Y-123190000D03*
X76200000Y-123190000D03*
X114300000Y-123190000D03*
X134620000Y-123190000D03*
X132080000Y-123190000D03*
X86360000Y-123190000D03*
X127000000Y-123190000D03*
X106680000Y-123190000D03*
X124460000Y-161290000D03*
X91440000Y-161290000D03*
X68580000Y-161290000D03*
X78740000Y-161290000D03*
X104140000Y-161290000D03*
X66040000Y-161290000D03*
X109220000Y-161290000D03*
X137160000Y-161290000D03*
X83820000Y-161290000D03*
X88900000Y-161290000D03*
X93980000Y-161290000D03*
X101600000Y-161290000D03*
X129540000Y-161290000D03*
X127000000Y-161290000D03*
X132080000Y-161290000D03*
X73660000Y-161290000D03*
X106680000Y-161290000D03*
X114300000Y-161290000D03*
X111760000Y-161290000D03*
X119380000Y-161290000D03*
X134620000Y-161290000D03*
X76200000Y-161290000D03*
X81280000Y-161290000D03*
X86360000Y-161290000D03*
X121920000Y-161290000D03*
X99060000Y-161290000D03*
X71120000Y-161290000D03*
X96520000Y-161290000D03*
X116840000Y-161290000D03*
X134620000Y-158750000D03*
X129540000Y-158750000D03*
X106680000Y-158750000D03*
X132080000Y-158750000D03*
X119380000Y-158750000D03*
X121920000Y-158750000D03*
X73660000Y-158750000D03*
X66040000Y-158750000D03*
X124460000Y-158750000D03*
X111760000Y-158750000D03*
X76200000Y-158750000D03*
X96520000Y-158750000D03*
X83820000Y-158750000D03*
X104140000Y-158750000D03*
X114300000Y-158750000D03*
X99060000Y-158750000D03*
X91440000Y-158750000D03*
X116840000Y-158750000D03*
X71120000Y-158750000D03*
X78740000Y-158750000D03*
X93980000Y-158750000D03*
X86360000Y-158750000D03*
X81280000Y-158750000D03*
X137160000Y-158750000D03*
X127000000Y-158750000D03*
X88900000Y-158750000D03*
X68580000Y-158750000D03*
X109220000Y-158750000D03*
X101600000Y-158750000D03*
X114300000Y-156210000D03*
X124460000Y-156210000D03*
X73660000Y-156210000D03*
X99060000Y-156210000D03*
X66040000Y-156210000D03*
X78740000Y-156210000D03*
X76200000Y-156210000D03*
X81280000Y-156210000D03*
X111760000Y-156210000D03*
X109220000Y-156210000D03*
X101600000Y-156210000D03*
X129540000Y-156210000D03*
X119380000Y-156210000D03*
X86360000Y-156210000D03*
X93980000Y-156210000D03*
X96520000Y-156210000D03*
X71120000Y-156210000D03*
X83820000Y-156210000D03*
X137160000Y-156210000D03*
X106680000Y-156210000D03*
X134620000Y-156210000D03*
X104140000Y-156210000D03*
X121920000Y-156210000D03*
X127000000Y-156210000D03*
X88900000Y-156210000D03*
X68580000Y-156210000D03*
X116840000Y-156210000D03*
X132080000Y-156210000D03*
X91440000Y-156210000D03*
X101600000Y-153670000D03*
X68580000Y-153670000D03*
X73660000Y-153670000D03*
X134620000Y-153670000D03*
X132080000Y-153670000D03*
X111760000Y-153670000D03*
X78740000Y-153670000D03*
X88900000Y-153670000D03*
X96520000Y-153670000D03*
X116840000Y-153670000D03*
X83820000Y-153670000D03*
X137160000Y-153670000D03*
X81280000Y-153670000D03*
X119380000Y-153670000D03*
X66040000Y-153670000D03*
X124460000Y-153670000D03*
X86360000Y-153670000D03*
X93980000Y-153670000D03*
X104140000Y-153670000D03*
X71120000Y-153670000D03*
X99060000Y-153670000D03*
X121920000Y-153670000D03*
X109220000Y-153670000D03*
X129540000Y-153670000D03*
X91440000Y-153670000D03*
X114300000Y-153670000D03*
X76200000Y-153670000D03*
X127000000Y-153670000D03*
X106680000Y-153670000D03*
X116840000Y-151130000D03*
X93980000Y-151130000D03*
X101600000Y-151130000D03*
X86360000Y-151130000D03*
X134620000Y-151130000D03*
X73660000Y-151130000D03*
X127000000Y-151130000D03*
X111760000Y-151130000D03*
X71120000Y-151130000D03*
X109220000Y-151130000D03*
X68580000Y-151130000D03*
X104140000Y-151130000D03*
X137160000Y-151130000D03*
X78740000Y-151130000D03*
X119380000Y-151130000D03*
X88900000Y-151130000D03*
X96520000Y-151130000D03*
X132080000Y-151130000D03*
X99060000Y-151130000D03*
X114300000Y-151130000D03*
X83820000Y-151130000D03*
X124460000Y-151130000D03*
X106680000Y-151130000D03*
X76200000Y-151130000D03*
X66040000Y-151130000D03*
X121920000Y-151130000D03*
X91440000Y-151130000D03*
X81280000Y-151130000D03*
X129540000Y-151130000D03*
X86360000Y-143510000D03*
X76200000Y-143510000D03*
X134620000Y-143510000D03*
X121920000Y-143510000D03*
X68580000Y-143510000D03*
X106680000Y-143510000D03*
X66040000Y-143510000D03*
X73660000Y-143510000D03*
X129540000Y-143510000D03*
X96520000Y-143510000D03*
X137160000Y-143510000D03*
X116840000Y-143510000D03*
X114300000Y-143510000D03*
X91440000Y-143510000D03*
X81280000Y-143510000D03*
X119380000Y-143510000D03*
X71120000Y-143510000D03*
X93980000Y-143510000D03*
X132080000Y-143510000D03*
X99060000Y-143510000D03*
X83820000Y-143510000D03*
X88900000Y-143510000D03*
X78740000Y-143510000D03*
X124460000Y-143510000D03*
X127000000Y-143510000D03*
X101600000Y-143510000D03*
X111760000Y-143510000D03*
X109220000Y-143510000D03*
X104140000Y-143510000D03*
X93980000Y-140970000D03*
X111760000Y-140970000D03*
X127000000Y-140970000D03*
X101600000Y-140970000D03*
X91440000Y-140970000D03*
X99060000Y-140970000D03*
X124460000Y-140970000D03*
X121920000Y-140970000D03*
X86360000Y-140970000D03*
X73660000Y-140970000D03*
X78740000Y-140970000D03*
X106680000Y-140970000D03*
X119380000Y-140970000D03*
X71120000Y-140970000D03*
X83820000Y-140970000D03*
X116840000Y-140970000D03*
X66040000Y-140970000D03*
X96520000Y-140970000D03*
X132080000Y-140970000D03*
X81280000Y-140970000D03*
X76200000Y-140970000D03*
X134620000Y-140970000D03*
X129540000Y-140970000D03*
X114300000Y-140970000D03*
X109220000Y-140970000D03*
X137160000Y-140970000D03*
X88900000Y-140970000D03*
X68580000Y-140970000D03*
X104140000Y-140970000D03*
X86360000Y-138430000D03*
X91440000Y-138430000D03*
X78740000Y-138430000D03*
X99060000Y-138430000D03*
X127000000Y-138430000D03*
X132080000Y-138430000D03*
X134620000Y-138430000D03*
X73660000Y-138430000D03*
X81280000Y-138430000D03*
X101600000Y-138430000D03*
X76200000Y-138430000D03*
X119380000Y-138430000D03*
X111760000Y-138430000D03*
X71120000Y-138430000D03*
X116840000Y-138430000D03*
X137160000Y-138430000D03*
X124460000Y-138430000D03*
X93980000Y-138430000D03*
X129540000Y-138430000D03*
X104140000Y-138430000D03*
X114300000Y-138430000D03*
X109220000Y-138430000D03*
X96520000Y-138430000D03*
X68580000Y-138430000D03*
X88900000Y-138430000D03*
X121920000Y-138430000D03*
X106680000Y-138430000D03*
X83820000Y-138430000D03*
X66040000Y-138430000D03*
X129540000Y-135890000D03*
X78740000Y-135890000D03*
X109220000Y-135890000D03*
X106680000Y-135890000D03*
X101600000Y-135890000D03*
X86360000Y-135890000D03*
X73660000Y-135890000D03*
X111760000Y-135890000D03*
X127000000Y-135890000D03*
X137160000Y-135890000D03*
X104140000Y-135890000D03*
X76200000Y-135890000D03*
X88900000Y-135890000D03*
X119380000Y-135890000D03*
X116840000Y-135890000D03*
X114300000Y-135890000D03*
X96520000Y-135890000D03*
X66040000Y-135890000D03*
X71120000Y-135890000D03*
X99060000Y-135890000D03*
X93980000Y-135890000D03*
X132080000Y-135890000D03*
X68580000Y-135890000D03*
X81280000Y-135890000D03*
X124460000Y-135890000D03*
X134620000Y-135890000D03*
X121920000Y-135890000D03*
X91440000Y-135890000D03*
X83820000Y-135890000D03*
X129540000Y-133350000D03*
X116840000Y-133350000D03*
X104140000Y-133350000D03*
X66040000Y-133350000D03*
X132080000Y-133350000D03*
X124460000Y-133350000D03*
X83820000Y-133350000D03*
X73660000Y-133350000D03*
X78740000Y-133350000D03*
X88900000Y-133350000D03*
X81280000Y-133350000D03*
X109220000Y-133350000D03*
X101600000Y-133350000D03*
X137160000Y-133350000D03*
X114300000Y-133350000D03*
X134620000Y-133350000D03*
X106680000Y-133350000D03*
X71120000Y-133350000D03*
X91440000Y-133350000D03*
X96520000Y-133350000D03*
X99060000Y-133350000D03*
X111760000Y-133350000D03*
X76200000Y-133350000D03*
X121920000Y-133350000D03*
X86360000Y-133350000D03*
X119380000Y-133350000D03*
X93980000Y-133350000D03*
X127000000Y-133350000D03*
X68580000Y-133350000D03*
%TD*%
D12*
%TO.C,C2*%
X106441000Y-77669000D03*
X106441000Y-75169000D03*
%TD*%
D14*
%TO.C,H3*%
X53480000Y-30480000D03*
D15*
X55880000Y-30480000D03*
D14*
X55880000Y-32880000D03*
X54182944Y-28782944D03*
X55880000Y-28080000D03*
X57577056Y-32177056D03*
X58280000Y-30480000D03*
X57577056Y-28782944D03*
X54182944Y-32177056D03*
%TD*%
%TO.C,H1*%
X145622944Y-28782944D03*
X147320000Y-28080000D03*
X149720000Y-30480000D03*
X149017056Y-32177056D03*
D15*
X147320000Y-30480000D03*
D14*
X147320000Y-32880000D03*
X149017056Y-28782944D03*
X145622944Y-32177056D03*
X144920000Y-30480000D03*
%TD*%
D23*
%TO.C,SW1*%
X53630000Y-75640000D03*
X53630000Y-69140000D03*
X58130000Y-69140000D03*
X58130000Y-75640000D03*
%TD*%
D18*
%TO.C,J1*%
X132080000Y-114300000D03*
D19*
X129540000Y-114300000D03*
X127000000Y-114300000D03*
X124460000Y-114300000D03*
X121920000Y-114300000D03*
X119380000Y-114300000D03*
X116840000Y-114300000D03*
X114300000Y-114300000D03*
X111760000Y-114300000D03*
X109220000Y-114300000D03*
X106680000Y-114300000D03*
X104140000Y-114300000D03*
X101600000Y-114300000D03*
X99060000Y-114300000D03*
X96520000Y-114300000D03*
X93980000Y-114300000D03*
%TD*%
D14*
%TO.C,H4*%
X107950000Y-28080000D03*
X106252944Y-32177056D03*
X110350000Y-30480000D03*
X106252944Y-28782944D03*
X105550000Y-30480000D03*
X109647056Y-28782944D03*
X107950000Y-32880000D03*
X109647056Y-32177056D03*
D15*
X107950000Y-30480000D03*
%TD*%
D14*
%TO.C,H5*%
X55880000Y-180200000D03*
X58280000Y-177800000D03*
X57577056Y-176102944D03*
X54182944Y-176102944D03*
X55880000Y-175400000D03*
X54182944Y-179497056D03*
D15*
X55880000Y-177800000D03*
D14*
X57577056Y-179497056D03*
X53480000Y-177800000D03*
%TD*%
%TO.C,H11*%
X110350000Y-177800000D03*
X106252944Y-176102944D03*
X105550000Y-177800000D03*
X107950000Y-175400000D03*
X109647056Y-179497056D03*
X107950000Y-180200000D03*
X106252944Y-179497056D03*
D15*
X107950000Y-177800000D03*
D14*
X109647056Y-176102944D03*
%TD*%
%TO.C,H9*%
X223380000Y-104140000D03*
X218580000Y-104140000D03*
X219282944Y-102442944D03*
D15*
X220980000Y-104140000D03*
D14*
X220980000Y-106540000D03*
X222677056Y-102442944D03*
X222677056Y-105837056D03*
X219282944Y-105837056D03*
X220980000Y-101740000D03*
%TD*%
D12*
%TO.C,R3*%
X62230000Y-68580000D03*
D13*
X74930000Y-68580000D03*
%TD*%
M02*
