%TF.GenerationSoftware,KiCad,Pcbnew,6.0.9-8da3e8f707~116~ubuntu20.04.1*%
%TF.CreationDate,2022-11-18T21:39:17+01:00*%
%TF.ProjectId,WD6502,57443635-3032-42e6-9b69-6361645f7063,rev?*%
%TF.SameCoordinates,Original*%
%TF.FileFunction,Drillmap*%
%TF.FilePolarity,Positive*%
%FSLAX45Y45*%
G04 Gerber Fmt 4.5, Leading zero omitted, Abs format (unit mm)*
G04 Created by KiCad (PCBNEW 6.0.9-8da3e8f707~116~ubuntu20.04.1) date 2022-11-18 21:39:17*
%MOMM*%
%LPD*%
G01*
G04 APERTURE LIST*
%ADD10C,0.038100*%
%ADD11C,0.200000*%
%ADD12C,0.050000*%
%ADD13C,0.076200*%
%ADD14C,0.080000*%
%ADD15C,0.095000*%
%ADD16C,0.100000*%
%ADD17C,0.110000*%
%ADD18C,0.230000*%
%ADD19C,0.320000*%
G04 APERTURE END LIST*
D10*
X22606000Y-3048000D02*
G75*
G03*
X22098000Y-2540000I-508000J0D01*
G01*
X22606000Y-3048000D02*
X22606000Y-17780000D01*
X5588000Y-2540000D02*
X22098000Y-2540000D01*
X5588000Y-2540000D02*
G75*
G03*
X5080000Y-3048000I0J-508000D01*
G01*
X22098000Y-18288000D02*
G75*
G03*
X22606000Y-17780000I0J508000D01*
G01*
X5588000Y-18288000D02*
X22098000Y-18288000D01*
X5080000Y-17780000D02*
X5080000Y-3048000D01*
X5080000Y-17780000D02*
G75*
G03*
X5588000Y-18288000I508000J0D01*
G01*
D11*
D12*
X5323000Y-3023000D02*
X5373000Y-3073000D01*
X5373000Y-3023000D02*
X5323000Y-3073000D01*
X5323000Y-10389000D02*
X5373000Y-10439000D01*
X5373000Y-10389000D02*
X5323000Y-10439000D01*
X5323000Y-17755000D02*
X5373000Y-17805000D01*
X5373000Y-17755000D02*
X5323000Y-17805000D01*
X5393294Y-2853294D02*
X5443294Y-2903294D01*
X5443294Y-2853294D02*
X5393294Y-2903294D01*
X5393294Y-3192706D02*
X5443294Y-3242706D01*
X5443294Y-3192706D02*
X5393294Y-3242706D01*
X5393294Y-10219294D02*
X5443294Y-10269294D01*
X5443294Y-10219294D02*
X5393294Y-10269294D01*
X5393294Y-10558706D02*
X5443294Y-10608706D01*
X5443294Y-10558706D02*
X5393294Y-10608706D01*
X5393294Y-17585294D02*
X5443294Y-17635294D01*
X5443294Y-17585294D02*
X5393294Y-17635294D01*
X5393294Y-17924706D02*
X5443294Y-17974706D01*
X5443294Y-17924706D02*
X5393294Y-17974706D01*
X5563000Y-2783000D02*
X5613000Y-2833000D01*
X5613000Y-2783000D02*
X5563000Y-2833000D01*
X5563000Y-3263000D02*
X5613000Y-3313000D01*
X5613000Y-3263000D02*
X5563000Y-3313000D01*
X5563000Y-10149000D02*
X5613000Y-10199000D01*
X5613000Y-10149000D02*
X5563000Y-10199000D01*
X5563000Y-10629000D02*
X5613000Y-10679000D01*
X5613000Y-10629000D02*
X5563000Y-10679000D01*
X5563000Y-17515000D02*
X5613000Y-17565000D01*
X5613000Y-17515000D02*
X5563000Y-17565000D01*
X5563000Y-17995000D02*
X5613000Y-18045000D01*
X5613000Y-17995000D02*
X5563000Y-18045000D01*
X5732706Y-2853294D02*
X5782706Y-2903294D01*
X5782706Y-2853294D02*
X5732706Y-2903294D01*
X5732706Y-3192706D02*
X5782706Y-3242706D01*
X5782706Y-3192706D02*
X5732706Y-3242706D01*
X5732706Y-10219294D02*
X5782706Y-10269294D01*
X5782706Y-10219294D02*
X5732706Y-10269294D01*
X5732706Y-10558706D02*
X5782706Y-10608706D01*
X5782706Y-10558706D02*
X5732706Y-10608706D01*
X5732706Y-17585294D02*
X5782706Y-17635294D01*
X5782706Y-17585294D02*
X5732706Y-17635294D01*
X5732706Y-17924706D02*
X5782706Y-17974706D01*
X5782706Y-17924706D02*
X5732706Y-17974706D01*
X5803000Y-3023000D02*
X5853000Y-3073000D01*
X5853000Y-3023000D02*
X5803000Y-3073000D01*
X5803000Y-10389000D02*
X5853000Y-10439000D01*
X5853000Y-10389000D02*
X5803000Y-10439000D01*
X5803000Y-17755000D02*
X5853000Y-17805000D01*
X5853000Y-17755000D02*
X5803000Y-17805000D01*
X10530000Y-3023000D02*
X10580000Y-3073000D01*
X10580000Y-3023000D02*
X10530000Y-3073000D01*
X10530000Y-10389000D02*
X10580000Y-10439000D01*
X10580000Y-10389000D02*
X10530000Y-10439000D01*
X10530000Y-17755000D02*
X10580000Y-17805000D01*
X10580000Y-17755000D02*
X10530000Y-17805000D01*
X10600294Y-2853294D02*
X10650294Y-2903294D01*
X10650294Y-2853294D02*
X10600294Y-2903294D01*
X10600294Y-3192706D02*
X10650294Y-3242706D01*
X10650294Y-3192706D02*
X10600294Y-3242706D01*
X10600294Y-10219294D02*
X10650294Y-10269294D01*
X10650294Y-10219294D02*
X10600294Y-10269294D01*
X10600294Y-10558706D02*
X10650294Y-10608706D01*
X10650294Y-10558706D02*
X10600294Y-10608706D01*
X10600294Y-17585294D02*
X10650294Y-17635294D01*
X10650294Y-17585294D02*
X10600294Y-17635294D01*
X10600294Y-17924706D02*
X10650294Y-17974706D01*
X10650294Y-17924706D02*
X10600294Y-17974706D01*
X10770000Y-2783000D02*
X10820000Y-2833000D01*
X10820000Y-2783000D02*
X10770000Y-2833000D01*
X10770000Y-3263000D02*
X10820000Y-3313000D01*
X10820000Y-3263000D02*
X10770000Y-3313000D01*
X10770000Y-10149000D02*
X10820000Y-10199000D01*
X10820000Y-10149000D02*
X10770000Y-10199000D01*
X10770000Y-10629000D02*
X10820000Y-10679000D01*
X10820000Y-10629000D02*
X10770000Y-10679000D01*
X10770000Y-17515000D02*
X10820000Y-17565000D01*
X10820000Y-17515000D02*
X10770000Y-17565000D01*
X10770000Y-17995000D02*
X10820000Y-18045000D01*
X10820000Y-17995000D02*
X10770000Y-18045000D01*
X10939706Y-2853294D02*
X10989706Y-2903294D01*
X10989706Y-2853294D02*
X10939706Y-2903294D01*
X10939706Y-3192706D02*
X10989706Y-3242706D01*
X10989706Y-3192706D02*
X10939706Y-3242706D01*
X10939706Y-10219294D02*
X10989706Y-10269294D01*
X10989706Y-10219294D02*
X10939706Y-10269294D01*
X10939706Y-10558706D02*
X10989706Y-10608706D01*
X10989706Y-10558706D02*
X10939706Y-10608706D01*
X10939706Y-17585294D02*
X10989706Y-17635294D01*
X10989706Y-17585294D02*
X10939706Y-17635294D01*
X10939706Y-17924706D02*
X10989706Y-17974706D01*
X10989706Y-17924706D02*
X10939706Y-17974706D01*
X11010000Y-3023000D02*
X11060000Y-3073000D01*
X11060000Y-3023000D02*
X11010000Y-3073000D01*
X11010000Y-10389000D02*
X11060000Y-10439000D01*
X11060000Y-10389000D02*
X11010000Y-10439000D01*
X11010000Y-17755000D02*
X11060000Y-17805000D01*
X11060000Y-17755000D02*
X11010000Y-17805000D01*
X14467000Y-3023000D02*
X14517000Y-3073000D01*
X14517000Y-3023000D02*
X14467000Y-3073000D01*
X14467000Y-10389000D02*
X14517000Y-10439000D01*
X14517000Y-10389000D02*
X14467000Y-10439000D01*
X14467000Y-17755000D02*
X14517000Y-17805000D01*
X14517000Y-17755000D02*
X14467000Y-17805000D01*
X14537294Y-2853294D02*
X14587294Y-2903294D01*
X14587294Y-2853294D02*
X14537294Y-2903294D01*
X14537294Y-3192706D02*
X14587294Y-3242706D01*
X14587294Y-3192706D02*
X14537294Y-3242706D01*
X14537294Y-10219294D02*
X14587294Y-10269294D01*
X14587294Y-10219294D02*
X14537294Y-10269294D01*
X14537294Y-10558706D02*
X14587294Y-10608706D01*
X14587294Y-10558706D02*
X14537294Y-10608706D01*
X14537294Y-17585294D02*
X14587294Y-17635294D01*
X14587294Y-17585294D02*
X14537294Y-17635294D01*
X14537294Y-17924706D02*
X14587294Y-17974706D01*
X14587294Y-17924706D02*
X14537294Y-17974706D01*
X14707000Y-2783000D02*
X14757000Y-2833000D01*
X14757000Y-2783000D02*
X14707000Y-2833000D01*
X14707000Y-3263000D02*
X14757000Y-3313000D01*
X14757000Y-3263000D02*
X14707000Y-3313000D01*
X14707000Y-10149000D02*
X14757000Y-10199000D01*
X14757000Y-10149000D02*
X14707000Y-10199000D01*
X14707000Y-10629000D02*
X14757000Y-10679000D01*
X14757000Y-10629000D02*
X14707000Y-10679000D01*
X14707000Y-17515000D02*
X14757000Y-17565000D01*
X14757000Y-17515000D02*
X14707000Y-17565000D01*
X14707000Y-17995000D02*
X14757000Y-18045000D01*
X14757000Y-17995000D02*
X14707000Y-18045000D01*
X14876706Y-2853294D02*
X14926706Y-2903294D01*
X14926706Y-2853294D02*
X14876706Y-2903294D01*
X14876706Y-3192706D02*
X14926706Y-3242706D01*
X14926706Y-3192706D02*
X14876706Y-3242706D01*
X14876706Y-10219294D02*
X14926706Y-10269294D01*
X14926706Y-10219294D02*
X14876706Y-10269294D01*
X14876706Y-10558706D02*
X14926706Y-10608706D01*
X14926706Y-10558706D02*
X14876706Y-10608706D01*
X14876706Y-17585294D02*
X14926706Y-17635294D01*
X14926706Y-17585294D02*
X14876706Y-17635294D01*
X14876706Y-17924706D02*
X14926706Y-17974706D01*
X14926706Y-17924706D02*
X14876706Y-17974706D01*
X14947000Y-3023000D02*
X14997000Y-3073000D01*
X14997000Y-3023000D02*
X14947000Y-3073000D01*
X14947000Y-10389000D02*
X14997000Y-10439000D01*
X14997000Y-10389000D02*
X14947000Y-10439000D01*
X14947000Y-17755000D02*
X14997000Y-17805000D01*
X14997000Y-17755000D02*
X14947000Y-17805000D01*
X21833000Y-10389000D02*
X21883000Y-10439000D01*
X21883000Y-10389000D02*
X21833000Y-10439000D01*
X21833000Y-17755000D02*
X21883000Y-17805000D01*
X21883000Y-17755000D02*
X21833000Y-17805000D01*
X21847000Y-3023000D02*
X21897000Y-3073000D01*
X21897000Y-3023000D02*
X21847000Y-3073000D01*
X21903294Y-10219294D02*
X21953294Y-10269294D01*
X21953294Y-10219294D02*
X21903294Y-10269294D01*
X21903294Y-10558706D02*
X21953294Y-10608706D01*
X21953294Y-10558706D02*
X21903294Y-10608706D01*
X21903294Y-17585294D02*
X21953294Y-17635294D01*
X21953294Y-17585294D02*
X21903294Y-17635294D01*
X21903294Y-17924706D02*
X21953294Y-17974706D01*
X21953294Y-17924706D02*
X21903294Y-17974706D01*
X21917294Y-2853294D02*
X21967294Y-2903294D01*
X21967294Y-2853294D02*
X21917294Y-2903294D01*
X21917294Y-3192706D02*
X21967294Y-3242706D01*
X21967294Y-3192706D02*
X21917294Y-3242706D01*
X22073000Y-10149000D02*
X22123000Y-10199000D01*
X22123000Y-10149000D02*
X22073000Y-10199000D01*
X22073000Y-10629000D02*
X22123000Y-10679000D01*
X22123000Y-10629000D02*
X22073000Y-10679000D01*
X22073000Y-17515000D02*
X22123000Y-17565000D01*
X22123000Y-17515000D02*
X22073000Y-17565000D01*
X22073000Y-17995000D02*
X22123000Y-18045000D01*
X22123000Y-17995000D02*
X22073000Y-18045000D01*
X22087000Y-2783000D02*
X22137000Y-2833000D01*
X22137000Y-2783000D02*
X22087000Y-2833000D01*
X22087000Y-3263000D02*
X22137000Y-3313000D01*
X22137000Y-3263000D02*
X22087000Y-3313000D01*
X22242706Y-10219294D02*
X22292706Y-10269294D01*
X22292706Y-10219294D02*
X22242706Y-10269294D01*
X22242706Y-10558706D02*
X22292706Y-10608706D01*
X22292706Y-10558706D02*
X22242706Y-10608706D01*
X22242706Y-17585294D02*
X22292706Y-17635294D01*
X22292706Y-17585294D02*
X22242706Y-17635294D01*
X22242706Y-17924706D02*
X22292706Y-17974706D01*
X22292706Y-17924706D02*
X22242706Y-17974706D01*
X22256706Y-2853294D02*
X22306706Y-2903294D01*
X22306706Y-2853294D02*
X22256706Y-2903294D01*
X22256706Y-3192706D02*
X22306706Y-3242706D01*
X22306706Y-3192706D02*
X22256706Y-3242706D01*
X22313000Y-10389000D02*
X22363000Y-10439000D01*
X22363000Y-10389000D02*
X22313000Y-10439000D01*
X22313000Y-17755000D02*
X22363000Y-17805000D01*
X22363000Y-17755000D02*
X22313000Y-17805000D01*
X22327000Y-3023000D02*
X22377000Y-3073000D01*
X22377000Y-3023000D02*
X22327000Y-3073000D01*
D13*
X6642100Y-12319000D02*
G75*
G03*
X6642100Y-12319000I-38100J0D01*
G01*
X6642100Y-12573000D02*
G75*
G03*
X6642100Y-12573000I-38100J0D01*
G01*
X6642100Y-13335000D02*
G75*
G03*
X6642100Y-13335000I-38100J0D01*
G01*
X6642100Y-13589000D02*
G75*
G03*
X6642100Y-13589000I-38100J0D01*
G01*
X6642100Y-13843000D02*
G75*
G03*
X6642100Y-13843000I-38100J0D01*
G01*
X6642100Y-14097000D02*
G75*
G03*
X6642100Y-14097000I-38100J0D01*
G01*
X6642100Y-14351000D02*
G75*
G03*
X6642100Y-14351000I-38100J0D01*
G01*
X6642100Y-15113000D02*
G75*
G03*
X6642100Y-15113000I-38100J0D01*
G01*
X6642100Y-15367000D02*
G75*
G03*
X6642100Y-15367000I-38100J0D01*
G01*
X6642100Y-15621000D02*
G75*
G03*
X6642100Y-15621000I-38100J0D01*
G01*
X6642100Y-15875000D02*
G75*
G03*
X6642100Y-15875000I-38100J0D01*
G01*
X6642100Y-16129000D02*
G75*
G03*
X6642100Y-16129000I-38100J0D01*
G01*
X6642100Y-16891000D02*
G75*
G03*
X6642100Y-16891000I-38100J0D01*
G01*
X6642100Y-17145000D02*
G75*
G03*
X6642100Y-17145000I-38100J0D01*
G01*
X6896100Y-12319000D02*
G75*
G03*
X6896100Y-12319000I-38100J0D01*
G01*
X6896100Y-12573000D02*
G75*
G03*
X6896100Y-12573000I-38100J0D01*
G01*
X6896100Y-13335000D02*
G75*
G03*
X6896100Y-13335000I-38100J0D01*
G01*
X6896100Y-13589000D02*
G75*
G03*
X6896100Y-13589000I-38100J0D01*
G01*
X6896100Y-13843000D02*
G75*
G03*
X6896100Y-13843000I-38100J0D01*
G01*
X6896100Y-14097000D02*
G75*
G03*
X6896100Y-14097000I-38100J0D01*
G01*
X6896100Y-14351000D02*
G75*
G03*
X6896100Y-14351000I-38100J0D01*
G01*
X6896100Y-15113000D02*
G75*
G03*
X6896100Y-15113000I-38100J0D01*
G01*
X6896100Y-15367000D02*
G75*
G03*
X6896100Y-15367000I-38100J0D01*
G01*
X6896100Y-15621000D02*
G75*
G03*
X6896100Y-15621000I-38100J0D01*
G01*
X6896100Y-15875000D02*
G75*
G03*
X6896100Y-15875000I-38100J0D01*
G01*
X6896100Y-16129000D02*
G75*
G03*
X6896100Y-16129000I-38100J0D01*
G01*
X6896100Y-16891000D02*
G75*
G03*
X6896100Y-16891000I-38100J0D01*
G01*
X6896100Y-17145000D02*
G75*
G03*
X6896100Y-17145000I-38100J0D01*
G01*
X7150100Y-12319000D02*
G75*
G03*
X7150100Y-12319000I-38100J0D01*
G01*
X7150100Y-12573000D02*
G75*
G03*
X7150100Y-12573000I-38100J0D01*
G01*
X7150100Y-13335000D02*
G75*
G03*
X7150100Y-13335000I-38100J0D01*
G01*
X7150100Y-13589000D02*
G75*
G03*
X7150100Y-13589000I-38100J0D01*
G01*
X7150100Y-13843000D02*
G75*
G03*
X7150100Y-13843000I-38100J0D01*
G01*
X7150100Y-14097000D02*
G75*
G03*
X7150100Y-14097000I-38100J0D01*
G01*
X7150100Y-14351000D02*
G75*
G03*
X7150100Y-14351000I-38100J0D01*
G01*
X7150100Y-15113000D02*
G75*
G03*
X7150100Y-15113000I-38100J0D01*
G01*
X7150100Y-15367000D02*
G75*
G03*
X7150100Y-15367000I-38100J0D01*
G01*
X7150100Y-15621000D02*
G75*
G03*
X7150100Y-15621000I-38100J0D01*
G01*
X7150100Y-15875000D02*
G75*
G03*
X7150100Y-15875000I-38100J0D01*
G01*
X7150100Y-16129000D02*
G75*
G03*
X7150100Y-16129000I-38100J0D01*
G01*
X7150100Y-16891000D02*
G75*
G03*
X7150100Y-16891000I-38100J0D01*
G01*
X7150100Y-17145000D02*
G75*
G03*
X7150100Y-17145000I-38100J0D01*
G01*
X7404100Y-12319000D02*
G75*
G03*
X7404100Y-12319000I-38100J0D01*
G01*
X7404100Y-12573000D02*
G75*
G03*
X7404100Y-12573000I-38100J0D01*
G01*
X7404100Y-13335000D02*
G75*
G03*
X7404100Y-13335000I-38100J0D01*
G01*
X7404100Y-13589000D02*
G75*
G03*
X7404100Y-13589000I-38100J0D01*
G01*
X7404100Y-13843000D02*
G75*
G03*
X7404100Y-13843000I-38100J0D01*
G01*
X7404100Y-14097000D02*
G75*
G03*
X7404100Y-14097000I-38100J0D01*
G01*
X7404100Y-14351000D02*
G75*
G03*
X7404100Y-14351000I-38100J0D01*
G01*
X7404100Y-15113000D02*
G75*
G03*
X7404100Y-15113000I-38100J0D01*
G01*
X7404100Y-15367000D02*
G75*
G03*
X7404100Y-15367000I-38100J0D01*
G01*
X7404100Y-15621000D02*
G75*
G03*
X7404100Y-15621000I-38100J0D01*
G01*
X7404100Y-15875000D02*
G75*
G03*
X7404100Y-15875000I-38100J0D01*
G01*
X7404100Y-16129000D02*
G75*
G03*
X7404100Y-16129000I-38100J0D01*
G01*
X7404100Y-16891000D02*
G75*
G03*
X7404100Y-16891000I-38100J0D01*
G01*
X7404100Y-17145000D02*
G75*
G03*
X7404100Y-17145000I-38100J0D01*
G01*
X7658100Y-12319000D02*
G75*
G03*
X7658100Y-12319000I-38100J0D01*
G01*
X7658100Y-12573000D02*
G75*
G03*
X7658100Y-12573000I-38100J0D01*
G01*
X7658100Y-13335000D02*
G75*
G03*
X7658100Y-13335000I-38100J0D01*
G01*
X7658100Y-13589000D02*
G75*
G03*
X7658100Y-13589000I-38100J0D01*
G01*
X7658100Y-13843000D02*
G75*
G03*
X7658100Y-13843000I-38100J0D01*
G01*
X7658100Y-14097000D02*
G75*
G03*
X7658100Y-14097000I-38100J0D01*
G01*
X7658100Y-14351000D02*
G75*
G03*
X7658100Y-14351000I-38100J0D01*
G01*
X7658100Y-15113000D02*
G75*
G03*
X7658100Y-15113000I-38100J0D01*
G01*
X7658100Y-15367000D02*
G75*
G03*
X7658100Y-15367000I-38100J0D01*
G01*
X7658100Y-15621000D02*
G75*
G03*
X7658100Y-15621000I-38100J0D01*
G01*
X7658100Y-15875000D02*
G75*
G03*
X7658100Y-15875000I-38100J0D01*
G01*
X7658100Y-16129000D02*
G75*
G03*
X7658100Y-16129000I-38100J0D01*
G01*
X7658100Y-16891000D02*
G75*
G03*
X7658100Y-16891000I-38100J0D01*
G01*
X7658100Y-17145000D02*
G75*
G03*
X7658100Y-17145000I-38100J0D01*
G01*
X7912100Y-13335000D02*
G75*
G03*
X7912100Y-13335000I-38100J0D01*
G01*
X7912100Y-13589000D02*
G75*
G03*
X7912100Y-13589000I-38100J0D01*
G01*
X7912100Y-13843000D02*
G75*
G03*
X7912100Y-13843000I-38100J0D01*
G01*
X7912100Y-14097000D02*
G75*
G03*
X7912100Y-14097000I-38100J0D01*
G01*
X7912100Y-14351000D02*
G75*
G03*
X7912100Y-14351000I-38100J0D01*
G01*
X7912100Y-15113000D02*
G75*
G03*
X7912100Y-15113000I-38100J0D01*
G01*
X7912100Y-15367000D02*
G75*
G03*
X7912100Y-15367000I-38100J0D01*
G01*
X7912100Y-15621000D02*
G75*
G03*
X7912100Y-15621000I-38100J0D01*
G01*
X7912100Y-15875000D02*
G75*
G03*
X7912100Y-15875000I-38100J0D01*
G01*
X7912100Y-16129000D02*
G75*
G03*
X7912100Y-16129000I-38100J0D01*
G01*
X8166100Y-12319000D02*
G75*
G03*
X8166100Y-12319000I-38100J0D01*
G01*
X8166100Y-12573000D02*
G75*
G03*
X8166100Y-12573000I-38100J0D01*
G01*
X8166100Y-13335000D02*
G75*
G03*
X8166100Y-13335000I-38100J0D01*
G01*
X8166100Y-13589000D02*
G75*
G03*
X8166100Y-13589000I-38100J0D01*
G01*
X8166100Y-13843000D02*
G75*
G03*
X8166100Y-13843000I-38100J0D01*
G01*
X8166100Y-14097000D02*
G75*
G03*
X8166100Y-14097000I-38100J0D01*
G01*
X8166100Y-14351000D02*
G75*
G03*
X8166100Y-14351000I-38100J0D01*
G01*
X8166100Y-15113000D02*
G75*
G03*
X8166100Y-15113000I-38100J0D01*
G01*
X8166100Y-15367000D02*
G75*
G03*
X8166100Y-15367000I-38100J0D01*
G01*
X8166100Y-15621000D02*
G75*
G03*
X8166100Y-15621000I-38100J0D01*
G01*
X8166100Y-15875000D02*
G75*
G03*
X8166100Y-15875000I-38100J0D01*
G01*
X8166100Y-16129000D02*
G75*
G03*
X8166100Y-16129000I-38100J0D01*
G01*
X8166100Y-16891000D02*
G75*
G03*
X8166100Y-16891000I-38100J0D01*
G01*
X8166100Y-17145000D02*
G75*
G03*
X8166100Y-17145000I-38100J0D01*
G01*
X8420100Y-12319000D02*
G75*
G03*
X8420100Y-12319000I-38100J0D01*
G01*
X8420100Y-12573000D02*
G75*
G03*
X8420100Y-12573000I-38100J0D01*
G01*
X8420100Y-13335000D02*
G75*
G03*
X8420100Y-13335000I-38100J0D01*
G01*
X8420100Y-13589000D02*
G75*
G03*
X8420100Y-13589000I-38100J0D01*
G01*
X8420100Y-13843000D02*
G75*
G03*
X8420100Y-13843000I-38100J0D01*
G01*
X8420100Y-14097000D02*
G75*
G03*
X8420100Y-14097000I-38100J0D01*
G01*
X8420100Y-14351000D02*
G75*
G03*
X8420100Y-14351000I-38100J0D01*
G01*
X8420100Y-15113000D02*
G75*
G03*
X8420100Y-15113000I-38100J0D01*
G01*
X8420100Y-15367000D02*
G75*
G03*
X8420100Y-15367000I-38100J0D01*
G01*
X8420100Y-15621000D02*
G75*
G03*
X8420100Y-15621000I-38100J0D01*
G01*
X8420100Y-15875000D02*
G75*
G03*
X8420100Y-15875000I-38100J0D01*
G01*
X8420100Y-16129000D02*
G75*
G03*
X8420100Y-16129000I-38100J0D01*
G01*
X8420100Y-16891000D02*
G75*
G03*
X8420100Y-16891000I-38100J0D01*
G01*
X8420100Y-17145000D02*
G75*
G03*
X8420100Y-17145000I-38100J0D01*
G01*
X8674100Y-12319000D02*
G75*
G03*
X8674100Y-12319000I-38100J0D01*
G01*
X8674100Y-12573000D02*
G75*
G03*
X8674100Y-12573000I-38100J0D01*
G01*
X8674100Y-13335000D02*
G75*
G03*
X8674100Y-13335000I-38100J0D01*
G01*
X8674100Y-13589000D02*
G75*
G03*
X8674100Y-13589000I-38100J0D01*
G01*
X8674100Y-13843000D02*
G75*
G03*
X8674100Y-13843000I-38100J0D01*
G01*
X8674100Y-14097000D02*
G75*
G03*
X8674100Y-14097000I-38100J0D01*
G01*
X8674100Y-14351000D02*
G75*
G03*
X8674100Y-14351000I-38100J0D01*
G01*
X8674100Y-15113000D02*
G75*
G03*
X8674100Y-15113000I-38100J0D01*
G01*
X8674100Y-15367000D02*
G75*
G03*
X8674100Y-15367000I-38100J0D01*
G01*
X8674100Y-15621000D02*
G75*
G03*
X8674100Y-15621000I-38100J0D01*
G01*
X8674100Y-15875000D02*
G75*
G03*
X8674100Y-15875000I-38100J0D01*
G01*
X8674100Y-16129000D02*
G75*
G03*
X8674100Y-16129000I-38100J0D01*
G01*
X8674100Y-16891000D02*
G75*
G03*
X8674100Y-16891000I-38100J0D01*
G01*
X8674100Y-17145000D02*
G75*
G03*
X8674100Y-17145000I-38100J0D01*
G01*
X8928100Y-12319000D02*
G75*
G03*
X8928100Y-12319000I-38100J0D01*
G01*
X8928100Y-12573000D02*
G75*
G03*
X8928100Y-12573000I-38100J0D01*
G01*
X8928100Y-13335000D02*
G75*
G03*
X8928100Y-13335000I-38100J0D01*
G01*
X8928100Y-13589000D02*
G75*
G03*
X8928100Y-13589000I-38100J0D01*
G01*
X8928100Y-13843000D02*
G75*
G03*
X8928100Y-13843000I-38100J0D01*
G01*
X8928100Y-14097000D02*
G75*
G03*
X8928100Y-14097000I-38100J0D01*
G01*
X8928100Y-14351000D02*
G75*
G03*
X8928100Y-14351000I-38100J0D01*
G01*
X8928100Y-15113000D02*
G75*
G03*
X8928100Y-15113000I-38100J0D01*
G01*
X8928100Y-15367000D02*
G75*
G03*
X8928100Y-15367000I-38100J0D01*
G01*
X8928100Y-15621000D02*
G75*
G03*
X8928100Y-15621000I-38100J0D01*
G01*
X8928100Y-15875000D02*
G75*
G03*
X8928100Y-15875000I-38100J0D01*
G01*
X8928100Y-16129000D02*
G75*
G03*
X8928100Y-16129000I-38100J0D01*
G01*
X8928100Y-16891000D02*
G75*
G03*
X8928100Y-16891000I-38100J0D01*
G01*
X8928100Y-17145000D02*
G75*
G03*
X8928100Y-17145000I-38100J0D01*
G01*
X9182100Y-12319000D02*
G75*
G03*
X9182100Y-12319000I-38100J0D01*
G01*
X9182100Y-12573000D02*
G75*
G03*
X9182100Y-12573000I-38100J0D01*
G01*
X9182100Y-13335000D02*
G75*
G03*
X9182100Y-13335000I-38100J0D01*
G01*
X9182100Y-13589000D02*
G75*
G03*
X9182100Y-13589000I-38100J0D01*
G01*
X9182100Y-13843000D02*
G75*
G03*
X9182100Y-13843000I-38100J0D01*
G01*
X9182100Y-14097000D02*
G75*
G03*
X9182100Y-14097000I-38100J0D01*
G01*
X9182100Y-14351000D02*
G75*
G03*
X9182100Y-14351000I-38100J0D01*
G01*
X9182100Y-15113000D02*
G75*
G03*
X9182100Y-15113000I-38100J0D01*
G01*
X9182100Y-15367000D02*
G75*
G03*
X9182100Y-15367000I-38100J0D01*
G01*
X9182100Y-15621000D02*
G75*
G03*
X9182100Y-15621000I-38100J0D01*
G01*
X9182100Y-15875000D02*
G75*
G03*
X9182100Y-15875000I-38100J0D01*
G01*
X9182100Y-16129000D02*
G75*
G03*
X9182100Y-16129000I-38100J0D01*
G01*
X9182100Y-16891000D02*
G75*
G03*
X9182100Y-16891000I-38100J0D01*
G01*
X9182100Y-17145000D02*
G75*
G03*
X9182100Y-17145000I-38100J0D01*
G01*
X9436100Y-13335000D02*
G75*
G03*
X9436100Y-13335000I-38100J0D01*
G01*
X9436100Y-13589000D02*
G75*
G03*
X9436100Y-13589000I-38100J0D01*
G01*
X9436100Y-13843000D02*
G75*
G03*
X9436100Y-13843000I-38100J0D01*
G01*
X9436100Y-14097000D02*
G75*
G03*
X9436100Y-14097000I-38100J0D01*
G01*
X9436100Y-14351000D02*
G75*
G03*
X9436100Y-14351000I-38100J0D01*
G01*
X9436100Y-15113000D02*
G75*
G03*
X9436100Y-15113000I-38100J0D01*
G01*
X9436100Y-15367000D02*
G75*
G03*
X9436100Y-15367000I-38100J0D01*
G01*
X9436100Y-15621000D02*
G75*
G03*
X9436100Y-15621000I-38100J0D01*
G01*
X9436100Y-15875000D02*
G75*
G03*
X9436100Y-15875000I-38100J0D01*
G01*
X9436100Y-16129000D02*
G75*
G03*
X9436100Y-16129000I-38100J0D01*
G01*
X9690100Y-12319000D02*
G75*
G03*
X9690100Y-12319000I-38100J0D01*
G01*
X9690100Y-12573000D02*
G75*
G03*
X9690100Y-12573000I-38100J0D01*
G01*
X9690100Y-13335000D02*
G75*
G03*
X9690100Y-13335000I-38100J0D01*
G01*
X9690100Y-13589000D02*
G75*
G03*
X9690100Y-13589000I-38100J0D01*
G01*
X9690100Y-13843000D02*
G75*
G03*
X9690100Y-13843000I-38100J0D01*
G01*
X9690100Y-14097000D02*
G75*
G03*
X9690100Y-14097000I-38100J0D01*
G01*
X9690100Y-14351000D02*
G75*
G03*
X9690100Y-14351000I-38100J0D01*
G01*
X9690100Y-15113000D02*
G75*
G03*
X9690100Y-15113000I-38100J0D01*
G01*
X9690100Y-15367000D02*
G75*
G03*
X9690100Y-15367000I-38100J0D01*
G01*
X9690100Y-15621000D02*
G75*
G03*
X9690100Y-15621000I-38100J0D01*
G01*
X9690100Y-15875000D02*
G75*
G03*
X9690100Y-15875000I-38100J0D01*
G01*
X9690100Y-16129000D02*
G75*
G03*
X9690100Y-16129000I-38100J0D01*
G01*
X9690100Y-16891000D02*
G75*
G03*
X9690100Y-16891000I-38100J0D01*
G01*
X9690100Y-17145000D02*
G75*
G03*
X9690100Y-17145000I-38100J0D01*
G01*
X9944100Y-12319000D02*
G75*
G03*
X9944100Y-12319000I-38100J0D01*
G01*
X9944100Y-12573000D02*
G75*
G03*
X9944100Y-12573000I-38100J0D01*
G01*
X9944100Y-13335000D02*
G75*
G03*
X9944100Y-13335000I-38100J0D01*
G01*
X9944100Y-13589000D02*
G75*
G03*
X9944100Y-13589000I-38100J0D01*
G01*
X9944100Y-13843000D02*
G75*
G03*
X9944100Y-13843000I-38100J0D01*
G01*
X9944100Y-14097000D02*
G75*
G03*
X9944100Y-14097000I-38100J0D01*
G01*
X9944100Y-14351000D02*
G75*
G03*
X9944100Y-14351000I-38100J0D01*
G01*
X9944100Y-15113000D02*
G75*
G03*
X9944100Y-15113000I-38100J0D01*
G01*
X9944100Y-15367000D02*
G75*
G03*
X9944100Y-15367000I-38100J0D01*
G01*
X9944100Y-15621000D02*
G75*
G03*
X9944100Y-15621000I-38100J0D01*
G01*
X9944100Y-15875000D02*
G75*
G03*
X9944100Y-15875000I-38100J0D01*
G01*
X9944100Y-16129000D02*
G75*
G03*
X9944100Y-16129000I-38100J0D01*
G01*
X9944100Y-16891000D02*
G75*
G03*
X9944100Y-16891000I-38100J0D01*
G01*
X9944100Y-17145000D02*
G75*
G03*
X9944100Y-17145000I-38100J0D01*
G01*
X10198100Y-12319000D02*
G75*
G03*
X10198100Y-12319000I-38100J0D01*
G01*
X10198100Y-12573000D02*
G75*
G03*
X10198100Y-12573000I-38100J0D01*
G01*
X10198100Y-13335000D02*
G75*
G03*
X10198100Y-13335000I-38100J0D01*
G01*
X10198100Y-13589000D02*
G75*
G03*
X10198100Y-13589000I-38100J0D01*
G01*
X10198100Y-13843000D02*
G75*
G03*
X10198100Y-13843000I-38100J0D01*
G01*
X10198100Y-14097000D02*
G75*
G03*
X10198100Y-14097000I-38100J0D01*
G01*
X10198100Y-14351000D02*
G75*
G03*
X10198100Y-14351000I-38100J0D01*
G01*
X10198100Y-15113000D02*
G75*
G03*
X10198100Y-15113000I-38100J0D01*
G01*
X10198100Y-15367000D02*
G75*
G03*
X10198100Y-15367000I-38100J0D01*
G01*
X10198100Y-15621000D02*
G75*
G03*
X10198100Y-15621000I-38100J0D01*
G01*
X10198100Y-15875000D02*
G75*
G03*
X10198100Y-15875000I-38100J0D01*
G01*
X10198100Y-16129000D02*
G75*
G03*
X10198100Y-16129000I-38100J0D01*
G01*
X10198100Y-16891000D02*
G75*
G03*
X10198100Y-16891000I-38100J0D01*
G01*
X10198100Y-17145000D02*
G75*
G03*
X10198100Y-17145000I-38100J0D01*
G01*
X10452100Y-12319000D02*
G75*
G03*
X10452100Y-12319000I-38100J0D01*
G01*
X10452100Y-12573000D02*
G75*
G03*
X10452100Y-12573000I-38100J0D01*
G01*
X10452100Y-13335000D02*
G75*
G03*
X10452100Y-13335000I-38100J0D01*
G01*
X10452100Y-13589000D02*
G75*
G03*
X10452100Y-13589000I-38100J0D01*
G01*
X10452100Y-13843000D02*
G75*
G03*
X10452100Y-13843000I-38100J0D01*
G01*
X10452100Y-14097000D02*
G75*
G03*
X10452100Y-14097000I-38100J0D01*
G01*
X10452100Y-14351000D02*
G75*
G03*
X10452100Y-14351000I-38100J0D01*
G01*
X10452100Y-15113000D02*
G75*
G03*
X10452100Y-15113000I-38100J0D01*
G01*
X10452100Y-15367000D02*
G75*
G03*
X10452100Y-15367000I-38100J0D01*
G01*
X10452100Y-15621000D02*
G75*
G03*
X10452100Y-15621000I-38100J0D01*
G01*
X10452100Y-15875000D02*
G75*
G03*
X10452100Y-15875000I-38100J0D01*
G01*
X10452100Y-16129000D02*
G75*
G03*
X10452100Y-16129000I-38100J0D01*
G01*
X10452100Y-16891000D02*
G75*
G03*
X10452100Y-16891000I-38100J0D01*
G01*
X10452100Y-17145000D02*
G75*
G03*
X10452100Y-17145000I-38100J0D01*
G01*
X10706100Y-12319000D02*
G75*
G03*
X10706100Y-12319000I-38100J0D01*
G01*
X10706100Y-12573000D02*
G75*
G03*
X10706100Y-12573000I-38100J0D01*
G01*
X10706100Y-13335000D02*
G75*
G03*
X10706100Y-13335000I-38100J0D01*
G01*
X10706100Y-13589000D02*
G75*
G03*
X10706100Y-13589000I-38100J0D01*
G01*
X10706100Y-13843000D02*
G75*
G03*
X10706100Y-13843000I-38100J0D01*
G01*
X10706100Y-14097000D02*
G75*
G03*
X10706100Y-14097000I-38100J0D01*
G01*
X10706100Y-14351000D02*
G75*
G03*
X10706100Y-14351000I-38100J0D01*
G01*
X10706100Y-15113000D02*
G75*
G03*
X10706100Y-15113000I-38100J0D01*
G01*
X10706100Y-15367000D02*
G75*
G03*
X10706100Y-15367000I-38100J0D01*
G01*
X10706100Y-15621000D02*
G75*
G03*
X10706100Y-15621000I-38100J0D01*
G01*
X10706100Y-15875000D02*
G75*
G03*
X10706100Y-15875000I-38100J0D01*
G01*
X10706100Y-16129000D02*
G75*
G03*
X10706100Y-16129000I-38100J0D01*
G01*
X10706100Y-16891000D02*
G75*
G03*
X10706100Y-16891000I-38100J0D01*
G01*
X10706100Y-17145000D02*
G75*
G03*
X10706100Y-17145000I-38100J0D01*
G01*
X10960100Y-13335000D02*
G75*
G03*
X10960100Y-13335000I-38100J0D01*
G01*
X10960100Y-13589000D02*
G75*
G03*
X10960100Y-13589000I-38100J0D01*
G01*
X10960100Y-13843000D02*
G75*
G03*
X10960100Y-13843000I-38100J0D01*
G01*
X10960100Y-14097000D02*
G75*
G03*
X10960100Y-14097000I-38100J0D01*
G01*
X10960100Y-14351000D02*
G75*
G03*
X10960100Y-14351000I-38100J0D01*
G01*
X10960100Y-15113000D02*
G75*
G03*
X10960100Y-15113000I-38100J0D01*
G01*
X10960100Y-15367000D02*
G75*
G03*
X10960100Y-15367000I-38100J0D01*
G01*
X10960100Y-15621000D02*
G75*
G03*
X10960100Y-15621000I-38100J0D01*
G01*
X10960100Y-15875000D02*
G75*
G03*
X10960100Y-15875000I-38100J0D01*
G01*
X10960100Y-16129000D02*
G75*
G03*
X10960100Y-16129000I-38100J0D01*
G01*
X11214100Y-12319000D02*
G75*
G03*
X11214100Y-12319000I-38100J0D01*
G01*
X11214100Y-12573000D02*
G75*
G03*
X11214100Y-12573000I-38100J0D01*
G01*
X11214100Y-13335000D02*
G75*
G03*
X11214100Y-13335000I-38100J0D01*
G01*
X11214100Y-13589000D02*
G75*
G03*
X11214100Y-13589000I-38100J0D01*
G01*
X11214100Y-13843000D02*
G75*
G03*
X11214100Y-13843000I-38100J0D01*
G01*
X11214100Y-14097000D02*
G75*
G03*
X11214100Y-14097000I-38100J0D01*
G01*
X11214100Y-14351000D02*
G75*
G03*
X11214100Y-14351000I-38100J0D01*
G01*
X11214100Y-15113000D02*
G75*
G03*
X11214100Y-15113000I-38100J0D01*
G01*
X11214100Y-15367000D02*
G75*
G03*
X11214100Y-15367000I-38100J0D01*
G01*
X11214100Y-15621000D02*
G75*
G03*
X11214100Y-15621000I-38100J0D01*
G01*
X11214100Y-15875000D02*
G75*
G03*
X11214100Y-15875000I-38100J0D01*
G01*
X11214100Y-16129000D02*
G75*
G03*
X11214100Y-16129000I-38100J0D01*
G01*
X11214100Y-16891000D02*
G75*
G03*
X11214100Y-16891000I-38100J0D01*
G01*
X11214100Y-17145000D02*
G75*
G03*
X11214100Y-17145000I-38100J0D01*
G01*
X11468100Y-12319000D02*
G75*
G03*
X11468100Y-12319000I-38100J0D01*
G01*
X11468100Y-12573000D02*
G75*
G03*
X11468100Y-12573000I-38100J0D01*
G01*
X11468100Y-13335000D02*
G75*
G03*
X11468100Y-13335000I-38100J0D01*
G01*
X11468100Y-13589000D02*
G75*
G03*
X11468100Y-13589000I-38100J0D01*
G01*
X11468100Y-13843000D02*
G75*
G03*
X11468100Y-13843000I-38100J0D01*
G01*
X11468100Y-14097000D02*
G75*
G03*
X11468100Y-14097000I-38100J0D01*
G01*
X11468100Y-14351000D02*
G75*
G03*
X11468100Y-14351000I-38100J0D01*
G01*
X11468100Y-15113000D02*
G75*
G03*
X11468100Y-15113000I-38100J0D01*
G01*
X11468100Y-15367000D02*
G75*
G03*
X11468100Y-15367000I-38100J0D01*
G01*
X11468100Y-15621000D02*
G75*
G03*
X11468100Y-15621000I-38100J0D01*
G01*
X11468100Y-15875000D02*
G75*
G03*
X11468100Y-15875000I-38100J0D01*
G01*
X11468100Y-16129000D02*
G75*
G03*
X11468100Y-16129000I-38100J0D01*
G01*
X11468100Y-16891000D02*
G75*
G03*
X11468100Y-16891000I-38100J0D01*
G01*
X11468100Y-17145000D02*
G75*
G03*
X11468100Y-17145000I-38100J0D01*
G01*
X11722100Y-12319000D02*
G75*
G03*
X11722100Y-12319000I-38100J0D01*
G01*
X11722100Y-12573000D02*
G75*
G03*
X11722100Y-12573000I-38100J0D01*
G01*
X11722100Y-13335000D02*
G75*
G03*
X11722100Y-13335000I-38100J0D01*
G01*
X11722100Y-13589000D02*
G75*
G03*
X11722100Y-13589000I-38100J0D01*
G01*
X11722100Y-13843000D02*
G75*
G03*
X11722100Y-13843000I-38100J0D01*
G01*
X11722100Y-14097000D02*
G75*
G03*
X11722100Y-14097000I-38100J0D01*
G01*
X11722100Y-14351000D02*
G75*
G03*
X11722100Y-14351000I-38100J0D01*
G01*
X11722100Y-15113000D02*
G75*
G03*
X11722100Y-15113000I-38100J0D01*
G01*
X11722100Y-15367000D02*
G75*
G03*
X11722100Y-15367000I-38100J0D01*
G01*
X11722100Y-15621000D02*
G75*
G03*
X11722100Y-15621000I-38100J0D01*
G01*
X11722100Y-15875000D02*
G75*
G03*
X11722100Y-15875000I-38100J0D01*
G01*
X11722100Y-16129000D02*
G75*
G03*
X11722100Y-16129000I-38100J0D01*
G01*
X11722100Y-16891000D02*
G75*
G03*
X11722100Y-16891000I-38100J0D01*
G01*
X11722100Y-17145000D02*
G75*
G03*
X11722100Y-17145000I-38100J0D01*
G01*
X11976100Y-12319000D02*
G75*
G03*
X11976100Y-12319000I-38100J0D01*
G01*
X11976100Y-12573000D02*
G75*
G03*
X11976100Y-12573000I-38100J0D01*
G01*
X11976100Y-13335000D02*
G75*
G03*
X11976100Y-13335000I-38100J0D01*
G01*
X11976100Y-13589000D02*
G75*
G03*
X11976100Y-13589000I-38100J0D01*
G01*
X11976100Y-13843000D02*
G75*
G03*
X11976100Y-13843000I-38100J0D01*
G01*
X11976100Y-14097000D02*
G75*
G03*
X11976100Y-14097000I-38100J0D01*
G01*
X11976100Y-14351000D02*
G75*
G03*
X11976100Y-14351000I-38100J0D01*
G01*
X11976100Y-15113000D02*
G75*
G03*
X11976100Y-15113000I-38100J0D01*
G01*
X11976100Y-15367000D02*
G75*
G03*
X11976100Y-15367000I-38100J0D01*
G01*
X11976100Y-15621000D02*
G75*
G03*
X11976100Y-15621000I-38100J0D01*
G01*
X11976100Y-15875000D02*
G75*
G03*
X11976100Y-15875000I-38100J0D01*
G01*
X11976100Y-16129000D02*
G75*
G03*
X11976100Y-16129000I-38100J0D01*
G01*
X11976100Y-16891000D02*
G75*
G03*
X11976100Y-16891000I-38100J0D01*
G01*
X11976100Y-17145000D02*
G75*
G03*
X11976100Y-17145000I-38100J0D01*
G01*
X12230100Y-12319000D02*
G75*
G03*
X12230100Y-12319000I-38100J0D01*
G01*
X12230100Y-12573000D02*
G75*
G03*
X12230100Y-12573000I-38100J0D01*
G01*
X12230100Y-13335000D02*
G75*
G03*
X12230100Y-13335000I-38100J0D01*
G01*
X12230100Y-13589000D02*
G75*
G03*
X12230100Y-13589000I-38100J0D01*
G01*
X12230100Y-13843000D02*
G75*
G03*
X12230100Y-13843000I-38100J0D01*
G01*
X12230100Y-14097000D02*
G75*
G03*
X12230100Y-14097000I-38100J0D01*
G01*
X12230100Y-14351000D02*
G75*
G03*
X12230100Y-14351000I-38100J0D01*
G01*
X12230100Y-15113000D02*
G75*
G03*
X12230100Y-15113000I-38100J0D01*
G01*
X12230100Y-15367000D02*
G75*
G03*
X12230100Y-15367000I-38100J0D01*
G01*
X12230100Y-15621000D02*
G75*
G03*
X12230100Y-15621000I-38100J0D01*
G01*
X12230100Y-15875000D02*
G75*
G03*
X12230100Y-15875000I-38100J0D01*
G01*
X12230100Y-16129000D02*
G75*
G03*
X12230100Y-16129000I-38100J0D01*
G01*
X12230100Y-16891000D02*
G75*
G03*
X12230100Y-16891000I-38100J0D01*
G01*
X12230100Y-17145000D02*
G75*
G03*
X12230100Y-17145000I-38100J0D01*
G01*
X12484100Y-13335000D02*
G75*
G03*
X12484100Y-13335000I-38100J0D01*
G01*
X12484100Y-13589000D02*
G75*
G03*
X12484100Y-13589000I-38100J0D01*
G01*
X12484100Y-13843000D02*
G75*
G03*
X12484100Y-13843000I-38100J0D01*
G01*
X12484100Y-14097000D02*
G75*
G03*
X12484100Y-14097000I-38100J0D01*
G01*
X12484100Y-14351000D02*
G75*
G03*
X12484100Y-14351000I-38100J0D01*
G01*
X12484100Y-15113000D02*
G75*
G03*
X12484100Y-15113000I-38100J0D01*
G01*
X12484100Y-15367000D02*
G75*
G03*
X12484100Y-15367000I-38100J0D01*
G01*
X12484100Y-15621000D02*
G75*
G03*
X12484100Y-15621000I-38100J0D01*
G01*
X12484100Y-15875000D02*
G75*
G03*
X12484100Y-15875000I-38100J0D01*
G01*
X12484100Y-16129000D02*
G75*
G03*
X12484100Y-16129000I-38100J0D01*
G01*
X12738100Y-12319000D02*
G75*
G03*
X12738100Y-12319000I-38100J0D01*
G01*
X12738100Y-12573000D02*
G75*
G03*
X12738100Y-12573000I-38100J0D01*
G01*
X12738100Y-13335000D02*
G75*
G03*
X12738100Y-13335000I-38100J0D01*
G01*
X12738100Y-13589000D02*
G75*
G03*
X12738100Y-13589000I-38100J0D01*
G01*
X12738100Y-13843000D02*
G75*
G03*
X12738100Y-13843000I-38100J0D01*
G01*
X12738100Y-14097000D02*
G75*
G03*
X12738100Y-14097000I-38100J0D01*
G01*
X12738100Y-14351000D02*
G75*
G03*
X12738100Y-14351000I-38100J0D01*
G01*
X12738100Y-15113000D02*
G75*
G03*
X12738100Y-15113000I-38100J0D01*
G01*
X12738100Y-15367000D02*
G75*
G03*
X12738100Y-15367000I-38100J0D01*
G01*
X12738100Y-15621000D02*
G75*
G03*
X12738100Y-15621000I-38100J0D01*
G01*
X12738100Y-15875000D02*
G75*
G03*
X12738100Y-15875000I-38100J0D01*
G01*
X12738100Y-16129000D02*
G75*
G03*
X12738100Y-16129000I-38100J0D01*
G01*
X12738100Y-16891000D02*
G75*
G03*
X12738100Y-16891000I-38100J0D01*
G01*
X12738100Y-17145000D02*
G75*
G03*
X12738100Y-17145000I-38100J0D01*
G01*
X12992100Y-12319000D02*
G75*
G03*
X12992100Y-12319000I-38100J0D01*
G01*
X12992100Y-12573000D02*
G75*
G03*
X12992100Y-12573000I-38100J0D01*
G01*
X12992100Y-13335000D02*
G75*
G03*
X12992100Y-13335000I-38100J0D01*
G01*
X12992100Y-13589000D02*
G75*
G03*
X12992100Y-13589000I-38100J0D01*
G01*
X12992100Y-13843000D02*
G75*
G03*
X12992100Y-13843000I-38100J0D01*
G01*
X12992100Y-14097000D02*
G75*
G03*
X12992100Y-14097000I-38100J0D01*
G01*
X12992100Y-14351000D02*
G75*
G03*
X12992100Y-14351000I-38100J0D01*
G01*
X12992100Y-15113000D02*
G75*
G03*
X12992100Y-15113000I-38100J0D01*
G01*
X12992100Y-15367000D02*
G75*
G03*
X12992100Y-15367000I-38100J0D01*
G01*
X12992100Y-15621000D02*
G75*
G03*
X12992100Y-15621000I-38100J0D01*
G01*
X12992100Y-15875000D02*
G75*
G03*
X12992100Y-15875000I-38100J0D01*
G01*
X12992100Y-16129000D02*
G75*
G03*
X12992100Y-16129000I-38100J0D01*
G01*
X12992100Y-16891000D02*
G75*
G03*
X12992100Y-16891000I-38100J0D01*
G01*
X12992100Y-17145000D02*
G75*
G03*
X12992100Y-17145000I-38100J0D01*
G01*
X13246100Y-12319000D02*
G75*
G03*
X13246100Y-12319000I-38100J0D01*
G01*
X13246100Y-12573000D02*
G75*
G03*
X13246100Y-12573000I-38100J0D01*
G01*
X13246100Y-13335000D02*
G75*
G03*
X13246100Y-13335000I-38100J0D01*
G01*
X13246100Y-13589000D02*
G75*
G03*
X13246100Y-13589000I-38100J0D01*
G01*
X13246100Y-13843000D02*
G75*
G03*
X13246100Y-13843000I-38100J0D01*
G01*
X13246100Y-14097000D02*
G75*
G03*
X13246100Y-14097000I-38100J0D01*
G01*
X13246100Y-14351000D02*
G75*
G03*
X13246100Y-14351000I-38100J0D01*
G01*
X13246100Y-15113000D02*
G75*
G03*
X13246100Y-15113000I-38100J0D01*
G01*
X13246100Y-15367000D02*
G75*
G03*
X13246100Y-15367000I-38100J0D01*
G01*
X13246100Y-15621000D02*
G75*
G03*
X13246100Y-15621000I-38100J0D01*
G01*
X13246100Y-15875000D02*
G75*
G03*
X13246100Y-15875000I-38100J0D01*
G01*
X13246100Y-16129000D02*
G75*
G03*
X13246100Y-16129000I-38100J0D01*
G01*
X13246100Y-16891000D02*
G75*
G03*
X13246100Y-16891000I-38100J0D01*
G01*
X13246100Y-17145000D02*
G75*
G03*
X13246100Y-17145000I-38100J0D01*
G01*
X13500100Y-12319000D02*
G75*
G03*
X13500100Y-12319000I-38100J0D01*
G01*
X13500100Y-12573000D02*
G75*
G03*
X13500100Y-12573000I-38100J0D01*
G01*
X13500100Y-13335000D02*
G75*
G03*
X13500100Y-13335000I-38100J0D01*
G01*
X13500100Y-13589000D02*
G75*
G03*
X13500100Y-13589000I-38100J0D01*
G01*
X13500100Y-13843000D02*
G75*
G03*
X13500100Y-13843000I-38100J0D01*
G01*
X13500100Y-14097000D02*
G75*
G03*
X13500100Y-14097000I-38100J0D01*
G01*
X13500100Y-14351000D02*
G75*
G03*
X13500100Y-14351000I-38100J0D01*
G01*
X13500100Y-15113000D02*
G75*
G03*
X13500100Y-15113000I-38100J0D01*
G01*
X13500100Y-15367000D02*
G75*
G03*
X13500100Y-15367000I-38100J0D01*
G01*
X13500100Y-15621000D02*
G75*
G03*
X13500100Y-15621000I-38100J0D01*
G01*
X13500100Y-15875000D02*
G75*
G03*
X13500100Y-15875000I-38100J0D01*
G01*
X13500100Y-16129000D02*
G75*
G03*
X13500100Y-16129000I-38100J0D01*
G01*
X13500100Y-16891000D02*
G75*
G03*
X13500100Y-16891000I-38100J0D01*
G01*
X13500100Y-17145000D02*
G75*
G03*
X13500100Y-17145000I-38100J0D01*
G01*
X13754100Y-12319000D02*
G75*
G03*
X13754100Y-12319000I-38100J0D01*
G01*
X13754100Y-12573000D02*
G75*
G03*
X13754100Y-12573000I-38100J0D01*
G01*
X13754100Y-13335000D02*
G75*
G03*
X13754100Y-13335000I-38100J0D01*
G01*
X13754100Y-13589000D02*
G75*
G03*
X13754100Y-13589000I-38100J0D01*
G01*
X13754100Y-13843000D02*
G75*
G03*
X13754100Y-13843000I-38100J0D01*
G01*
X13754100Y-14097000D02*
G75*
G03*
X13754100Y-14097000I-38100J0D01*
G01*
X13754100Y-14351000D02*
G75*
G03*
X13754100Y-14351000I-38100J0D01*
G01*
X13754100Y-15113000D02*
G75*
G03*
X13754100Y-15113000I-38100J0D01*
G01*
X13754100Y-15367000D02*
G75*
G03*
X13754100Y-15367000I-38100J0D01*
G01*
X13754100Y-15621000D02*
G75*
G03*
X13754100Y-15621000I-38100J0D01*
G01*
X13754100Y-15875000D02*
G75*
G03*
X13754100Y-15875000I-38100J0D01*
G01*
X13754100Y-16129000D02*
G75*
G03*
X13754100Y-16129000I-38100J0D01*
G01*
X13754100Y-16891000D02*
G75*
G03*
X13754100Y-16891000I-38100J0D01*
G01*
X13754100Y-17145000D02*
G75*
G03*
X13754100Y-17145000I-38100J0D01*
G01*
X14008100Y-12319000D02*
G75*
G03*
X14008100Y-12319000I-38100J0D01*
G01*
X14008100Y-12573000D02*
G75*
G03*
X14008100Y-12573000I-38100J0D01*
G01*
X14008100Y-13335000D02*
G75*
G03*
X14008100Y-13335000I-38100J0D01*
G01*
X14008100Y-13589000D02*
G75*
G03*
X14008100Y-13589000I-38100J0D01*
G01*
X14008100Y-13843000D02*
G75*
G03*
X14008100Y-13843000I-38100J0D01*
G01*
X14008100Y-14097000D02*
G75*
G03*
X14008100Y-14097000I-38100J0D01*
G01*
X14008100Y-14351000D02*
G75*
G03*
X14008100Y-14351000I-38100J0D01*
G01*
X14008100Y-15113000D02*
G75*
G03*
X14008100Y-15113000I-38100J0D01*
G01*
X14008100Y-15367000D02*
G75*
G03*
X14008100Y-15367000I-38100J0D01*
G01*
X14008100Y-15621000D02*
G75*
G03*
X14008100Y-15621000I-38100J0D01*
G01*
X14008100Y-15875000D02*
G75*
G03*
X14008100Y-15875000I-38100J0D01*
G01*
X14008100Y-16129000D02*
G75*
G03*
X14008100Y-16129000I-38100J0D01*
G01*
X14008100Y-16891000D02*
G75*
G03*
X14008100Y-16891000I-38100J0D01*
G01*
X14008100Y-17145000D02*
G75*
G03*
X14008100Y-17145000I-38100J0D01*
G01*
X14262100Y-12319000D02*
G75*
G03*
X14262100Y-12319000I-38100J0D01*
G01*
X14262100Y-12573000D02*
G75*
G03*
X14262100Y-12573000I-38100J0D01*
G01*
X14262100Y-13335000D02*
G75*
G03*
X14262100Y-13335000I-38100J0D01*
G01*
X14262100Y-13589000D02*
G75*
G03*
X14262100Y-13589000I-38100J0D01*
G01*
X14262100Y-13843000D02*
G75*
G03*
X14262100Y-13843000I-38100J0D01*
G01*
X14262100Y-14097000D02*
G75*
G03*
X14262100Y-14097000I-38100J0D01*
G01*
X14262100Y-14351000D02*
G75*
G03*
X14262100Y-14351000I-38100J0D01*
G01*
X14262100Y-15113000D02*
G75*
G03*
X14262100Y-15113000I-38100J0D01*
G01*
X14262100Y-15367000D02*
G75*
G03*
X14262100Y-15367000I-38100J0D01*
G01*
X14262100Y-15621000D02*
G75*
G03*
X14262100Y-15621000I-38100J0D01*
G01*
X14262100Y-15875000D02*
G75*
G03*
X14262100Y-15875000I-38100J0D01*
G01*
X14262100Y-16129000D02*
G75*
G03*
X14262100Y-16129000I-38100J0D01*
G01*
X14262100Y-16891000D02*
G75*
G03*
X14262100Y-16891000I-38100J0D01*
G01*
X14262100Y-17145000D02*
G75*
G03*
X14262100Y-17145000I-38100J0D01*
G01*
X14516100Y-12319000D02*
G75*
G03*
X14516100Y-12319000I-38100J0D01*
G01*
X14516100Y-12573000D02*
G75*
G03*
X14516100Y-12573000I-38100J0D01*
G01*
X14516100Y-13335000D02*
G75*
G03*
X14516100Y-13335000I-38100J0D01*
G01*
X14516100Y-13589000D02*
G75*
G03*
X14516100Y-13589000I-38100J0D01*
G01*
X14516100Y-13843000D02*
G75*
G03*
X14516100Y-13843000I-38100J0D01*
G01*
X14516100Y-14097000D02*
G75*
G03*
X14516100Y-14097000I-38100J0D01*
G01*
X14516100Y-14351000D02*
G75*
G03*
X14516100Y-14351000I-38100J0D01*
G01*
X14516100Y-15113000D02*
G75*
G03*
X14516100Y-15113000I-38100J0D01*
G01*
X14516100Y-15367000D02*
G75*
G03*
X14516100Y-15367000I-38100J0D01*
G01*
X14516100Y-15621000D02*
G75*
G03*
X14516100Y-15621000I-38100J0D01*
G01*
X14516100Y-15875000D02*
G75*
G03*
X14516100Y-15875000I-38100J0D01*
G01*
X14516100Y-16129000D02*
G75*
G03*
X14516100Y-16129000I-38100J0D01*
G01*
X14516100Y-16891000D02*
G75*
G03*
X14516100Y-16891000I-38100J0D01*
G01*
X14516100Y-17145000D02*
G75*
G03*
X14516100Y-17145000I-38100J0D01*
G01*
X14770100Y-12319000D02*
G75*
G03*
X14770100Y-12319000I-38100J0D01*
G01*
X14770100Y-12573000D02*
G75*
G03*
X14770100Y-12573000I-38100J0D01*
G01*
X14770100Y-13335000D02*
G75*
G03*
X14770100Y-13335000I-38100J0D01*
G01*
X14770100Y-13589000D02*
G75*
G03*
X14770100Y-13589000I-38100J0D01*
G01*
X14770100Y-13843000D02*
G75*
G03*
X14770100Y-13843000I-38100J0D01*
G01*
X14770100Y-14097000D02*
G75*
G03*
X14770100Y-14097000I-38100J0D01*
G01*
X14770100Y-14351000D02*
G75*
G03*
X14770100Y-14351000I-38100J0D01*
G01*
X14770100Y-15113000D02*
G75*
G03*
X14770100Y-15113000I-38100J0D01*
G01*
X14770100Y-15367000D02*
G75*
G03*
X14770100Y-15367000I-38100J0D01*
G01*
X14770100Y-15621000D02*
G75*
G03*
X14770100Y-15621000I-38100J0D01*
G01*
X14770100Y-15875000D02*
G75*
G03*
X14770100Y-15875000I-38100J0D01*
G01*
X14770100Y-16129000D02*
G75*
G03*
X14770100Y-16129000I-38100J0D01*
G01*
X14770100Y-16891000D02*
G75*
G03*
X14770100Y-16891000I-38100J0D01*
G01*
X14770100Y-17145000D02*
G75*
G03*
X14770100Y-17145000I-38100J0D01*
G01*
X15024100Y-12319000D02*
G75*
G03*
X15024100Y-12319000I-38100J0D01*
G01*
X15024100Y-12573000D02*
G75*
G03*
X15024100Y-12573000I-38100J0D01*
G01*
X15024100Y-13335000D02*
G75*
G03*
X15024100Y-13335000I-38100J0D01*
G01*
X15024100Y-13589000D02*
G75*
G03*
X15024100Y-13589000I-38100J0D01*
G01*
X15024100Y-13843000D02*
G75*
G03*
X15024100Y-13843000I-38100J0D01*
G01*
X15024100Y-14097000D02*
G75*
G03*
X15024100Y-14097000I-38100J0D01*
G01*
X15024100Y-14351000D02*
G75*
G03*
X15024100Y-14351000I-38100J0D01*
G01*
X15024100Y-15113000D02*
G75*
G03*
X15024100Y-15113000I-38100J0D01*
G01*
X15024100Y-15367000D02*
G75*
G03*
X15024100Y-15367000I-38100J0D01*
G01*
X15024100Y-15621000D02*
G75*
G03*
X15024100Y-15621000I-38100J0D01*
G01*
X15024100Y-15875000D02*
G75*
G03*
X15024100Y-15875000I-38100J0D01*
G01*
X15024100Y-16129000D02*
G75*
G03*
X15024100Y-16129000I-38100J0D01*
G01*
X15024100Y-16891000D02*
G75*
G03*
X15024100Y-16891000I-38100J0D01*
G01*
X15024100Y-17145000D02*
G75*
G03*
X15024100Y-17145000I-38100J0D01*
G01*
X15278100Y-13335000D02*
G75*
G03*
X15278100Y-13335000I-38100J0D01*
G01*
X15278100Y-13589000D02*
G75*
G03*
X15278100Y-13589000I-38100J0D01*
G01*
X15278100Y-13843000D02*
G75*
G03*
X15278100Y-13843000I-38100J0D01*
G01*
X15278100Y-14097000D02*
G75*
G03*
X15278100Y-14097000I-38100J0D01*
G01*
X15278100Y-14351000D02*
G75*
G03*
X15278100Y-14351000I-38100J0D01*
G01*
X15278100Y-15113000D02*
G75*
G03*
X15278100Y-15113000I-38100J0D01*
G01*
X15278100Y-15367000D02*
G75*
G03*
X15278100Y-15367000I-38100J0D01*
G01*
X15278100Y-15621000D02*
G75*
G03*
X15278100Y-15621000I-38100J0D01*
G01*
X15278100Y-15875000D02*
G75*
G03*
X15278100Y-15875000I-38100J0D01*
G01*
X15278100Y-16129000D02*
G75*
G03*
X15278100Y-16129000I-38100J0D01*
G01*
X15532100Y-12319000D02*
G75*
G03*
X15532100Y-12319000I-38100J0D01*
G01*
X15532100Y-12573000D02*
G75*
G03*
X15532100Y-12573000I-38100J0D01*
G01*
X15532100Y-13335000D02*
G75*
G03*
X15532100Y-13335000I-38100J0D01*
G01*
X15532100Y-13589000D02*
G75*
G03*
X15532100Y-13589000I-38100J0D01*
G01*
X15532100Y-13843000D02*
G75*
G03*
X15532100Y-13843000I-38100J0D01*
G01*
X15532100Y-14097000D02*
G75*
G03*
X15532100Y-14097000I-38100J0D01*
G01*
X15532100Y-14351000D02*
G75*
G03*
X15532100Y-14351000I-38100J0D01*
G01*
X15532100Y-15113000D02*
G75*
G03*
X15532100Y-15113000I-38100J0D01*
G01*
X15532100Y-15367000D02*
G75*
G03*
X15532100Y-15367000I-38100J0D01*
G01*
X15532100Y-15621000D02*
G75*
G03*
X15532100Y-15621000I-38100J0D01*
G01*
X15532100Y-15875000D02*
G75*
G03*
X15532100Y-15875000I-38100J0D01*
G01*
X15532100Y-16129000D02*
G75*
G03*
X15532100Y-16129000I-38100J0D01*
G01*
X15532100Y-16891000D02*
G75*
G03*
X15532100Y-16891000I-38100J0D01*
G01*
X15532100Y-17145000D02*
G75*
G03*
X15532100Y-17145000I-38100J0D01*
G01*
X15786100Y-12319000D02*
G75*
G03*
X15786100Y-12319000I-38100J0D01*
G01*
X15786100Y-12573000D02*
G75*
G03*
X15786100Y-12573000I-38100J0D01*
G01*
X15786100Y-13335000D02*
G75*
G03*
X15786100Y-13335000I-38100J0D01*
G01*
X15786100Y-13589000D02*
G75*
G03*
X15786100Y-13589000I-38100J0D01*
G01*
X15786100Y-13843000D02*
G75*
G03*
X15786100Y-13843000I-38100J0D01*
G01*
X15786100Y-14097000D02*
G75*
G03*
X15786100Y-14097000I-38100J0D01*
G01*
X15786100Y-14351000D02*
G75*
G03*
X15786100Y-14351000I-38100J0D01*
G01*
X15786100Y-15113000D02*
G75*
G03*
X15786100Y-15113000I-38100J0D01*
G01*
X15786100Y-15367000D02*
G75*
G03*
X15786100Y-15367000I-38100J0D01*
G01*
X15786100Y-15621000D02*
G75*
G03*
X15786100Y-15621000I-38100J0D01*
G01*
X15786100Y-15875000D02*
G75*
G03*
X15786100Y-15875000I-38100J0D01*
G01*
X15786100Y-16129000D02*
G75*
G03*
X15786100Y-16129000I-38100J0D01*
G01*
X15786100Y-16891000D02*
G75*
G03*
X15786100Y-16891000I-38100J0D01*
G01*
X15786100Y-17145000D02*
G75*
G03*
X15786100Y-17145000I-38100J0D01*
G01*
X16040100Y-12319000D02*
G75*
G03*
X16040100Y-12319000I-38100J0D01*
G01*
X16040100Y-12573000D02*
G75*
G03*
X16040100Y-12573000I-38100J0D01*
G01*
X16040100Y-13335000D02*
G75*
G03*
X16040100Y-13335000I-38100J0D01*
G01*
X16040100Y-13589000D02*
G75*
G03*
X16040100Y-13589000I-38100J0D01*
G01*
X16040100Y-13843000D02*
G75*
G03*
X16040100Y-13843000I-38100J0D01*
G01*
X16040100Y-14097000D02*
G75*
G03*
X16040100Y-14097000I-38100J0D01*
G01*
X16040100Y-14351000D02*
G75*
G03*
X16040100Y-14351000I-38100J0D01*
G01*
X16040100Y-15113000D02*
G75*
G03*
X16040100Y-15113000I-38100J0D01*
G01*
X16040100Y-15367000D02*
G75*
G03*
X16040100Y-15367000I-38100J0D01*
G01*
X16040100Y-15621000D02*
G75*
G03*
X16040100Y-15621000I-38100J0D01*
G01*
X16040100Y-15875000D02*
G75*
G03*
X16040100Y-15875000I-38100J0D01*
G01*
X16040100Y-16129000D02*
G75*
G03*
X16040100Y-16129000I-38100J0D01*
G01*
X16040100Y-16891000D02*
G75*
G03*
X16040100Y-16891000I-38100J0D01*
G01*
X16040100Y-17145000D02*
G75*
G03*
X16040100Y-17145000I-38100J0D01*
G01*
X16294100Y-12319000D02*
G75*
G03*
X16294100Y-12319000I-38100J0D01*
G01*
X16294100Y-12573000D02*
G75*
G03*
X16294100Y-12573000I-38100J0D01*
G01*
X16294100Y-13335000D02*
G75*
G03*
X16294100Y-13335000I-38100J0D01*
G01*
X16294100Y-13589000D02*
G75*
G03*
X16294100Y-13589000I-38100J0D01*
G01*
X16294100Y-13843000D02*
G75*
G03*
X16294100Y-13843000I-38100J0D01*
G01*
X16294100Y-14097000D02*
G75*
G03*
X16294100Y-14097000I-38100J0D01*
G01*
X16294100Y-14351000D02*
G75*
G03*
X16294100Y-14351000I-38100J0D01*
G01*
X16294100Y-15113000D02*
G75*
G03*
X16294100Y-15113000I-38100J0D01*
G01*
X16294100Y-15367000D02*
G75*
G03*
X16294100Y-15367000I-38100J0D01*
G01*
X16294100Y-15621000D02*
G75*
G03*
X16294100Y-15621000I-38100J0D01*
G01*
X16294100Y-15875000D02*
G75*
G03*
X16294100Y-15875000I-38100J0D01*
G01*
X16294100Y-16129000D02*
G75*
G03*
X16294100Y-16129000I-38100J0D01*
G01*
X16294100Y-16891000D02*
G75*
G03*
X16294100Y-16891000I-38100J0D01*
G01*
X16294100Y-17145000D02*
G75*
G03*
X16294100Y-17145000I-38100J0D01*
G01*
X16548100Y-3302000D02*
G75*
G03*
X16548100Y-3302000I-38100J0D01*
G01*
X16548100Y-3556000D02*
G75*
G03*
X16548100Y-3556000I-38100J0D01*
G01*
X16548100Y-3810000D02*
G75*
G03*
X16548100Y-3810000I-38100J0D01*
G01*
X16548100Y-4064000D02*
G75*
G03*
X16548100Y-4064000I-38100J0D01*
G01*
X16548100Y-4318000D02*
G75*
G03*
X16548100Y-4318000I-38100J0D01*
G01*
X16548100Y-4826000D02*
G75*
G03*
X16548100Y-4826000I-38100J0D01*
G01*
X16548100Y-5080000D02*
G75*
G03*
X16548100Y-5080000I-38100J0D01*
G01*
X16548100Y-5334000D02*
G75*
G03*
X16548100Y-5334000I-38100J0D01*
G01*
X16548100Y-5588000D02*
G75*
G03*
X16548100Y-5588000I-38100J0D01*
G01*
X16548100Y-5842000D02*
G75*
G03*
X16548100Y-5842000I-38100J0D01*
G01*
X16548100Y-6350000D02*
G75*
G03*
X16548100Y-6350000I-38100J0D01*
G01*
X16548100Y-6604000D02*
G75*
G03*
X16548100Y-6604000I-38100J0D01*
G01*
X16548100Y-6858000D02*
G75*
G03*
X16548100Y-6858000I-38100J0D01*
G01*
X16548100Y-7112000D02*
G75*
G03*
X16548100Y-7112000I-38100J0D01*
G01*
X16548100Y-7366000D02*
G75*
G03*
X16548100Y-7366000I-38100J0D01*
G01*
X16548100Y-7874000D02*
G75*
G03*
X16548100Y-7874000I-38100J0D01*
G01*
X16548100Y-8128000D02*
G75*
G03*
X16548100Y-8128000I-38100J0D01*
G01*
X16548100Y-8382000D02*
G75*
G03*
X16548100Y-8382000I-38100J0D01*
G01*
X16548100Y-8636000D02*
G75*
G03*
X16548100Y-8636000I-38100J0D01*
G01*
X16548100Y-8890000D02*
G75*
G03*
X16548100Y-8890000I-38100J0D01*
G01*
X16548100Y-9398000D02*
G75*
G03*
X16548100Y-9398000I-38100J0D01*
G01*
X16548100Y-9652000D02*
G75*
G03*
X16548100Y-9652000I-38100J0D01*
G01*
X16548100Y-9906000D02*
G75*
G03*
X16548100Y-9906000I-38100J0D01*
G01*
X16548100Y-10160000D02*
G75*
G03*
X16548100Y-10160000I-38100J0D01*
G01*
X16548100Y-10414000D02*
G75*
G03*
X16548100Y-10414000I-38100J0D01*
G01*
X16548100Y-12319000D02*
G75*
G03*
X16548100Y-12319000I-38100J0D01*
G01*
X16548100Y-12573000D02*
G75*
G03*
X16548100Y-12573000I-38100J0D01*
G01*
X16548100Y-13335000D02*
G75*
G03*
X16548100Y-13335000I-38100J0D01*
G01*
X16548100Y-13589000D02*
G75*
G03*
X16548100Y-13589000I-38100J0D01*
G01*
X16548100Y-13843000D02*
G75*
G03*
X16548100Y-13843000I-38100J0D01*
G01*
X16548100Y-14097000D02*
G75*
G03*
X16548100Y-14097000I-38100J0D01*
G01*
X16548100Y-14351000D02*
G75*
G03*
X16548100Y-14351000I-38100J0D01*
G01*
X16548100Y-15113000D02*
G75*
G03*
X16548100Y-15113000I-38100J0D01*
G01*
X16548100Y-15367000D02*
G75*
G03*
X16548100Y-15367000I-38100J0D01*
G01*
X16548100Y-15621000D02*
G75*
G03*
X16548100Y-15621000I-38100J0D01*
G01*
X16548100Y-15875000D02*
G75*
G03*
X16548100Y-15875000I-38100J0D01*
G01*
X16548100Y-16129000D02*
G75*
G03*
X16548100Y-16129000I-38100J0D01*
G01*
X16548100Y-16891000D02*
G75*
G03*
X16548100Y-16891000I-38100J0D01*
G01*
X16548100Y-17145000D02*
G75*
G03*
X16548100Y-17145000I-38100J0D01*
G01*
X16802100Y-3302000D02*
G75*
G03*
X16802100Y-3302000I-38100J0D01*
G01*
X16802100Y-3556000D02*
G75*
G03*
X16802100Y-3556000I-38100J0D01*
G01*
X16802100Y-3810000D02*
G75*
G03*
X16802100Y-3810000I-38100J0D01*
G01*
X16802100Y-4064000D02*
G75*
G03*
X16802100Y-4064000I-38100J0D01*
G01*
X16802100Y-4318000D02*
G75*
G03*
X16802100Y-4318000I-38100J0D01*
G01*
X16802100Y-4826000D02*
G75*
G03*
X16802100Y-4826000I-38100J0D01*
G01*
X16802100Y-5080000D02*
G75*
G03*
X16802100Y-5080000I-38100J0D01*
G01*
X16802100Y-5334000D02*
G75*
G03*
X16802100Y-5334000I-38100J0D01*
G01*
X16802100Y-5588000D02*
G75*
G03*
X16802100Y-5588000I-38100J0D01*
G01*
X16802100Y-5842000D02*
G75*
G03*
X16802100Y-5842000I-38100J0D01*
G01*
X16802100Y-6350000D02*
G75*
G03*
X16802100Y-6350000I-38100J0D01*
G01*
X16802100Y-6604000D02*
G75*
G03*
X16802100Y-6604000I-38100J0D01*
G01*
X16802100Y-6858000D02*
G75*
G03*
X16802100Y-6858000I-38100J0D01*
G01*
X16802100Y-7112000D02*
G75*
G03*
X16802100Y-7112000I-38100J0D01*
G01*
X16802100Y-7366000D02*
G75*
G03*
X16802100Y-7366000I-38100J0D01*
G01*
X16802100Y-7874000D02*
G75*
G03*
X16802100Y-7874000I-38100J0D01*
G01*
X16802100Y-8128000D02*
G75*
G03*
X16802100Y-8128000I-38100J0D01*
G01*
X16802100Y-8382000D02*
G75*
G03*
X16802100Y-8382000I-38100J0D01*
G01*
X16802100Y-8636000D02*
G75*
G03*
X16802100Y-8636000I-38100J0D01*
G01*
X16802100Y-8890000D02*
G75*
G03*
X16802100Y-8890000I-38100J0D01*
G01*
X16802100Y-9398000D02*
G75*
G03*
X16802100Y-9398000I-38100J0D01*
G01*
X16802100Y-9652000D02*
G75*
G03*
X16802100Y-9652000I-38100J0D01*
G01*
X16802100Y-9906000D02*
G75*
G03*
X16802100Y-9906000I-38100J0D01*
G01*
X16802100Y-10160000D02*
G75*
G03*
X16802100Y-10160000I-38100J0D01*
G01*
X16802100Y-10414000D02*
G75*
G03*
X16802100Y-10414000I-38100J0D01*
G01*
X16802100Y-13335000D02*
G75*
G03*
X16802100Y-13335000I-38100J0D01*
G01*
X16802100Y-13589000D02*
G75*
G03*
X16802100Y-13589000I-38100J0D01*
G01*
X16802100Y-13843000D02*
G75*
G03*
X16802100Y-13843000I-38100J0D01*
G01*
X16802100Y-14097000D02*
G75*
G03*
X16802100Y-14097000I-38100J0D01*
G01*
X16802100Y-14351000D02*
G75*
G03*
X16802100Y-14351000I-38100J0D01*
G01*
X16802100Y-15113000D02*
G75*
G03*
X16802100Y-15113000I-38100J0D01*
G01*
X16802100Y-15367000D02*
G75*
G03*
X16802100Y-15367000I-38100J0D01*
G01*
X16802100Y-15621000D02*
G75*
G03*
X16802100Y-15621000I-38100J0D01*
G01*
X16802100Y-15875000D02*
G75*
G03*
X16802100Y-15875000I-38100J0D01*
G01*
X16802100Y-16129000D02*
G75*
G03*
X16802100Y-16129000I-38100J0D01*
G01*
X17056100Y-12319000D02*
G75*
G03*
X17056100Y-12319000I-38100J0D01*
G01*
X17056100Y-12573000D02*
G75*
G03*
X17056100Y-12573000I-38100J0D01*
G01*
X17056100Y-13335000D02*
G75*
G03*
X17056100Y-13335000I-38100J0D01*
G01*
X17056100Y-13589000D02*
G75*
G03*
X17056100Y-13589000I-38100J0D01*
G01*
X17056100Y-13843000D02*
G75*
G03*
X17056100Y-13843000I-38100J0D01*
G01*
X17056100Y-14097000D02*
G75*
G03*
X17056100Y-14097000I-38100J0D01*
G01*
X17056100Y-14351000D02*
G75*
G03*
X17056100Y-14351000I-38100J0D01*
G01*
X17056100Y-15113000D02*
G75*
G03*
X17056100Y-15113000I-38100J0D01*
G01*
X17056100Y-15367000D02*
G75*
G03*
X17056100Y-15367000I-38100J0D01*
G01*
X17056100Y-15621000D02*
G75*
G03*
X17056100Y-15621000I-38100J0D01*
G01*
X17056100Y-15875000D02*
G75*
G03*
X17056100Y-15875000I-38100J0D01*
G01*
X17056100Y-16129000D02*
G75*
G03*
X17056100Y-16129000I-38100J0D01*
G01*
X17056100Y-16891000D02*
G75*
G03*
X17056100Y-16891000I-38100J0D01*
G01*
X17056100Y-17145000D02*
G75*
G03*
X17056100Y-17145000I-38100J0D01*
G01*
X17310100Y-12319000D02*
G75*
G03*
X17310100Y-12319000I-38100J0D01*
G01*
X17310100Y-12573000D02*
G75*
G03*
X17310100Y-12573000I-38100J0D01*
G01*
X17310100Y-13335000D02*
G75*
G03*
X17310100Y-13335000I-38100J0D01*
G01*
X17310100Y-13589000D02*
G75*
G03*
X17310100Y-13589000I-38100J0D01*
G01*
X17310100Y-13843000D02*
G75*
G03*
X17310100Y-13843000I-38100J0D01*
G01*
X17310100Y-14097000D02*
G75*
G03*
X17310100Y-14097000I-38100J0D01*
G01*
X17310100Y-14351000D02*
G75*
G03*
X17310100Y-14351000I-38100J0D01*
G01*
X17310100Y-15113000D02*
G75*
G03*
X17310100Y-15113000I-38100J0D01*
G01*
X17310100Y-15367000D02*
G75*
G03*
X17310100Y-15367000I-38100J0D01*
G01*
X17310100Y-15621000D02*
G75*
G03*
X17310100Y-15621000I-38100J0D01*
G01*
X17310100Y-15875000D02*
G75*
G03*
X17310100Y-15875000I-38100J0D01*
G01*
X17310100Y-16129000D02*
G75*
G03*
X17310100Y-16129000I-38100J0D01*
G01*
X17310100Y-16891000D02*
G75*
G03*
X17310100Y-16891000I-38100J0D01*
G01*
X17310100Y-17145000D02*
G75*
G03*
X17310100Y-17145000I-38100J0D01*
G01*
X17564100Y-3302000D02*
G75*
G03*
X17564100Y-3302000I-38100J0D01*
G01*
X17564100Y-3556000D02*
G75*
G03*
X17564100Y-3556000I-38100J0D01*
G01*
X17564100Y-3810000D02*
G75*
G03*
X17564100Y-3810000I-38100J0D01*
G01*
X17564100Y-4064000D02*
G75*
G03*
X17564100Y-4064000I-38100J0D01*
G01*
X17564100Y-4318000D02*
G75*
G03*
X17564100Y-4318000I-38100J0D01*
G01*
X17564100Y-4572000D02*
G75*
G03*
X17564100Y-4572000I-38100J0D01*
G01*
X17564100Y-4826000D02*
G75*
G03*
X17564100Y-4826000I-38100J0D01*
G01*
X17564100Y-5080000D02*
G75*
G03*
X17564100Y-5080000I-38100J0D01*
G01*
X17564100Y-5334000D02*
G75*
G03*
X17564100Y-5334000I-38100J0D01*
G01*
X17564100Y-5588000D02*
G75*
G03*
X17564100Y-5588000I-38100J0D01*
G01*
X17564100Y-5842000D02*
G75*
G03*
X17564100Y-5842000I-38100J0D01*
G01*
X17564100Y-6096000D02*
G75*
G03*
X17564100Y-6096000I-38100J0D01*
G01*
X17564100Y-6350000D02*
G75*
G03*
X17564100Y-6350000I-38100J0D01*
G01*
X17564100Y-6604000D02*
G75*
G03*
X17564100Y-6604000I-38100J0D01*
G01*
X17564100Y-6858000D02*
G75*
G03*
X17564100Y-6858000I-38100J0D01*
G01*
X17564100Y-7112000D02*
G75*
G03*
X17564100Y-7112000I-38100J0D01*
G01*
X17564100Y-7366000D02*
G75*
G03*
X17564100Y-7366000I-38100J0D01*
G01*
X17564100Y-7620000D02*
G75*
G03*
X17564100Y-7620000I-38100J0D01*
G01*
X17564100Y-7874000D02*
G75*
G03*
X17564100Y-7874000I-38100J0D01*
G01*
X17564100Y-8128000D02*
G75*
G03*
X17564100Y-8128000I-38100J0D01*
G01*
X17564100Y-8382000D02*
G75*
G03*
X17564100Y-8382000I-38100J0D01*
G01*
X17564100Y-8636000D02*
G75*
G03*
X17564100Y-8636000I-38100J0D01*
G01*
X17564100Y-8890000D02*
G75*
G03*
X17564100Y-8890000I-38100J0D01*
G01*
X17564100Y-9144000D02*
G75*
G03*
X17564100Y-9144000I-38100J0D01*
G01*
X17564100Y-9398000D02*
G75*
G03*
X17564100Y-9398000I-38100J0D01*
G01*
X17564100Y-9652000D02*
G75*
G03*
X17564100Y-9652000I-38100J0D01*
G01*
X17564100Y-9906000D02*
G75*
G03*
X17564100Y-9906000I-38100J0D01*
G01*
X17564100Y-10160000D02*
G75*
G03*
X17564100Y-10160000I-38100J0D01*
G01*
X17564100Y-10414000D02*
G75*
G03*
X17564100Y-10414000I-38100J0D01*
G01*
X17564100Y-12319000D02*
G75*
G03*
X17564100Y-12319000I-38100J0D01*
G01*
X17564100Y-12573000D02*
G75*
G03*
X17564100Y-12573000I-38100J0D01*
G01*
X17564100Y-13335000D02*
G75*
G03*
X17564100Y-13335000I-38100J0D01*
G01*
X17564100Y-13589000D02*
G75*
G03*
X17564100Y-13589000I-38100J0D01*
G01*
X17564100Y-13843000D02*
G75*
G03*
X17564100Y-13843000I-38100J0D01*
G01*
X17564100Y-14097000D02*
G75*
G03*
X17564100Y-14097000I-38100J0D01*
G01*
X17564100Y-14351000D02*
G75*
G03*
X17564100Y-14351000I-38100J0D01*
G01*
X17564100Y-15113000D02*
G75*
G03*
X17564100Y-15113000I-38100J0D01*
G01*
X17564100Y-15367000D02*
G75*
G03*
X17564100Y-15367000I-38100J0D01*
G01*
X17564100Y-15621000D02*
G75*
G03*
X17564100Y-15621000I-38100J0D01*
G01*
X17564100Y-15875000D02*
G75*
G03*
X17564100Y-15875000I-38100J0D01*
G01*
X17564100Y-16129000D02*
G75*
G03*
X17564100Y-16129000I-38100J0D01*
G01*
X17564100Y-16891000D02*
G75*
G03*
X17564100Y-16891000I-38100J0D01*
G01*
X17564100Y-17145000D02*
G75*
G03*
X17564100Y-17145000I-38100J0D01*
G01*
X17818100Y-3302000D02*
G75*
G03*
X17818100Y-3302000I-38100J0D01*
G01*
X17818100Y-3556000D02*
G75*
G03*
X17818100Y-3556000I-38100J0D01*
G01*
X17818100Y-3810000D02*
G75*
G03*
X17818100Y-3810000I-38100J0D01*
G01*
X17818100Y-4064000D02*
G75*
G03*
X17818100Y-4064000I-38100J0D01*
G01*
X17818100Y-4318000D02*
G75*
G03*
X17818100Y-4318000I-38100J0D01*
G01*
X17818100Y-4572000D02*
G75*
G03*
X17818100Y-4572000I-38100J0D01*
G01*
X17818100Y-4826000D02*
G75*
G03*
X17818100Y-4826000I-38100J0D01*
G01*
X17818100Y-5080000D02*
G75*
G03*
X17818100Y-5080000I-38100J0D01*
G01*
X17818100Y-5334000D02*
G75*
G03*
X17818100Y-5334000I-38100J0D01*
G01*
X17818100Y-5588000D02*
G75*
G03*
X17818100Y-5588000I-38100J0D01*
G01*
X17818100Y-5842000D02*
G75*
G03*
X17818100Y-5842000I-38100J0D01*
G01*
X17818100Y-6096000D02*
G75*
G03*
X17818100Y-6096000I-38100J0D01*
G01*
X17818100Y-6350000D02*
G75*
G03*
X17818100Y-6350000I-38100J0D01*
G01*
X17818100Y-6604000D02*
G75*
G03*
X17818100Y-6604000I-38100J0D01*
G01*
X17818100Y-6858000D02*
G75*
G03*
X17818100Y-6858000I-38100J0D01*
G01*
X17818100Y-7112000D02*
G75*
G03*
X17818100Y-7112000I-38100J0D01*
G01*
X17818100Y-7366000D02*
G75*
G03*
X17818100Y-7366000I-38100J0D01*
G01*
X17818100Y-7620000D02*
G75*
G03*
X17818100Y-7620000I-38100J0D01*
G01*
X17818100Y-7874000D02*
G75*
G03*
X17818100Y-7874000I-38100J0D01*
G01*
X17818100Y-8128000D02*
G75*
G03*
X17818100Y-8128000I-38100J0D01*
G01*
X17818100Y-8382000D02*
G75*
G03*
X17818100Y-8382000I-38100J0D01*
G01*
X17818100Y-8636000D02*
G75*
G03*
X17818100Y-8636000I-38100J0D01*
G01*
X17818100Y-8890000D02*
G75*
G03*
X17818100Y-8890000I-38100J0D01*
G01*
X17818100Y-9144000D02*
G75*
G03*
X17818100Y-9144000I-38100J0D01*
G01*
X17818100Y-9398000D02*
G75*
G03*
X17818100Y-9398000I-38100J0D01*
G01*
X17818100Y-9652000D02*
G75*
G03*
X17818100Y-9652000I-38100J0D01*
G01*
X17818100Y-9906000D02*
G75*
G03*
X17818100Y-9906000I-38100J0D01*
G01*
X17818100Y-10160000D02*
G75*
G03*
X17818100Y-10160000I-38100J0D01*
G01*
X17818100Y-10414000D02*
G75*
G03*
X17818100Y-10414000I-38100J0D01*
G01*
X17818100Y-12319000D02*
G75*
G03*
X17818100Y-12319000I-38100J0D01*
G01*
X17818100Y-12573000D02*
G75*
G03*
X17818100Y-12573000I-38100J0D01*
G01*
X17818100Y-13335000D02*
G75*
G03*
X17818100Y-13335000I-38100J0D01*
G01*
X17818100Y-13589000D02*
G75*
G03*
X17818100Y-13589000I-38100J0D01*
G01*
X17818100Y-13843000D02*
G75*
G03*
X17818100Y-13843000I-38100J0D01*
G01*
X17818100Y-14097000D02*
G75*
G03*
X17818100Y-14097000I-38100J0D01*
G01*
X17818100Y-14351000D02*
G75*
G03*
X17818100Y-14351000I-38100J0D01*
G01*
X17818100Y-15113000D02*
G75*
G03*
X17818100Y-15113000I-38100J0D01*
G01*
X17818100Y-15367000D02*
G75*
G03*
X17818100Y-15367000I-38100J0D01*
G01*
X17818100Y-15621000D02*
G75*
G03*
X17818100Y-15621000I-38100J0D01*
G01*
X17818100Y-15875000D02*
G75*
G03*
X17818100Y-15875000I-38100J0D01*
G01*
X17818100Y-16129000D02*
G75*
G03*
X17818100Y-16129000I-38100J0D01*
G01*
X17818100Y-16891000D02*
G75*
G03*
X17818100Y-16891000I-38100J0D01*
G01*
X17818100Y-17145000D02*
G75*
G03*
X17818100Y-17145000I-38100J0D01*
G01*
X18072100Y-3302000D02*
G75*
G03*
X18072100Y-3302000I-38100J0D01*
G01*
X18072100Y-3556000D02*
G75*
G03*
X18072100Y-3556000I-38100J0D01*
G01*
X18072100Y-3810000D02*
G75*
G03*
X18072100Y-3810000I-38100J0D01*
G01*
X18072100Y-4064000D02*
G75*
G03*
X18072100Y-4064000I-38100J0D01*
G01*
X18072100Y-4318000D02*
G75*
G03*
X18072100Y-4318000I-38100J0D01*
G01*
X18072100Y-4572000D02*
G75*
G03*
X18072100Y-4572000I-38100J0D01*
G01*
X18072100Y-4826000D02*
G75*
G03*
X18072100Y-4826000I-38100J0D01*
G01*
X18072100Y-5080000D02*
G75*
G03*
X18072100Y-5080000I-38100J0D01*
G01*
X18072100Y-5334000D02*
G75*
G03*
X18072100Y-5334000I-38100J0D01*
G01*
X18072100Y-5588000D02*
G75*
G03*
X18072100Y-5588000I-38100J0D01*
G01*
X18072100Y-5842000D02*
G75*
G03*
X18072100Y-5842000I-38100J0D01*
G01*
X18072100Y-6096000D02*
G75*
G03*
X18072100Y-6096000I-38100J0D01*
G01*
X18072100Y-6350000D02*
G75*
G03*
X18072100Y-6350000I-38100J0D01*
G01*
X18072100Y-6604000D02*
G75*
G03*
X18072100Y-6604000I-38100J0D01*
G01*
X18072100Y-6858000D02*
G75*
G03*
X18072100Y-6858000I-38100J0D01*
G01*
X18072100Y-7112000D02*
G75*
G03*
X18072100Y-7112000I-38100J0D01*
G01*
X18072100Y-7366000D02*
G75*
G03*
X18072100Y-7366000I-38100J0D01*
G01*
X18072100Y-7620000D02*
G75*
G03*
X18072100Y-7620000I-38100J0D01*
G01*
X18072100Y-7874000D02*
G75*
G03*
X18072100Y-7874000I-38100J0D01*
G01*
X18072100Y-8128000D02*
G75*
G03*
X18072100Y-8128000I-38100J0D01*
G01*
X18072100Y-8382000D02*
G75*
G03*
X18072100Y-8382000I-38100J0D01*
G01*
X18072100Y-8636000D02*
G75*
G03*
X18072100Y-8636000I-38100J0D01*
G01*
X18072100Y-8890000D02*
G75*
G03*
X18072100Y-8890000I-38100J0D01*
G01*
X18072100Y-9144000D02*
G75*
G03*
X18072100Y-9144000I-38100J0D01*
G01*
X18072100Y-9398000D02*
G75*
G03*
X18072100Y-9398000I-38100J0D01*
G01*
X18072100Y-9652000D02*
G75*
G03*
X18072100Y-9652000I-38100J0D01*
G01*
X18072100Y-9906000D02*
G75*
G03*
X18072100Y-9906000I-38100J0D01*
G01*
X18072100Y-10160000D02*
G75*
G03*
X18072100Y-10160000I-38100J0D01*
G01*
X18072100Y-10414000D02*
G75*
G03*
X18072100Y-10414000I-38100J0D01*
G01*
X18072100Y-12319000D02*
G75*
G03*
X18072100Y-12319000I-38100J0D01*
G01*
X18072100Y-12573000D02*
G75*
G03*
X18072100Y-12573000I-38100J0D01*
G01*
X18072100Y-13335000D02*
G75*
G03*
X18072100Y-13335000I-38100J0D01*
G01*
X18072100Y-13589000D02*
G75*
G03*
X18072100Y-13589000I-38100J0D01*
G01*
X18072100Y-13843000D02*
G75*
G03*
X18072100Y-13843000I-38100J0D01*
G01*
X18072100Y-14097000D02*
G75*
G03*
X18072100Y-14097000I-38100J0D01*
G01*
X18072100Y-14351000D02*
G75*
G03*
X18072100Y-14351000I-38100J0D01*
G01*
X18072100Y-15113000D02*
G75*
G03*
X18072100Y-15113000I-38100J0D01*
G01*
X18072100Y-15367000D02*
G75*
G03*
X18072100Y-15367000I-38100J0D01*
G01*
X18072100Y-15621000D02*
G75*
G03*
X18072100Y-15621000I-38100J0D01*
G01*
X18072100Y-15875000D02*
G75*
G03*
X18072100Y-15875000I-38100J0D01*
G01*
X18072100Y-16129000D02*
G75*
G03*
X18072100Y-16129000I-38100J0D01*
G01*
X18072100Y-16891000D02*
G75*
G03*
X18072100Y-16891000I-38100J0D01*
G01*
X18072100Y-17145000D02*
G75*
G03*
X18072100Y-17145000I-38100J0D01*
G01*
X18326100Y-3302000D02*
G75*
G03*
X18326100Y-3302000I-38100J0D01*
G01*
X18326100Y-3556000D02*
G75*
G03*
X18326100Y-3556000I-38100J0D01*
G01*
X18326100Y-3810000D02*
G75*
G03*
X18326100Y-3810000I-38100J0D01*
G01*
X18326100Y-4064000D02*
G75*
G03*
X18326100Y-4064000I-38100J0D01*
G01*
X18326100Y-4318000D02*
G75*
G03*
X18326100Y-4318000I-38100J0D01*
G01*
X18326100Y-4572000D02*
G75*
G03*
X18326100Y-4572000I-38100J0D01*
G01*
X18326100Y-4826000D02*
G75*
G03*
X18326100Y-4826000I-38100J0D01*
G01*
X18326100Y-5080000D02*
G75*
G03*
X18326100Y-5080000I-38100J0D01*
G01*
X18326100Y-5334000D02*
G75*
G03*
X18326100Y-5334000I-38100J0D01*
G01*
X18326100Y-5588000D02*
G75*
G03*
X18326100Y-5588000I-38100J0D01*
G01*
X18326100Y-5842000D02*
G75*
G03*
X18326100Y-5842000I-38100J0D01*
G01*
X18326100Y-6096000D02*
G75*
G03*
X18326100Y-6096000I-38100J0D01*
G01*
X18326100Y-6350000D02*
G75*
G03*
X18326100Y-6350000I-38100J0D01*
G01*
X18326100Y-6604000D02*
G75*
G03*
X18326100Y-6604000I-38100J0D01*
G01*
X18326100Y-6858000D02*
G75*
G03*
X18326100Y-6858000I-38100J0D01*
G01*
X18326100Y-7112000D02*
G75*
G03*
X18326100Y-7112000I-38100J0D01*
G01*
X18326100Y-7366000D02*
G75*
G03*
X18326100Y-7366000I-38100J0D01*
G01*
X18326100Y-7620000D02*
G75*
G03*
X18326100Y-7620000I-38100J0D01*
G01*
X18326100Y-7874000D02*
G75*
G03*
X18326100Y-7874000I-38100J0D01*
G01*
X18326100Y-8128000D02*
G75*
G03*
X18326100Y-8128000I-38100J0D01*
G01*
X18326100Y-8382000D02*
G75*
G03*
X18326100Y-8382000I-38100J0D01*
G01*
X18326100Y-8636000D02*
G75*
G03*
X18326100Y-8636000I-38100J0D01*
G01*
X18326100Y-8890000D02*
G75*
G03*
X18326100Y-8890000I-38100J0D01*
G01*
X18326100Y-9144000D02*
G75*
G03*
X18326100Y-9144000I-38100J0D01*
G01*
X18326100Y-9398000D02*
G75*
G03*
X18326100Y-9398000I-38100J0D01*
G01*
X18326100Y-9652000D02*
G75*
G03*
X18326100Y-9652000I-38100J0D01*
G01*
X18326100Y-9906000D02*
G75*
G03*
X18326100Y-9906000I-38100J0D01*
G01*
X18326100Y-10160000D02*
G75*
G03*
X18326100Y-10160000I-38100J0D01*
G01*
X18326100Y-10414000D02*
G75*
G03*
X18326100Y-10414000I-38100J0D01*
G01*
X18326100Y-13335000D02*
G75*
G03*
X18326100Y-13335000I-38100J0D01*
G01*
X18326100Y-13589000D02*
G75*
G03*
X18326100Y-13589000I-38100J0D01*
G01*
X18326100Y-13843000D02*
G75*
G03*
X18326100Y-13843000I-38100J0D01*
G01*
X18326100Y-14097000D02*
G75*
G03*
X18326100Y-14097000I-38100J0D01*
G01*
X18326100Y-14351000D02*
G75*
G03*
X18326100Y-14351000I-38100J0D01*
G01*
X18326100Y-15113000D02*
G75*
G03*
X18326100Y-15113000I-38100J0D01*
G01*
X18326100Y-15367000D02*
G75*
G03*
X18326100Y-15367000I-38100J0D01*
G01*
X18326100Y-15621000D02*
G75*
G03*
X18326100Y-15621000I-38100J0D01*
G01*
X18326100Y-15875000D02*
G75*
G03*
X18326100Y-15875000I-38100J0D01*
G01*
X18326100Y-16129000D02*
G75*
G03*
X18326100Y-16129000I-38100J0D01*
G01*
X18580100Y-3302000D02*
G75*
G03*
X18580100Y-3302000I-38100J0D01*
G01*
X18580100Y-3556000D02*
G75*
G03*
X18580100Y-3556000I-38100J0D01*
G01*
X18580100Y-3810000D02*
G75*
G03*
X18580100Y-3810000I-38100J0D01*
G01*
X18580100Y-4064000D02*
G75*
G03*
X18580100Y-4064000I-38100J0D01*
G01*
X18580100Y-4318000D02*
G75*
G03*
X18580100Y-4318000I-38100J0D01*
G01*
X18580100Y-4572000D02*
G75*
G03*
X18580100Y-4572000I-38100J0D01*
G01*
X18580100Y-4826000D02*
G75*
G03*
X18580100Y-4826000I-38100J0D01*
G01*
X18580100Y-5080000D02*
G75*
G03*
X18580100Y-5080000I-38100J0D01*
G01*
X18580100Y-5334000D02*
G75*
G03*
X18580100Y-5334000I-38100J0D01*
G01*
X18580100Y-5588000D02*
G75*
G03*
X18580100Y-5588000I-38100J0D01*
G01*
X18580100Y-5842000D02*
G75*
G03*
X18580100Y-5842000I-38100J0D01*
G01*
X18580100Y-6096000D02*
G75*
G03*
X18580100Y-6096000I-38100J0D01*
G01*
X18580100Y-6350000D02*
G75*
G03*
X18580100Y-6350000I-38100J0D01*
G01*
X18580100Y-6604000D02*
G75*
G03*
X18580100Y-6604000I-38100J0D01*
G01*
X18580100Y-6858000D02*
G75*
G03*
X18580100Y-6858000I-38100J0D01*
G01*
X18580100Y-7112000D02*
G75*
G03*
X18580100Y-7112000I-38100J0D01*
G01*
X18580100Y-7366000D02*
G75*
G03*
X18580100Y-7366000I-38100J0D01*
G01*
X18580100Y-7620000D02*
G75*
G03*
X18580100Y-7620000I-38100J0D01*
G01*
X18580100Y-7874000D02*
G75*
G03*
X18580100Y-7874000I-38100J0D01*
G01*
X18580100Y-8128000D02*
G75*
G03*
X18580100Y-8128000I-38100J0D01*
G01*
X18580100Y-8382000D02*
G75*
G03*
X18580100Y-8382000I-38100J0D01*
G01*
X18580100Y-8636000D02*
G75*
G03*
X18580100Y-8636000I-38100J0D01*
G01*
X18580100Y-8890000D02*
G75*
G03*
X18580100Y-8890000I-38100J0D01*
G01*
X18580100Y-9144000D02*
G75*
G03*
X18580100Y-9144000I-38100J0D01*
G01*
X18580100Y-9398000D02*
G75*
G03*
X18580100Y-9398000I-38100J0D01*
G01*
X18580100Y-9652000D02*
G75*
G03*
X18580100Y-9652000I-38100J0D01*
G01*
X18580100Y-9906000D02*
G75*
G03*
X18580100Y-9906000I-38100J0D01*
G01*
X18580100Y-10160000D02*
G75*
G03*
X18580100Y-10160000I-38100J0D01*
G01*
X18580100Y-10414000D02*
G75*
G03*
X18580100Y-10414000I-38100J0D01*
G01*
X18580100Y-12319000D02*
G75*
G03*
X18580100Y-12319000I-38100J0D01*
G01*
X18580100Y-12573000D02*
G75*
G03*
X18580100Y-12573000I-38100J0D01*
G01*
X18580100Y-13335000D02*
G75*
G03*
X18580100Y-13335000I-38100J0D01*
G01*
X18580100Y-13589000D02*
G75*
G03*
X18580100Y-13589000I-38100J0D01*
G01*
X18580100Y-13843000D02*
G75*
G03*
X18580100Y-13843000I-38100J0D01*
G01*
X18580100Y-14097000D02*
G75*
G03*
X18580100Y-14097000I-38100J0D01*
G01*
X18580100Y-14351000D02*
G75*
G03*
X18580100Y-14351000I-38100J0D01*
G01*
X18580100Y-15113000D02*
G75*
G03*
X18580100Y-15113000I-38100J0D01*
G01*
X18580100Y-15367000D02*
G75*
G03*
X18580100Y-15367000I-38100J0D01*
G01*
X18580100Y-15621000D02*
G75*
G03*
X18580100Y-15621000I-38100J0D01*
G01*
X18580100Y-15875000D02*
G75*
G03*
X18580100Y-15875000I-38100J0D01*
G01*
X18580100Y-16129000D02*
G75*
G03*
X18580100Y-16129000I-38100J0D01*
G01*
X18580100Y-16891000D02*
G75*
G03*
X18580100Y-16891000I-38100J0D01*
G01*
X18580100Y-17145000D02*
G75*
G03*
X18580100Y-17145000I-38100J0D01*
G01*
X18834100Y-12319000D02*
G75*
G03*
X18834100Y-12319000I-38100J0D01*
G01*
X18834100Y-12573000D02*
G75*
G03*
X18834100Y-12573000I-38100J0D01*
G01*
X18834100Y-13335000D02*
G75*
G03*
X18834100Y-13335000I-38100J0D01*
G01*
X18834100Y-13589000D02*
G75*
G03*
X18834100Y-13589000I-38100J0D01*
G01*
X18834100Y-13843000D02*
G75*
G03*
X18834100Y-13843000I-38100J0D01*
G01*
X18834100Y-14097000D02*
G75*
G03*
X18834100Y-14097000I-38100J0D01*
G01*
X18834100Y-14351000D02*
G75*
G03*
X18834100Y-14351000I-38100J0D01*
G01*
X18834100Y-15113000D02*
G75*
G03*
X18834100Y-15113000I-38100J0D01*
G01*
X18834100Y-15367000D02*
G75*
G03*
X18834100Y-15367000I-38100J0D01*
G01*
X18834100Y-15621000D02*
G75*
G03*
X18834100Y-15621000I-38100J0D01*
G01*
X18834100Y-15875000D02*
G75*
G03*
X18834100Y-15875000I-38100J0D01*
G01*
X18834100Y-16129000D02*
G75*
G03*
X18834100Y-16129000I-38100J0D01*
G01*
X18834100Y-16891000D02*
G75*
G03*
X18834100Y-16891000I-38100J0D01*
G01*
X18834100Y-17145000D02*
G75*
G03*
X18834100Y-17145000I-38100J0D01*
G01*
X19088100Y-12319000D02*
G75*
G03*
X19088100Y-12319000I-38100J0D01*
G01*
X19088100Y-12573000D02*
G75*
G03*
X19088100Y-12573000I-38100J0D01*
G01*
X19088100Y-13335000D02*
G75*
G03*
X19088100Y-13335000I-38100J0D01*
G01*
X19088100Y-13589000D02*
G75*
G03*
X19088100Y-13589000I-38100J0D01*
G01*
X19088100Y-13843000D02*
G75*
G03*
X19088100Y-13843000I-38100J0D01*
G01*
X19088100Y-14097000D02*
G75*
G03*
X19088100Y-14097000I-38100J0D01*
G01*
X19088100Y-14351000D02*
G75*
G03*
X19088100Y-14351000I-38100J0D01*
G01*
X19088100Y-15113000D02*
G75*
G03*
X19088100Y-15113000I-38100J0D01*
G01*
X19088100Y-15367000D02*
G75*
G03*
X19088100Y-15367000I-38100J0D01*
G01*
X19088100Y-15621000D02*
G75*
G03*
X19088100Y-15621000I-38100J0D01*
G01*
X19088100Y-15875000D02*
G75*
G03*
X19088100Y-15875000I-38100J0D01*
G01*
X19088100Y-16129000D02*
G75*
G03*
X19088100Y-16129000I-38100J0D01*
G01*
X19088100Y-16891000D02*
G75*
G03*
X19088100Y-16891000I-38100J0D01*
G01*
X19088100Y-17145000D02*
G75*
G03*
X19088100Y-17145000I-38100J0D01*
G01*
X19342100Y-3302000D02*
G75*
G03*
X19342100Y-3302000I-38100J0D01*
G01*
X19342100Y-3556000D02*
G75*
G03*
X19342100Y-3556000I-38100J0D01*
G01*
X19342100Y-3810000D02*
G75*
G03*
X19342100Y-3810000I-38100J0D01*
G01*
X19342100Y-4064000D02*
G75*
G03*
X19342100Y-4064000I-38100J0D01*
G01*
X19342100Y-4318000D02*
G75*
G03*
X19342100Y-4318000I-38100J0D01*
G01*
X19342100Y-4572000D02*
G75*
G03*
X19342100Y-4572000I-38100J0D01*
G01*
X19342100Y-4826000D02*
G75*
G03*
X19342100Y-4826000I-38100J0D01*
G01*
X19342100Y-5080000D02*
G75*
G03*
X19342100Y-5080000I-38100J0D01*
G01*
X19342100Y-5334000D02*
G75*
G03*
X19342100Y-5334000I-38100J0D01*
G01*
X19342100Y-5588000D02*
G75*
G03*
X19342100Y-5588000I-38100J0D01*
G01*
X19342100Y-5842000D02*
G75*
G03*
X19342100Y-5842000I-38100J0D01*
G01*
X19342100Y-6096000D02*
G75*
G03*
X19342100Y-6096000I-38100J0D01*
G01*
X19342100Y-6350000D02*
G75*
G03*
X19342100Y-6350000I-38100J0D01*
G01*
X19342100Y-6604000D02*
G75*
G03*
X19342100Y-6604000I-38100J0D01*
G01*
X19342100Y-6858000D02*
G75*
G03*
X19342100Y-6858000I-38100J0D01*
G01*
X19342100Y-7112000D02*
G75*
G03*
X19342100Y-7112000I-38100J0D01*
G01*
X19342100Y-7366000D02*
G75*
G03*
X19342100Y-7366000I-38100J0D01*
G01*
X19342100Y-7620000D02*
G75*
G03*
X19342100Y-7620000I-38100J0D01*
G01*
X19342100Y-7874000D02*
G75*
G03*
X19342100Y-7874000I-38100J0D01*
G01*
X19342100Y-8128000D02*
G75*
G03*
X19342100Y-8128000I-38100J0D01*
G01*
X19342100Y-8382000D02*
G75*
G03*
X19342100Y-8382000I-38100J0D01*
G01*
X19342100Y-8636000D02*
G75*
G03*
X19342100Y-8636000I-38100J0D01*
G01*
X19342100Y-8890000D02*
G75*
G03*
X19342100Y-8890000I-38100J0D01*
G01*
X19342100Y-9144000D02*
G75*
G03*
X19342100Y-9144000I-38100J0D01*
G01*
X19342100Y-9398000D02*
G75*
G03*
X19342100Y-9398000I-38100J0D01*
G01*
X19342100Y-9652000D02*
G75*
G03*
X19342100Y-9652000I-38100J0D01*
G01*
X19342100Y-9906000D02*
G75*
G03*
X19342100Y-9906000I-38100J0D01*
G01*
X19342100Y-10160000D02*
G75*
G03*
X19342100Y-10160000I-38100J0D01*
G01*
X19342100Y-10414000D02*
G75*
G03*
X19342100Y-10414000I-38100J0D01*
G01*
X19342100Y-12319000D02*
G75*
G03*
X19342100Y-12319000I-38100J0D01*
G01*
X19342100Y-12573000D02*
G75*
G03*
X19342100Y-12573000I-38100J0D01*
G01*
X19342100Y-13335000D02*
G75*
G03*
X19342100Y-13335000I-38100J0D01*
G01*
X19342100Y-13589000D02*
G75*
G03*
X19342100Y-13589000I-38100J0D01*
G01*
X19342100Y-13843000D02*
G75*
G03*
X19342100Y-13843000I-38100J0D01*
G01*
X19342100Y-14097000D02*
G75*
G03*
X19342100Y-14097000I-38100J0D01*
G01*
X19342100Y-14351000D02*
G75*
G03*
X19342100Y-14351000I-38100J0D01*
G01*
X19342100Y-15113000D02*
G75*
G03*
X19342100Y-15113000I-38100J0D01*
G01*
X19342100Y-15367000D02*
G75*
G03*
X19342100Y-15367000I-38100J0D01*
G01*
X19342100Y-15621000D02*
G75*
G03*
X19342100Y-15621000I-38100J0D01*
G01*
X19342100Y-15875000D02*
G75*
G03*
X19342100Y-15875000I-38100J0D01*
G01*
X19342100Y-16129000D02*
G75*
G03*
X19342100Y-16129000I-38100J0D01*
G01*
X19342100Y-16891000D02*
G75*
G03*
X19342100Y-16891000I-38100J0D01*
G01*
X19342100Y-17145000D02*
G75*
G03*
X19342100Y-17145000I-38100J0D01*
G01*
X19596100Y-3302000D02*
G75*
G03*
X19596100Y-3302000I-38100J0D01*
G01*
X19596100Y-3556000D02*
G75*
G03*
X19596100Y-3556000I-38100J0D01*
G01*
X19596100Y-3810000D02*
G75*
G03*
X19596100Y-3810000I-38100J0D01*
G01*
X19596100Y-4064000D02*
G75*
G03*
X19596100Y-4064000I-38100J0D01*
G01*
X19596100Y-4318000D02*
G75*
G03*
X19596100Y-4318000I-38100J0D01*
G01*
X19596100Y-4572000D02*
G75*
G03*
X19596100Y-4572000I-38100J0D01*
G01*
X19596100Y-4826000D02*
G75*
G03*
X19596100Y-4826000I-38100J0D01*
G01*
X19596100Y-5080000D02*
G75*
G03*
X19596100Y-5080000I-38100J0D01*
G01*
X19596100Y-5334000D02*
G75*
G03*
X19596100Y-5334000I-38100J0D01*
G01*
X19596100Y-5588000D02*
G75*
G03*
X19596100Y-5588000I-38100J0D01*
G01*
X19596100Y-5842000D02*
G75*
G03*
X19596100Y-5842000I-38100J0D01*
G01*
X19596100Y-6096000D02*
G75*
G03*
X19596100Y-6096000I-38100J0D01*
G01*
X19596100Y-6350000D02*
G75*
G03*
X19596100Y-6350000I-38100J0D01*
G01*
X19596100Y-6604000D02*
G75*
G03*
X19596100Y-6604000I-38100J0D01*
G01*
X19596100Y-6858000D02*
G75*
G03*
X19596100Y-6858000I-38100J0D01*
G01*
X19596100Y-7112000D02*
G75*
G03*
X19596100Y-7112000I-38100J0D01*
G01*
X19596100Y-7366000D02*
G75*
G03*
X19596100Y-7366000I-38100J0D01*
G01*
X19596100Y-7620000D02*
G75*
G03*
X19596100Y-7620000I-38100J0D01*
G01*
X19596100Y-7874000D02*
G75*
G03*
X19596100Y-7874000I-38100J0D01*
G01*
X19596100Y-8128000D02*
G75*
G03*
X19596100Y-8128000I-38100J0D01*
G01*
X19596100Y-8382000D02*
G75*
G03*
X19596100Y-8382000I-38100J0D01*
G01*
X19596100Y-8636000D02*
G75*
G03*
X19596100Y-8636000I-38100J0D01*
G01*
X19596100Y-8890000D02*
G75*
G03*
X19596100Y-8890000I-38100J0D01*
G01*
X19596100Y-9144000D02*
G75*
G03*
X19596100Y-9144000I-38100J0D01*
G01*
X19596100Y-9398000D02*
G75*
G03*
X19596100Y-9398000I-38100J0D01*
G01*
X19596100Y-9652000D02*
G75*
G03*
X19596100Y-9652000I-38100J0D01*
G01*
X19596100Y-9906000D02*
G75*
G03*
X19596100Y-9906000I-38100J0D01*
G01*
X19596100Y-10160000D02*
G75*
G03*
X19596100Y-10160000I-38100J0D01*
G01*
X19596100Y-10414000D02*
G75*
G03*
X19596100Y-10414000I-38100J0D01*
G01*
X19596100Y-12319000D02*
G75*
G03*
X19596100Y-12319000I-38100J0D01*
G01*
X19596100Y-12573000D02*
G75*
G03*
X19596100Y-12573000I-38100J0D01*
G01*
X19596100Y-13335000D02*
G75*
G03*
X19596100Y-13335000I-38100J0D01*
G01*
X19596100Y-13589000D02*
G75*
G03*
X19596100Y-13589000I-38100J0D01*
G01*
X19596100Y-13843000D02*
G75*
G03*
X19596100Y-13843000I-38100J0D01*
G01*
X19596100Y-14097000D02*
G75*
G03*
X19596100Y-14097000I-38100J0D01*
G01*
X19596100Y-14351000D02*
G75*
G03*
X19596100Y-14351000I-38100J0D01*
G01*
X19596100Y-15113000D02*
G75*
G03*
X19596100Y-15113000I-38100J0D01*
G01*
X19596100Y-15367000D02*
G75*
G03*
X19596100Y-15367000I-38100J0D01*
G01*
X19596100Y-15621000D02*
G75*
G03*
X19596100Y-15621000I-38100J0D01*
G01*
X19596100Y-15875000D02*
G75*
G03*
X19596100Y-15875000I-38100J0D01*
G01*
X19596100Y-16129000D02*
G75*
G03*
X19596100Y-16129000I-38100J0D01*
G01*
X19596100Y-16891000D02*
G75*
G03*
X19596100Y-16891000I-38100J0D01*
G01*
X19596100Y-17145000D02*
G75*
G03*
X19596100Y-17145000I-38100J0D01*
G01*
X19850100Y-3302000D02*
G75*
G03*
X19850100Y-3302000I-38100J0D01*
G01*
X19850100Y-3556000D02*
G75*
G03*
X19850100Y-3556000I-38100J0D01*
G01*
X19850100Y-3810000D02*
G75*
G03*
X19850100Y-3810000I-38100J0D01*
G01*
X19850100Y-4064000D02*
G75*
G03*
X19850100Y-4064000I-38100J0D01*
G01*
X19850100Y-4318000D02*
G75*
G03*
X19850100Y-4318000I-38100J0D01*
G01*
X19850100Y-4572000D02*
G75*
G03*
X19850100Y-4572000I-38100J0D01*
G01*
X19850100Y-4826000D02*
G75*
G03*
X19850100Y-4826000I-38100J0D01*
G01*
X19850100Y-5080000D02*
G75*
G03*
X19850100Y-5080000I-38100J0D01*
G01*
X19850100Y-5334000D02*
G75*
G03*
X19850100Y-5334000I-38100J0D01*
G01*
X19850100Y-5588000D02*
G75*
G03*
X19850100Y-5588000I-38100J0D01*
G01*
X19850100Y-5842000D02*
G75*
G03*
X19850100Y-5842000I-38100J0D01*
G01*
X19850100Y-6096000D02*
G75*
G03*
X19850100Y-6096000I-38100J0D01*
G01*
X19850100Y-6350000D02*
G75*
G03*
X19850100Y-6350000I-38100J0D01*
G01*
X19850100Y-6604000D02*
G75*
G03*
X19850100Y-6604000I-38100J0D01*
G01*
X19850100Y-6858000D02*
G75*
G03*
X19850100Y-6858000I-38100J0D01*
G01*
X19850100Y-7112000D02*
G75*
G03*
X19850100Y-7112000I-38100J0D01*
G01*
X19850100Y-7366000D02*
G75*
G03*
X19850100Y-7366000I-38100J0D01*
G01*
X19850100Y-7620000D02*
G75*
G03*
X19850100Y-7620000I-38100J0D01*
G01*
X19850100Y-7874000D02*
G75*
G03*
X19850100Y-7874000I-38100J0D01*
G01*
X19850100Y-8128000D02*
G75*
G03*
X19850100Y-8128000I-38100J0D01*
G01*
X19850100Y-8382000D02*
G75*
G03*
X19850100Y-8382000I-38100J0D01*
G01*
X19850100Y-8636000D02*
G75*
G03*
X19850100Y-8636000I-38100J0D01*
G01*
X19850100Y-8890000D02*
G75*
G03*
X19850100Y-8890000I-38100J0D01*
G01*
X19850100Y-9144000D02*
G75*
G03*
X19850100Y-9144000I-38100J0D01*
G01*
X19850100Y-9398000D02*
G75*
G03*
X19850100Y-9398000I-38100J0D01*
G01*
X19850100Y-9652000D02*
G75*
G03*
X19850100Y-9652000I-38100J0D01*
G01*
X19850100Y-9906000D02*
G75*
G03*
X19850100Y-9906000I-38100J0D01*
G01*
X19850100Y-10160000D02*
G75*
G03*
X19850100Y-10160000I-38100J0D01*
G01*
X19850100Y-10414000D02*
G75*
G03*
X19850100Y-10414000I-38100J0D01*
G01*
X19850100Y-13335000D02*
G75*
G03*
X19850100Y-13335000I-38100J0D01*
G01*
X19850100Y-13589000D02*
G75*
G03*
X19850100Y-13589000I-38100J0D01*
G01*
X19850100Y-13843000D02*
G75*
G03*
X19850100Y-13843000I-38100J0D01*
G01*
X19850100Y-14097000D02*
G75*
G03*
X19850100Y-14097000I-38100J0D01*
G01*
X19850100Y-14351000D02*
G75*
G03*
X19850100Y-14351000I-38100J0D01*
G01*
X19850100Y-15113000D02*
G75*
G03*
X19850100Y-15113000I-38100J0D01*
G01*
X19850100Y-15367000D02*
G75*
G03*
X19850100Y-15367000I-38100J0D01*
G01*
X19850100Y-15621000D02*
G75*
G03*
X19850100Y-15621000I-38100J0D01*
G01*
X19850100Y-15875000D02*
G75*
G03*
X19850100Y-15875000I-38100J0D01*
G01*
X19850100Y-16129000D02*
G75*
G03*
X19850100Y-16129000I-38100J0D01*
G01*
X20104100Y-3302000D02*
G75*
G03*
X20104100Y-3302000I-38100J0D01*
G01*
X20104100Y-3556000D02*
G75*
G03*
X20104100Y-3556000I-38100J0D01*
G01*
X20104100Y-3810000D02*
G75*
G03*
X20104100Y-3810000I-38100J0D01*
G01*
X20104100Y-4064000D02*
G75*
G03*
X20104100Y-4064000I-38100J0D01*
G01*
X20104100Y-4318000D02*
G75*
G03*
X20104100Y-4318000I-38100J0D01*
G01*
X20104100Y-4572000D02*
G75*
G03*
X20104100Y-4572000I-38100J0D01*
G01*
X20104100Y-4826000D02*
G75*
G03*
X20104100Y-4826000I-38100J0D01*
G01*
X20104100Y-5080000D02*
G75*
G03*
X20104100Y-5080000I-38100J0D01*
G01*
X20104100Y-5334000D02*
G75*
G03*
X20104100Y-5334000I-38100J0D01*
G01*
X20104100Y-5588000D02*
G75*
G03*
X20104100Y-5588000I-38100J0D01*
G01*
X20104100Y-5842000D02*
G75*
G03*
X20104100Y-5842000I-38100J0D01*
G01*
X20104100Y-6096000D02*
G75*
G03*
X20104100Y-6096000I-38100J0D01*
G01*
X20104100Y-6350000D02*
G75*
G03*
X20104100Y-6350000I-38100J0D01*
G01*
X20104100Y-6604000D02*
G75*
G03*
X20104100Y-6604000I-38100J0D01*
G01*
X20104100Y-6858000D02*
G75*
G03*
X20104100Y-6858000I-38100J0D01*
G01*
X20104100Y-7112000D02*
G75*
G03*
X20104100Y-7112000I-38100J0D01*
G01*
X20104100Y-7366000D02*
G75*
G03*
X20104100Y-7366000I-38100J0D01*
G01*
X20104100Y-7620000D02*
G75*
G03*
X20104100Y-7620000I-38100J0D01*
G01*
X20104100Y-7874000D02*
G75*
G03*
X20104100Y-7874000I-38100J0D01*
G01*
X20104100Y-8128000D02*
G75*
G03*
X20104100Y-8128000I-38100J0D01*
G01*
X20104100Y-8382000D02*
G75*
G03*
X20104100Y-8382000I-38100J0D01*
G01*
X20104100Y-8636000D02*
G75*
G03*
X20104100Y-8636000I-38100J0D01*
G01*
X20104100Y-8890000D02*
G75*
G03*
X20104100Y-8890000I-38100J0D01*
G01*
X20104100Y-9144000D02*
G75*
G03*
X20104100Y-9144000I-38100J0D01*
G01*
X20104100Y-9398000D02*
G75*
G03*
X20104100Y-9398000I-38100J0D01*
G01*
X20104100Y-9652000D02*
G75*
G03*
X20104100Y-9652000I-38100J0D01*
G01*
X20104100Y-9906000D02*
G75*
G03*
X20104100Y-9906000I-38100J0D01*
G01*
X20104100Y-10160000D02*
G75*
G03*
X20104100Y-10160000I-38100J0D01*
G01*
X20104100Y-10414000D02*
G75*
G03*
X20104100Y-10414000I-38100J0D01*
G01*
X20104100Y-12319000D02*
G75*
G03*
X20104100Y-12319000I-38100J0D01*
G01*
X20104100Y-12573000D02*
G75*
G03*
X20104100Y-12573000I-38100J0D01*
G01*
X20104100Y-13335000D02*
G75*
G03*
X20104100Y-13335000I-38100J0D01*
G01*
X20104100Y-13589000D02*
G75*
G03*
X20104100Y-13589000I-38100J0D01*
G01*
X20104100Y-13843000D02*
G75*
G03*
X20104100Y-13843000I-38100J0D01*
G01*
X20104100Y-14097000D02*
G75*
G03*
X20104100Y-14097000I-38100J0D01*
G01*
X20104100Y-14351000D02*
G75*
G03*
X20104100Y-14351000I-38100J0D01*
G01*
X20104100Y-15113000D02*
G75*
G03*
X20104100Y-15113000I-38100J0D01*
G01*
X20104100Y-15367000D02*
G75*
G03*
X20104100Y-15367000I-38100J0D01*
G01*
X20104100Y-15621000D02*
G75*
G03*
X20104100Y-15621000I-38100J0D01*
G01*
X20104100Y-15875000D02*
G75*
G03*
X20104100Y-15875000I-38100J0D01*
G01*
X20104100Y-16129000D02*
G75*
G03*
X20104100Y-16129000I-38100J0D01*
G01*
X20104100Y-16891000D02*
G75*
G03*
X20104100Y-16891000I-38100J0D01*
G01*
X20104100Y-17145000D02*
G75*
G03*
X20104100Y-17145000I-38100J0D01*
G01*
X20358100Y-3302000D02*
G75*
G03*
X20358100Y-3302000I-38100J0D01*
G01*
X20358100Y-3556000D02*
G75*
G03*
X20358100Y-3556000I-38100J0D01*
G01*
X20358100Y-3810000D02*
G75*
G03*
X20358100Y-3810000I-38100J0D01*
G01*
X20358100Y-4064000D02*
G75*
G03*
X20358100Y-4064000I-38100J0D01*
G01*
X20358100Y-4318000D02*
G75*
G03*
X20358100Y-4318000I-38100J0D01*
G01*
X20358100Y-4572000D02*
G75*
G03*
X20358100Y-4572000I-38100J0D01*
G01*
X20358100Y-4826000D02*
G75*
G03*
X20358100Y-4826000I-38100J0D01*
G01*
X20358100Y-5080000D02*
G75*
G03*
X20358100Y-5080000I-38100J0D01*
G01*
X20358100Y-5334000D02*
G75*
G03*
X20358100Y-5334000I-38100J0D01*
G01*
X20358100Y-5588000D02*
G75*
G03*
X20358100Y-5588000I-38100J0D01*
G01*
X20358100Y-5842000D02*
G75*
G03*
X20358100Y-5842000I-38100J0D01*
G01*
X20358100Y-6096000D02*
G75*
G03*
X20358100Y-6096000I-38100J0D01*
G01*
X20358100Y-6350000D02*
G75*
G03*
X20358100Y-6350000I-38100J0D01*
G01*
X20358100Y-6604000D02*
G75*
G03*
X20358100Y-6604000I-38100J0D01*
G01*
X20358100Y-6858000D02*
G75*
G03*
X20358100Y-6858000I-38100J0D01*
G01*
X20358100Y-7112000D02*
G75*
G03*
X20358100Y-7112000I-38100J0D01*
G01*
X20358100Y-7366000D02*
G75*
G03*
X20358100Y-7366000I-38100J0D01*
G01*
X20358100Y-7620000D02*
G75*
G03*
X20358100Y-7620000I-38100J0D01*
G01*
X20358100Y-7874000D02*
G75*
G03*
X20358100Y-7874000I-38100J0D01*
G01*
X20358100Y-8128000D02*
G75*
G03*
X20358100Y-8128000I-38100J0D01*
G01*
X20358100Y-8382000D02*
G75*
G03*
X20358100Y-8382000I-38100J0D01*
G01*
X20358100Y-8636000D02*
G75*
G03*
X20358100Y-8636000I-38100J0D01*
G01*
X20358100Y-8890000D02*
G75*
G03*
X20358100Y-8890000I-38100J0D01*
G01*
X20358100Y-9144000D02*
G75*
G03*
X20358100Y-9144000I-38100J0D01*
G01*
X20358100Y-9398000D02*
G75*
G03*
X20358100Y-9398000I-38100J0D01*
G01*
X20358100Y-9652000D02*
G75*
G03*
X20358100Y-9652000I-38100J0D01*
G01*
X20358100Y-9906000D02*
G75*
G03*
X20358100Y-9906000I-38100J0D01*
G01*
X20358100Y-10160000D02*
G75*
G03*
X20358100Y-10160000I-38100J0D01*
G01*
X20358100Y-10414000D02*
G75*
G03*
X20358100Y-10414000I-38100J0D01*
G01*
X20358100Y-12319000D02*
G75*
G03*
X20358100Y-12319000I-38100J0D01*
G01*
X20358100Y-12573000D02*
G75*
G03*
X20358100Y-12573000I-38100J0D01*
G01*
X20358100Y-13335000D02*
G75*
G03*
X20358100Y-13335000I-38100J0D01*
G01*
X20358100Y-13589000D02*
G75*
G03*
X20358100Y-13589000I-38100J0D01*
G01*
X20358100Y-13843000D02*
G75*
G03*
X20358100Y-13843000I-38100J0D01*
G01*
X20358100Y-14097000D02*
G75*
G03*
X20358100Y-14097000I-38100J0D01*
G01*
X20358100Y-14351000D02*
G75*
G03*
X20358100Y-14351000I-38100J0D01*
G01*
X20358100Y-15113000D02*
G75*
G03*
X20358100Y-15113000I-38100J0D01*
G01*
X20358100Y-15367000D02*
G75*
G03*
X20358100Y-15367000I-38100J0D01*
G01*
X20358100Y-15621000D02*
G75*
G03*
X20358100Y-15621000I-38100J0D01*
G01*
X20358100Y-15875000D02*
G75*
G03*
X20358100Y-15875000I-38100J0D01*
G01*
X20358100Y-16129000D02*
G75*
G03*
X20358100Y-16129000I-38100J0D01*
G01*
X20358100Y-16891000D02*
G75*
G03*
X20358100Y-16891000I-38100J0D01*
G01*
X20358100Y-17145000D02*
G75*
G03*
X20358100Y-17145000I-38100J0D01*
G01*
X20612100Y-12319000D02*
G75*
G03*
X20612100Y-12319000I-38100J0D01*
G01*
X20612100Y-12573000D02*
G75*
G03*
X20612100Y-12573000I-38100J0D01*
G01*
X20612100Y-13335000D02*
G75*
G03*
X20612100Y-13335000I-38100J0D01*
G01*
X20612100Y-13589000D02*
G75*
G03*
X20612100Y-13589000I-38100J0D01*
G01*
X20612100Y-13843000D02*
G75*
G03*
X20612100Y-13843000I-38100J0D01*
G01*
X20612100Y-14097000D02*
G75*
G03*
X20612100Y-14097000I-38100J0D01*
G01*
X20612100Y-14351000D02*
G75*
G03*
X20612100Y-14351000I-38100J0D01*
G01*
X20612100Y-15113000D02*
G75*
G03*
X20612100Y-15113000I-38100J0D01*
G01*
X20612100Y-15367000D02*
G75*
G03*
X20612100Y-15367000I-38100J0D01*
G01*
X20612100Y-15621000D02*
G75*
G03*
X20612100Y-15621000I-38100J0D01*
G01*
X20612100Y-15875000D02*
G75*
G03*
X20612100Y-15875000I-38100J0D01*
G01*
X20612100Y-16129000D02*
G75*
G03*
X20612100Y-16129000I-38100J0D01*
G01*
X20612100Y-16891000D02*
G75*
G03*
X20612100Y-16891000I-38100J0D01*
G01*
X20612100Y-17145000D02*
G75*
G03*
X20612100Y-17145000I-38100J0D01*
G01*
X20866100Y-12319000D02*
G75*
G03*
X20866100Y-12319000I-38100J0D01*
G01*
X20866100Y-12573000D02*
G75*
G03*
X20866100Y-12573000I-38100J0D01*
G01*
X20866100Y-13335000D02*
G75*
G03*
X20866100Y-13335000I-38100J0D01*
G01*
X20866100Y-13589000D02*
G75*
G03*
X20866100Y-13589000I-38100J0D01*
G01*
X20866100Y-13843000D02*
G75*
G03*
X20866100Y-13843000I-38100J0D01*
G01*
X20866100Y-14097000D02*
G75*
G03*
X20866100Y-14097000I-38100J0D01*
G01*
X20866100Y-14351000D02*
G75*
G03*
X20866100Y-14351000I-38100J0D01*
G01*
X20866100Y-15113000D02*
G75*
G03*
X20866100Y-15113000I-38100J0D01*
G01*
X20866100Y-15367000D02*
G75*
G03*
X20866100Y-15367000I-38100J0D01*
G01*
X20866100Y-15621000D02*
G75*
G03*
X20866100Y-15621000I-38100J0D01*
G01*
X20866100Y-15875000D02*
G75*
G03*
X20866100Y-15875000I-38100J0D01*
G01*
X20866100Y-16129000D02*
G75*
G03*
X20866100Y-16129000I-38100J0D01*
G01*
X20866100Y-16891000D02*
G75*
G03*
X20866100Y-16891000I-38100J0D01*
G01*
X20866100Y-17145000D02*
G75*
G03*
X20866100Y-17145000I-38100J0D01*
G01*
X21120100Y-3302000D02*
G75*
G03*
X21120100Y-3302000I-38100J0D01*
G01*
X21120100Y-3556000D02*
G75*
G03*
X21120100Y-3556000I-38100J0D01*
G01*
X21120100Y-3810000D02*
G75*
G03*
X21120100Y-3810000I-38100J0D01*
G01*
X21120100Y-4064000D02*
G75*
G03*
X21120100Y-4064000I-38100J0D01*
G01*
X21120100Y-4318000D02*
G75*
G03*
X21120100Y-4318000I-38100J0D01*
G01*
X21120100Y-4826000D02*
G75*
G03*
X21120100Y-4826000I-38100J0D01*
G01*
X21120100Y-5080000D02*
G75*
G03*
X21120100Y-5080000I-38100J0D01*
G01*
X21120100Y-5334000D02*
G75*
G03*
X21120100Y-5334000I-38100J0D01*
G01*
X21120100Y-5588000D02*
G75*
G03*
X21120100Y-5588000I-38100J0D01*
G01*
X21120100Y-5842000D02*
G75*
G03*
X21120100Y-5842000I-38100J0D01*
G01*
X21120100Y-6350000D02*
G75*
G03*
X21120100Y-6350000I-38100J0D01*
G01*
X21120100Y-6604000D02*
G75*
G03*
X21120100Y-6604000I-38100J0D01*
G01*
X21120100Y-6858000D02*
G75*
G03*
X21120100Y-6858000I-38100J0D01*
G01*
X21120100Y-7112000D02*
G75*
G03*
X21120100Y-7112000I-38100J0D01*
G01*
X21120100Y-7366000D02*
G75*
G03*
X21120100Y-7366000I-38100J0D01*
G01*
X21120100Y-7874000D02*
G75*
G03*
X21120100Y-7874000I-38100J0D01*
G01*
X21120100Y-8128000D02*
G75*
G03*
X21120100Y-8128000I-38100J0D01*
G01*
X21120100Y-8382000D02*
G75*
G03*
X21120100Y-8382000I-38100J0D01*
G01*
X21120100Y-8636000D02*
G75*
G03*
X21120100Y-8636000I-38100J0D01*
G01*
X21120100Y-8890000D02*
G75*
G03*
X21120100Y-8890000I-38100J0D01*
G01*
X21120100Y-9398000D02*
G75*
G03*
X21120100Y-9398000I-38100J0D01*
G01*
X21120100Y-9652000D02*
G75*
G03*
X21120100Y-9652000I-38100J0D01*
G01*
X21120100Y-9906000D02*
G75*
G03*
X21120100Y-9906000I-38100J0D01*
G01*
X21120100Y-10160000D02*
G75*
G03*
X21120100Y-10160000I-38100J0D01*
G01*
X21120100Y-10414000D02*
G75*
G03*
X21120100Y-10414000I-38100J0D01*
G01*
X21120100Y-12319000D02*
G75*
G03*
X21120100Y-12319000I-38100J0D01*
G01*
X21120100Y-12573000D02*
G75*
G03*
X21120100Y-12573000I-38100J0D01*
G01*
X21120100Y-13335000D02*
G75*
G03*
X21120100Y-13335000I-38100J0D01*
G01*
X21120100Y-13589000D02*
G75*
G03*
X21120100Y-13589000I-38100J0D01*
G01*
X21120100Y-13843000D02*
G75*
G03*
X21120100Y-13843000I-38100J0D01*
G01*
X21120100Y-14097000D02*
G75*
G03*
X21120100Y-14097000I-38100J0D01*
G01*
X21120100Y-14351000D02*
G75*
G03*
X21120100Y-14351000I-38100J0D01*
G01*
X21120100Y-15113000D02*
G75*
G03*
X21120100Y-15113000I-38100J0D01*
G01*
X21120100Y-15367000D02*
G75*
G03*
X21120100Y-15367000I-38100J0D01*
G01*
X21120100Y-15621000D02*
G75*
G03*
X21120100Y-15621000I-38100J0D01*
G01*
X21120100Y-15875000D02*
G75*
G03*
X21120100Y-15875000I-38100J0D01*
G01*
X21120100Y-16129000D02*
G75*
G03*
X21120100Y-16129000I-38100J0D01*
G01*
X21120100Y-16891000D02*
G75*
G03*
X21120100Y-16891000I-38100J0D01*
G01*
X21120100Y-17145000D02*
G75*
G03*
X21120100Y-17145000I-38100J0D01*
G01*
X21374100Y-3302000D02*
G75*
G03*
X21374100Y-3302000I-38100J0D01*
G01*
X21374100Y-3556000D02*
G75*
G03*
X21374100Y-3556000I-38100J0D01*
G01*
X21374100Y-3810000D02*
G75*
G03*
X21374100Y-3810000I-38100J0D01*
G01*
X21374100Y-4064000D02*
G75*
G03*
X21374100Y-4064000I-38100J0D01*
G01*
X21374100Y-4318000D02*
G75*
G03*
X21374100Y-4318000I-38100J0D01*
G01*
X21374100Y-4826000D02*
G75*
G03*
X21374100Y-4826000I-38100J0D01*
G01*
X21374100Y-5080000D02*
G75*
G03*
X21374100Y-5080000I-38100J0D01*
G01*
X21374100Y-5334000D02*
G75*
G03*
X21374100Y-5334000I-38100J0D01*
G01*
X21374100Y-5588000D02*
G75*
G03*
X21374100Y-5588000I-38100J0D01*
G01*
X21374100Y-5842000D02*
G75*
G03*
X21374100Y-5842000I-38100J0D01*
G01*
X21374100Y-6350000D02*
G75*
G03*
X21374100Y-6350000I-38100J0D01*
G01*
X21374100Y-6604000D02*
G75*
G03*
X21374100Y-6604000I-38100J0D01*
G01*
X21374100Y-6858000D02*
G75*
G03*
X21374100Y-6858000I-38100J0D01*
G01*
X21374100Y-7112000D02*
G75*
G03*
X21374100Y-7112000I-38100J0D01*
G01*
X21374100Y-7366000D02*
G75*
G03*
X21374100Y-7366000I-38100J0D01*
G01*
X21374100Y-7874000D02*
G75*
G03*
X21374100Y-7874000I-38100J0D01*
G01*
X21374100Y-8128000D02*
G75*
G03*
X21374100Y-8128000I-38100J0D01*
G01*
X21374100Y-8382000D02*
G75*
G03*
X21374100Y-8382000I-38100J0D01*
G01*
X21374100Y-8636000D02*
G75*
G03*
X21374100Y-8636000I-38100J0D01*
G01*
X21374100Y-8890000D02*
G75*
G03*
X21374100Y-8890000I-38100J0D01*
G01*
X21374100Y-9398000D02*
G75*
G03*
X21374100Y-9398000I-38100J0D01*
G01*
X21374100Y-9652000D02*
G75*
G03*
X21374100Y-9652000I-38100J0D01*
G01*
X21374100Y-9906000D02*
G75*
G03*
X21374100Y-9906000I-38100J0D01*
G01*
X21374100Y-10160000D02*
G75*
G03*
X21374100Y-10160000I-38100J0D01*
G01*
X21374100Y-10414000D02*
G75*
G03*
X21374100Y-10414000I-38100J0D01*
G01*
D14*
X6223000Y-6818000D02*
X6223000Y-6898000D01*
X6183000Y-6858000D02*
X6263000Y-6858000D01*
X6223000Y-7707000D02*
X6223000Y-7787000D01*
X6183000Y-7747000D02*
X6263000Y-7747000D01*
X6223000Y-8596000D02*
X6223000Y-8676000D01*
X6183000Y-8636000D02*
X6263000Y-8636000D01*
X6477000Y-4405000D02*
X6477000Y-4485000D01*
X6437000Y-4445000D02*
X6517000Y-4445000D01*
X6477000Y-5929000D02*
X6477000Y-6009000D01*
X6437000Y-5969000D02*
X6517000Y-5969000D01*
X7239000Y-4405000D02*
X7239000Y-4485000D01*
X7199000Y-4445000D02*
X7279000Y-4445000D01*
X7239000Y-5929000D02*
X7239000Y-6009000D01*
X7199000Y-5969000D02*
X7279000Y-5969000D01*
X7243000Y-9612000D02*
X7243000Y-9692000D01*
X7203000Y-9652000D02*
X7283000Y-9652000D01*
X7493000Y-6818000D02*
X7493000Y-6898000D01*
X7453000Y-6858000D02*
X7533000Y-6858000D01*
X7493000Y-7707000D02*
X7493000Y-7787000D01*
X7453000Y-7747000D02*
X7533000Y-7747000D01*
X7493000Y-8596000D02*
X7493000Y-8676000D01*
X7453000Y-8636000D02*
X7533000Y-8636000D01*
X7493000Y-9612000D02*
X7493000Y-9692000D01*
X7453000Y-9652000D02*
X7533000Y-9652000D01*
X8459200Y-4810400D02*
X8459200Y-4890400D01*
X8419200Y-4850400D02*
X8499200Y-4850400D01*
X8459200Y-5064400D02*
X8459200Y-5144400D01*
X8419200Y-5104400D02*
X8499200Y-5104400D01*
X8459200Y-5318400D02*
X8459200Y-5398400D01*
X8419200Y-5358400D02*
X8499200Y-5358400D01*
X8459200Y-5572400D02*
X8459200Y-5652400D01*
X8419200Y-5612400D02*
X8499200Y-5612400D01*
X8459200Y-5826400D02*
X8459200Y-5906400D01*
X8419200Y-5866400D02*
X8499200Y-5866400D01*
X8459200Y-6080400D02*
X8459200Y-6160400D01*
X8419200Y-6120400D02*
X8499200Y-6120400D01*
X8459200Y-6334400D02*
X8459200Y-6414400D01*
X8419200Y-6374400D02*
X8499200Y-6374400D01*
X8459200Y-6588400D02*
X8459200Y-6668400D01*
X8419200Y-6628400D02*
X8499200Y-6628400D01*
X8459200Y-6842400D02*
X8459200Y-6922400D01*
X8419200Y-6882400D02*
X8499200Y-6882400D01*
X8459200Y-7096400D02*
X8459200Y-7176400D01*
X8419200Y-7136400D02*
X8499200Y-7136400D01*
X8459200Y-7350400D02*
X8459200Y-7430400D01*
X8419200Y-7390400D02*
X8499200Y-7390400D01*
X8459200Y-7604400D02*
X8459200Y-7684400D01*
X8419200Y-7644400D02*
X8499200Y-7644400D01*
X8459200Y-7858400D02*
X8459200Y-7938400D01*
X8419200Y-7898400D02*
X8499200Y-7898400D01*
X8459200Y-8112400D02*
X8459200Y-8192400D01*
X8419200Y-8152400D02*
X8499200Y-8152400D01*
X8459200Y-8366400D02*
X8459200Y-8446400D01*
X8419200Y-8406400D02*
X8499200Y-8406400D01*
X8459200Y-8620400D02*
X8459200Y-8700400D01*
X8419200Y-8660400D02*
X8499200Y-8660400D01*
X8459200Y-8874400D02*
X8459200Y-8954400D01*
X8419200Y-8914400D02*
X8499200Y-8914400D01*
X8459200Y-9128400D02*
X8459200Y-9208400D01*
X8419200Y-9168400D02*
X8499200Y-9168400D01*
X8459200Y-9382400D02*
X8459200Y-9462400D01*
X8419200Y-9422400D02*
X8499200Y-9422400D01*
X8459200Y-9636400D02*
X8459200Y-9716400D01*
X8419200Y-9676400D02*
X8499200Y-9676400D01*
X9073300Y-4428900D02*
X9073300Y-4508900D01*
X9033300Y-4468900D02*
X9113300Y-4468900D01*
X9323300Y-4428900D02*
X9323300Y-4508900D01*
X9283300Y-4468900D02*
X9363300Y-4468900D01*
X9983200Y-4810400D02*
X9983200Y-4890400D01*
X9943200Y-4850400D02*
X10023200Y-4850400D01*
X9983200Y-5064400D02*
X9983200Y-5144400D01*
X9943200Y-5104400D02*
X10023200Y-5104400D01*
X9983200Y-5318400D02*
X9983200Y-5398400D01*
X9943200Y-5358400D02*
X10023200Y-5358400D01*
X9983200Y-5572400D02*
X9983200Y-5652400D01*
X9943200Y-5612400D02*
X10023200Y-5612400D01*
X9983200Y-5826400D02*
X9983200Y-5906400D01*
X9943200Y-5866400D02*
X10023200Y-5866400D01*
X9983200Y-6080400D02*
X9983200Y-6160400D01*
X9943200Y-6120400D02*
X10023200Y-6120400D01*
X9983200Y-6334400D02*
X9983200Y-6414400D01*
X9943200Y-6374400D02*
X10023200Y-6374400D01*
X9983200Y-6588400D02*
X9983200Y-6668400D01*
X9943200Y-6628400D02*
X10023200Y-6628400D01*
X9983200Y-6842400D02*
X9983200Y-6922400D01*
X9943200Y-6882400D02*
X10023200Y-6882400D01*
X9983200Y-7096400D02*
X9983200Y-7176400D01*
X9943200Y-7136400D02*
X10023200Y-7136400D01*
X9983200Y-7350400D02*
X9983200Y-7430400D01*
X9943200Y-7390400D02*
X10023200Y-7390400D01*
X9983200Y-7604400D02*
X9983200Y-7684400D01*
X9943200Y-7644400D02*
X10023200Y-7644400D01*
X9983200Y-7858400D02*
X9983200Y-7938400D01*
X9943200Y-7898400D02*
X10023200Y-7898400D01*
X9983200Y-8112400D02*
X9983200Y-8192400D01*
X9943200Y-8152400D02*
X10023200Y-8152400D01*
X9983200Y-8366400D02*
X9983200Y-8446400D01*
X9943200Y-8406400D02*
X10023200Y-8406400D01*
X9983200Y-8620400D02*
X9983200Y-8700400D01*
X9943200Y-8660400D02*
X10023200Y-8660400D01*
X9983200Y-8874400D02*
X9983200Y-8954400D01*
X9943200Y-8914400D02*
X10023200Y-8914400D01*
X9983200Y-9128400D02*
X9983200Y-9208400D01*
X9943200Y-9168400D02*
X10023200Y-9168400D01*
X9983200Y-9382400D02*
X9983200Y-9462400D01*
X9943200Y-9422400D02*
X10023200Y-9422400D01*
X9983200Y-9636400D02*
X9983200Y-9716400D01*
X9943200Y-9676400D02*
X10023200Y-9676400D01*
X10644100Y-5448900D02*
X10644100Y-5528900D01*
X10604100Y-5488900D02*
X10684100Y-5488900D01*
X10644100Y-5698900D02*
X10644100Y-5778900D01*
X10604100Y-5738900D02*
X10684100Y-5738900D01*
X10644100Y-7476900D02*
X10644100Y-7556900D01*
X10604100Y-7516900D02*
X10684100Y-7516900D01*
X10644100Y-7726900D02*
X10644100Y-7806900D01*
X10604100Y-7766900D02*
X10684100Y-7766900D01*
X10998200Y-4810400D02*
X10998200Y-4890400D01*
X10958200Y-4850400D02*
X11038200Y-4850400D01*
X10998200Y-6334400D02*
X10998200Y-6414400D01*
X10958200Y-6374400D02*
X11038200Y-6374400D01*
X10998200Y-6842400D02*
X10998200Y-6922400D01*
X10958200Y-6882400D02*
X11038200Y-6882400D01*
X10998200Y-8366400D02*
X10998200Y-8446400D01*
X10958200Y-8406400D02*
X11038200Y-8406400D01*
X11252200Y-4810400D02*
X11252200Y-4890400D01*
X11212200Y-4850400D02*
X11292200Y-4850400D01*
X11252200Y-6334400D02*
X11252200Y-6414400D01*
X11212200Y-6374400D02*
X11292200Y-6374400D01*
X11252200Y-6842400D02*
X11252200Y-6922400D01*
X11212200Y-6882400D02*
X11292200Y-6882400D01*
X11252200Y-8366400D02*
X11252200Y-8446400D01*
X11212200Y-8406400D02*
X11292200Y-8406400D01*
X11506200Y-4810400D02*
X11506200Y-4890400D01*
X11466200Y-4850400D02*
X11546200Y-4850400D01*
X11506200Y-6334400D02*
X11506200Y-6414400D01*
X11466200Y-6374400D02*
X11546200Y-6374400D01*
X11506200Y-6842400D02*
X11506200Y-6922400D01*
X11466200Y-6882400D02*
X11546200Y-6882400D01*
X11506200Y-8366400D02*
X11506200Y-8446400D01*
X11466200Y-8406400D02*
X11546200Y-8406400D01*
X11760200Y-4810400D02*
X11760200Y-4890400D01*
X11720200Y-4850400D02*
X11800200Y-4850400D01*
X11760200Y-6334400D02*
X11760200Y-6414400D01*
X11720200Y-6374400D02*
X11800200Y-6374400D01*
X11760200Y-6842400D02*
X11760200Y-6922400D01*
X11720200Y-6882400D02*
X11800200Y-6882400D01*
X11760200Y-8366400D02*
X11760200Y-8446400D01*
X11720200Y-8406400D02*
X11800200Y-8406400D01*
X12014200Y-4810400D02*
X12014200Y-4890400D01*
X11974200Y-4850400D02*
X12054200Y-4850400D01*
X12014200Y-6334400D02*
X12014200Y-6414400D01*
X11974200Y-6374400D02*
X12054200Y-6374400D01*
X12014200Y-6842400D02*
X12014200Y-6922400D01*
X11974200Y-6882400D02*
X12054200Y-6882400D01*
X12014200Y-8366400D02*
X12014200Y-8446400D01*
X11974200Y-8406400D02*
X12054200Y-8406400D01*
X12268200Y-4810400D02*
X12268200Y-4890400D01*
X12228200Y-4850400D02*
X12308200Y-4850400D01*
X12268200Y-6334400D02*
X12268200Y-6414400D01*
X12228200Y-6374400D02*
X12308200Y-6374400D01*
X12268200Y-6842400D02*
X12268200Y-6922400D01*
X12228200Y-6882400D02*
X12308200Y-6882400D01*
X12268200Y-8366400D02*
X12268200Y-8446400D01*
X12228200Y-8406400D02*
X12308200Y-8406400D01*
X12522200Y-4810400D02*
X12522200Y-4890400D01*
X12482200Y-4850400D02*
X12562200Y-4850400D01*
X12522200Y-6334400D02*
X12522200Y-6414400D01*
X12482200Y-6374400D02*
X12562200Y-6374400D01*
X12522200Y-6842400D02*
X12522200Y-6922400D01*
X12482200Y-6882400D02*
X12562200Y-6882400D01*
X12522200Y-8366400D02*
X12522200Y-8446400D01*
X12482200Y-8406400D02*
X12562200Y-8406400D01*
X12776200Y-4810400D02*
X12776200Y-4890400D01*
X12736200Y-4850400D02*
X12816200Y-4850400D01*
X12776200Y-6334400D02*
X12776200Y-6414400D01*
X12736200Y-6374400D02*
X12816200Y-6374400D01*
X12776200Y-6842400D02*
X12776200Y-6922400D01*
X12736200Y-6882400D02*
X12816200Y-6882400D01*
X12776200Y-8366400D02*
X12776200Y-8446400D01*
X12736200Y-8406400D02*
X12816200Y-8406400D01*
X13030200Y-4810400D02*
X13030200Y-4890400D01*
X12990200Y-4850400D02*
X13070200Y-4850400D01*
X13030200Y-6334400D02*
X13030200Y-6414400D01*
X12990200Y-6374400D02*
X13070200Y-6374400D01*
X13030200Y-6842400D02*
X13030200Y-6922400D01*
X12990200Y-6882400D02*
X13070200Y-6882400D01*
X13030200Y-8366400D02*
X13030200Y-8446400D01*
X12990200Y-8406400D02*
X13070200Y-8406400D01*
X13284200Y-4810400D02*
X13284200Y-4890400D01*
X13244200Y-4850400D02*
X13324200Y-4850400D01*
X13284200Y-6334400D02*
X13284200Y-6414400D01*
X13244200Y-6374400D02*
X13324200Y-6374400D01*
X13284200Y-6842400D02*
X13284200Y-6922400D01*
X13244200Y-6882400D02*
X13324200Y-6882400D01*
X13284200Y-8366400D02*
X13284200Y-8446400D01*
X13244200Y-8406400D02*
X13324200Y-8406400D01*
X13538200Y-4810400D02*
X13538200Y-4890400D01*
X13498200Y-4850400D02*
X13578200Y-4850400D01*
X13538200Y-6334400D02*
X13538200Y-6414400D01*
X13498200Y-6374400D02*
X13578200Y-6374400D01*
X13538200Y-6842400D02*
X13538200Y-6922400D01*
X13498200Y-6882400D02*
X13578200Y-6882400D01*
X13538200Y-8366400D02*
X13538200Y-8446400D01*
X13498200Y-8406400D02*
X13578200Y-8406400D01*
X13792200Y-4810400D02*
X13792200Y-4890400D01*
X13752200Y-4850400D02*
X13832200Y-4850400D01*
X13792200Y-6334400D02*
X13792200Y-6414400D01*
X13752200Y-6374400D02*
X13832200Y-6374400D01*
X13792200Y-6842400D02*
X13792200Y-6922400D01*
X13752200Y-6882400D02*
X13832200Y-6882400D01*
X13792200Y-8366400D02*
X13792200Y-8446400D01*
X13752200Y-8406400D02*
X13832200Y-8406400D01*
X14046200Y-4810400D02*
X14046200Y-4890400D01*
X14006200Y-4850400D02*
X14086200Y-4850400D01*
X14046200Y-6334400D02*
X14046200Y-6414400D01*
X14006200Y-6374400D02*
X14086200Y-6374400D01*
X14046200Y-6842400D02*
X14046200Y-6922400D01*
X14006200Y-6882400D02*
X14086200Y-6882400D01*
X14046200Y-8366400D02*
X14046200Y-8446400D01*
X14006200Y-8406400D02*
X14086200Y-8406400D01*
X14300200Y-4810400D02*
X14300200Y-4890400D01*
X14260200Y-4850400D02*
X14340200Y-4850400D01*
X14300200Y-6334400D02*
X14300200Y-6414400D01*
X14260200Y-6374400D02*
X14340200Y-6374400D01*
X14300200Y-6842400D02*
X14300200Y-6922400D01*
X14260200Y-6882400D02*
X14340200Y-6882400D01*
X14300200Y-8366400D02*
X14300200Y-8446400D01*
X14260200Y-8406400D02*
X14340200Y-8406400D01*
D15*
X8036588Y-3560338D02*
X8036588Y-3493162D01*
X7969412Y-3493162D01*
X7969412Y-3560338D01*
X8036588Y-3560338D01*
X8036588Y-3760338D02*
X8036588Y-3693162D01*
X7969412Y-3693162D01*
X7969412Y-3760338D01*
X8036588Y-3760338D01*
X8286588Y-3560338D02*
X8286588Y-3493162D01*
X8219412Y-3493162D01*
X8219412Y-3560338D01*
X8286588Y-3560338D01*
X8286588Y-3760338D02*
X8286588Y-3693162D01*
X8219412Y-3693162D01*
X8219412Y-3760338D01*
X8286588Y-3760338D01*
D16*
X6350000Y-11480000D02*
X6400000Y-11430000D01*
X6350000Y-11380000D01*
X6300000Y-11430000D01*
X6350000Y-11480000D01*
X6604000Y-11480000D02*
X6654000Y-11430000D01*
X6604000Y-11380000D01*
X6554000Y-11430000D01*
X6604000Y-11480000D01*
X6858000Y-11480000D02*
X6908000Y-11430000D01*
X6858000Y-11380000D01*
X6808000Y-11430000D01*
X6858000Y-11480000D01*
X7112000Y-11480000D02*
X7162000Y-11430000D01*
X7112000Y-11380000D01*
X7062000Y-11430000D01*
X7112000Y-11480000D01*
X7366000Y-11480000D02*
X7416000Y-11430000D01*
X7366000Y-11380000D01*
X7316000Y-11430000D01*
X7366000Y-11480000D01*
X7620000Y-11480000D02*
X7670000Y-11430000D01*
X7620000Y-11380000D01*
X7570000Y-11430000D01*
X7620000Y-11480000D01*
X7874000Y-11480000D02*
X7924000Y-11430000D01*
X7874000Y-11380000D01*
X7824000Y-11430000D01*
X7874000Y-11480000D01*
X8128000Y-11480000D02*
X8178000Y-11430000D01*
X8128000Y-11380000D01*
X8078000Y-11430000D01*
X8128000Y-11480000D01*
X8382000Y-11480000D02*
X8432000Y-11430000D01*
X8382000Y-11380000D01*
X8332000Y-11430000D01*
X8382000Y-11480000D01*
X8636000Y-11480000D02*
X8686000Y-11430000D01*
X8636000Y-11380000D01*
X8586000Y-11430000D01*
X8636000Y-11480000D01*
X9398000Y-11480000D02*
X9448000Y-11430000D01*
X9398000Y-11380000D01*
X9348000Y-11430000D01*
X9398000Y-11480000D01*
X9652000Y-11480000D02*
X9702000Y-11430000D01*
X9652000Y-11380000D01*
X9602000Y-11430000D01*
X9652000Y-11480000D01*
X9906000Y-11480000D02*
X9956000Y-11430000D01*
X9906000Y-11380000D01*
X9856000Y-11430000D01*
X9906000Y-11480000D01*
X10160000Y-11480000D02*
X10210000Y-11430000D01*
X10160000Y-11380000D01*
X10110000Y-11430000D01*
X10160000Y-11480000D01*
X10414000Y-11480000D02*
X10464000Y-11430000D01*
X10414000Y-11380000D01*
X10364000Y-11430000D01*
X10414000Y-11480000D01*
X10668000Y-11480000D02*
X10718000Y-11430000D01*
X10668000Y-11380000D01*
X10618000Y-11430000D01*
X10668000Y-11480000D01*
X10922000Y-11480000D02*
X10972000Y-11430000D01*
X10922000Y-11380000D01*
X10872000Y-11430000D01*
X10922000Y-11480000D01*
X11176000Y-11480000D02*
X11226000Y-11430000D01*
X11176000Y-11380000D01*
X11126000Y-11430000D01*
X11176000Y-11480000D01*
X11430000Y-11480000D02*
X11480000Y-11430000D01*
X11430000Y-11380000D01*
X11380000Y-11430000D01*
X11430000Y-11480000D01*
X11684000Y-11480000D02*
X11734000Y-11430000D01*
X11684000Y-11380000D01*
X11634000Y-11430000D01*
X11684000Y-11480000D01*
X11938000Y-11480000D02*
X11988000Y-11430000D01*
X11938000Y-11380000D01*
X11888000Y-11430000D01*
X11938000Y-11480000D01*
X12192000Y-11480000D02*
X12242000Y-11430000D01*
X12192000Y-11380000D01*
X12142000Y-11430000D01*
X12192000Y-11480000D01*
X12446000Y-11480000D02*
X12496000Y-11430000D01*
X12446000Y-11380000D01*
X12396000Y-11430000D01*
X12446000Y-11480000D01*
X12700000Y-11480000D02*
X12750000Y-11430000D01*
X12700000Y-11380000D01*
X12650000Y-11430000D01*
X12700000Y-11480000D01*
X12954000Y-11480000D02*
X13004000Y-11430000D01*
X12954000Y-11380000D01*
X12904000Y-11430000D01*
X12954000Y-11480000D01*
X13208000Y-11480000D02*
X13258000Y-11430000D01*
X13208000Y-11380000D01*
X13158000Y-11430000D01*
X13208000Y-11480000D01*
X13970000Y-11480000D02*
X14020000Y-11430000D01*
X13970000Y-11380000D01*
X13920000Y-11430000D01*
X13970000Y-11480000D01*
X14224000Y-11480000D02*
X14274000Y-11430000D01*
X14224000Y-11380000D01*
X14174000Y-11430000D01*
X14224000Y-11480000D01*
X14478000Y-11480000D02*
X14528000Y-11430000D01*
X14478000Y-11380000D01*
X14428000Y-11430000D01*
X14478000Y-11480000D01*
X14732000Y-11480000D02*
X14782000Y-11430000D01*
X14732000Y-11380000D01*
X14682000Y-11430000D01*
X14732000Y-11480000D01*
X14986000Y-11480000D02*
X15036000Y-11430000D01*
X14986000Y-11380000D01*
X14936000Y-11430000D01*
X14986000Y-11480000D01*
X15240000Y-11480000D02*
X15290000Y-11430000D01*
X15240000Y-11380000D01*
X15190000Y-11430000D01*
X15240000Y-11480000D01*
X15494000Y-11480000D02*
X15544000Y-11430000D01*
X15494000Y-11380000D01*
X15444000Y-11430000D01*
X15494000Y-11480000D01*
X15748000Y-3352000D02*
X15798000Y-3302000D01*
X15748000Y-3252000D01*
X15698000Y-3302000D01*
X15748000Y-3352000D01*
X15748000Y-3606000D02*
X15798000Y-3556000D01*
X15748000Y-3506000D01*
X15698000Y-3556000D01*
X15748000Y-3606000D01*
X15748000Y-3860000D02*
X15798000Y-3810000D01*
X15748000Y-3760000D01*
X15698000Y-3810000D01*
X15748000Y-3860000D01*
X15748000Y-4114000D02*
X15798000Y-4064000D01*
X15748000Y-4014000D01*
X15698000Y-4064000D01*
X15748000Y-4114000D01*
X15748000Y-4368000D02*
X15798000Y-4318000D01*
X15748000Y-4268000D01*
X15698000Y-4318000D01*
X15748000Y-4368000D01*
X15748000Y-4622000D02*
X15798000Y-4572000D01*
X15748000Y-4522000D01*
X15698000Y-4572000D01*
X15748000Y-4622000D01*
X15748000Y-4876000D02*
X15798000Y-4826000D01*
X15748000Y-4776000D01*
X15698000Y-4826000D01*
X15748000Y-4876000D01*
X15748000Y-5130000D02*
X15798000Y-5080000D01*
X15748000Y-5030000D01*
X15698000Y-5080000D01*
X15748000Y-5130000D01*
X15748000Y-5892000D02*
X15798000Y-5842000D01*
X15748000Y-5792000D01*
X15698000Y-5842000D01*
X15748000Y-5892000D01*
X15748000Y-6146000D02*
X15798000Y-6096000D01*
X15748000Y-6046000D01*
X15698000Y-6096000D01*
X15748000Y-6146000D01*
X15748000Y-6400000D02*
X15798000Y-6350000D01*
X15748000Y-6300000D01*
X15698000Y-6350000D01*
X15748000Y-6400000D01*
X15748000Y-6654000D02*
X15798000Y-6604000D01*
X15748000Y-6554000D01*
X15698000Y-6604000D01*
X15748000Y-6654000D01*
X15748000Y-6908000D02*
X15798000Y-6858000D01*
X15748000Y-6808000D01*
X15698000Y-6858000D01*
X15748000Y-6908000D01*
X15748000Y-7162000D02*
X15798000Y-7112000D01*
X15748000Y-7062000D01*
X15698000Y-7112000D01*
X15748000Y-7162000D01*
X15748000Y-7416000D02*
X15798000Y-7366000D01*
X15748000Y-7316000D01*
X15698000Y-7366000D01*
X15748000Y-7416000D01*
X15748000Y-7670000D02*
X15798000Y-7620000D01*
X15748000Y-7570000D01*
X15698000Y-7620000D01*
X15748000Y-7670000D01*
X15748000Y-8686000D02*
X15798000Y-8636000D01*
X15748000Y-8586000D01*
X15698000Y-8636000D01*
X15748000Y-8686000D01*
X15748000Y-8940000D02*
X15798000Y-8890000D01*
X15748000Y-8840000D01*
X15698000Y-8890000D01*
X15748000Y-8940000D01*
X15748000Y-9194000D02*
X15798000Y-9144000D01*
X15748000Y-9094000D01*
X15698000Y-9144000D01*
X15748000Y-9194000D01*
X15748000Y-9956000D02*
X15798000Y-9906000D01*
X15748000Y-9856000D01*
X15698000Y-9906000D01*
X15748000Y-9956000D01*
X15748000Y-10210000D02*
X15798000Y-10160000D01*
X15748000Y-10110000D01*
X15698000Y-10160000D01*
X15748000Y-10210000D01*
X15748000Y-10464000D02*
X15798000Y-10414000D01*
X15748000Y-10364000D01*
X15698000Y-10414000D01*
X15748000Y-10464000D01*
X15748000Y-11480000D02*
X15798000Y-11430000D01*
X15748000Y-11380000D01*
X15698000Y-11430000D01*
X15748000Y-11480000D01*
X16510000Y-11226000D02*
X16560000Y-11176000D01*
X16510000Y-11126000D01*
X16460000Y-11176000D01*
X16510000Y-11226000D01*
X16510000Y-11480000D02*
X16560000Y-11430000D01*
X16510000Y-11380000D01*
X16460000Y-11430000D01*
X16510000Y-11480000D01*
X16764000Y-11226000D02*
X16814000Y-11176000D01*
X16764000Y-11126000D01*
X16714000Y-11176000D01*
X16764000Y-11226000D01*
X16764000Y-11480000D02*
X16814000Y-11430000D01*
X16764000Y-11380000D01*
X16714000Y-11430000D01*
X16764000Y-11480000D01*
X17018000Y-11226000D02*
X17068000Y-11176000D01*
X17018000Y-11126000D01*
X16968000Y-11176000D01*
X17018000Y-11226000D01*
X17018000Y-11480000D02*
X17068000Y-11430000D01*
X17018000Y-11380000D01*
X16968000Y-11430000D01*
X17018000Y-11480000D01*
X17272000Y-11226000D02*
X17322000Y-11176000D01*
X17272000Y-11126000D01*
X17222000Y-11176000D01*
X17272000Y-11226000D01*
X17272000Y-11480000D02*
X17322000Y-11430000D01*
X17272000Y-11380000D01*
X17222000Y-11430000D01*
X17272000Y-11480000D01*
X17526000Y-11226000D02*
X17576000Y-11176000D01*
X17526000Y-11126000D01*
X17476000Y-11176000D01*
X17526000Y-11226000D01*
X17526000Y-11480000D02*
X17576000Y-11430000D01*
X17526000Y-11380000D01*
X17476000Y-11430000D01*
X17526000Y-11480000D01*
X17780000Y-11226000D02*
X17830000Y-11176000D01*
X17780000Y-11126000D01*
X17730000Y-11176000D01*
X17780000Y-11226000D01*
X17780000Y-11480000D02*
X17830000Y-11430000D01*
X17780000Y-11380000D01*
X17730000Y-11430000D01*
X17780000Y-11480000D01*
X18034000Y-11226000D02*
X18084000Y-11176000D01*
X18034000Y-11126000D01*
X17984000Y-11176000D01*
X18034000Y-11226000D01*
X18034000Y-11480000D02*
X18084000Y-11430000D01*
X18034000Y-11380000D01*
X17984000Y-11430000D01*
X18034000Y-11480000D01*
X18288000Y-11226000D02*
X18338000Y-11176000D01*
X18288000Y-11126000D01*
X18238000Y-11176000D01*
X18288000Y-11226000D01*
X18288000Y-11480000D02*
X18338000Y-11430000D01*
X18288000Y-11380000D01*
X18238000Y-11430000D01*
X18288000Y-11480000D01*
X18542000Y-11226000D02*
X18592000Y-11176000D01*
X18542000Y-11126000D01*
X18492000Y-11176000D01*
X18542000Y-11226000D01*
X18542000Y-11480000D02*
X18592000Y-11430000D01*
X18542000Y-11380000D01*
X18492000Y-11430000D01*
X18542000Y-11480000D01*
X18796000Y-11226000D02*
X18846000Y-11176000D01*
X18796000Y-11126000D01*
X18746000Y-11176000D01*
X18796000Y-11226000D01*
X18796000Y-11480000D02*
X18846000Y-11430000D01*
X18796000Y-11380000D01*
X18746000Y-11430000D01*
X18796000Y-11480000D01*
X19050000Y-11226000D02*
X19100000Y-11176000D01*
X19050000Y-11126000D01*
X19000000Y-11176000D01*
X19050000Y-11226000D01*
X19050000Y-11480000D02*
X19100000Y-11430000D01*
X19050000Y-11380000D01*
X19000000Y-11430000D01*
X19050000Y-11480000D01*
X19304000Y-11226000D02*
X19354000Y-11176000D01*
X19304000Y-11126000D01*
X19254000Y-11176000D01*
X19304000Y-11226000D01*
X19304000Y-11480000D02*
X19354000Y-11430000D01*
X19304000Y-11380000D01*
X19254000Y-11430000D01*
X19304000Y-11480000D01*
X19558000Y-11226000D02*
X19608000Y-11176000D01*
X19558000Y-11126000D01*
X19508000Y-11176000D01*
X19558000Y-11226000D01*
X19558000Y-11480000D02*
X19608000Y-11430000D01*
X19558000Y-11380000D01*
X19508000Y-11430000D01*
X19558000Y-11480000D01*
X19812000Y-11226000D02*
X19862000Y-11176000D01*
X19812000Y-11126000D01*
X19762000Y-11176000D01*
X19812000Y-11226000D01*
X19812000Y-11480000D02*
X19862000Y-11430000D01*
X19812000Y-11380000D01*
X19762000Y-11430000D01*
X19812000Y-11480000D01*
X20066000Y-11226000D02*
X20116000Y-11176000D01*
X20066000Y-11126000D01*
X20016000Y-11176000D01*
X20066000Y-11226000D01*
X20066000Y-11480000D02*
X20116000Y-11430000D01*
X20066000Y-11380000D01*
X20016000Y-11430000D01*
X20066000Y-11480000D01*
X20320000Y-11226000D02*
X20370000Y-11176000D01*
X20320000Y-11126000D01*
X20270000Y-11176000D01*
X20320000Y-11226000D01*
X20320000Y-11480000D02*
X20370000Y-11430000D01*
X20320000Y-11380000D01*
X20270000Y-11430000D01*
X20320000Y-11480000D01*
X20574000Y-11226000D02*
X20624000Y-11176000D01*
X20574000Y-11126000D01*
X20524000Y-11176000D01*
X20574000Y-11226000D01*
X20574000Y-11480000D02*
X20624000Y-11430000D01*
X20574000Y-11380000D01*
X20524000Y-11430000D01*
X20574000Y-11480000D01*
X20828000Y-11226000D02*
X20878000Y-11176000D01*
X20828000Y-11126000D01*
X20778000Y-11176000D01*
X20828000Y-11226000D01*
X20828000Y-11480000D02*
X20878000Y-11430000D01*
X20828000Y-11380000D01*
X20778000Y-11430000D01*
X20828000Y-11480000D01*
X21082000Y-11226000D02*
X21132000Y-11176000D01*
X21082000Y-11126000D01*
X21032000Y-11176000D01*
X21082000Y-11226000D01*
X21082000Y-11480000D02*
X21132000Y-11430000D01*
X21082000Y-11380000D01*
X21032000Y-11430000D01*
X21082000Y-11480000D01*
X21336000Y-11226000D02*
X21386000Y-11176000D01*
X21336000Y-11126000D01*
X21286000Y-11176000D01*
X21336000Y-11226000D01*
X21336000Y-11480000D02*
X21386000Y-11430000D01*
X21336000Y-11380000D01*
X21286000Y-11430000D01*
X21336000Y-11480000D01*
D17*
X5308000Y-6859000D02*
X5418000Y-6969000D01*
X5418000Y-6859000D02*
X5308000Y-6969000D01*
X5418000Y-6914000D02*
G75*
G03*
X5418000Y-6914000I-55000J0D01*
G01*
X5308000Y-7509000D02*
X5418000Y-7619000D01*
X5418000Y-7509000D02*
X5308000Y-7619000D01*
X5418000Y-7564000D02*
G75*
G03*
X5418000Y-7564000I-55000J0D01*
G01*
X5758000Y-6859000D02*
X5868000Y-6969000D01*
X5868000Y-6859000D02*
X5758000Y-6969000D01*
X5868000Y-6914000D02*
G75*
G03*
X5868000Y-6914000I-55000J0D01*
G01*
X5758000Y-7509000D02*
X5868000Y-7619000D01*
X5868000Y-7509000D02*
X5758000Y-7619000D01*
X5868000Y-7564000D02*
G75*
G03*
X5868000Y-7564000I-55000J0D01*
G01*
D18*
X7413000Y-3125750D02*
X7643000Y-3355750D01*
X7643000Y-3125750D02*
X7413000Y-3355750D01*
X7528000Y-3125750D02*
X7528000Y-3355750D01*
X7413000Y-3240750D02*
X7643000Y-3240750D01*
X8613000Y-3125750D02*
X8843000Y-3355750D01*
X8843000Y-3125750D02*
X8613000Y-3355750D01*
X8728000Y-3125750D02*
X8728000Y-3355750D01*
X8613000Y-3240750D02*
X8843000Y-3240750D01*
D19*
X5428000Y-2888000D02*
X5748000Y-3208000D01*
X5748000Y-2888000D02*
X5428000Y-3208000D01*
X5701138Y-3161138D02*
X5701138Y-2934862D01*
X5474862Y-2934862D01*
X5474862Y-3161138D01*
X5701138Y-3161138D01*
X5428000Y-10254000D02*
X5748000Y-10574000D01*
X5748000Y-10254000D02*
X5428000Y-10574000D01*
X5701138Y-10527138D02*
X5701138Y-10300862D01*
X5474862Y-10300862D01*
X5474862Y-10527138D01*
X5701138Y-10527138D01*
X5428000Y-17620000D02*
X5748000Y-17940000D01*
X5748000Y-17620000D02*
X5428000Y-17940000D01*
X5701138Y-17893138D02*
X5701138Y-17666862D01*
X5474862Y-17666862D01*
X5474862Y-17893138D01*
X5701138Y-17893138D01*
X10635000Y-2888000D02*
X10955000Y-3208000D01*
X10955000Y-2888000D02*
X10635000Y-3208000D01*
X10908138Y-3161138D02*
X10908138Y-2934862D01*
X10681862Y-2934862D01*
X10681862Y-3161138D01*
X10908138Y-3161138D01*
X10635000Y-10254000D02*
X10955000Y-10574000D01*
X10955000Y-10254000D02*
X10635000Y-10574000D01*
X10908138Y-10527138D02*
X10908138Y-10300862D01*
X10681862Y-10300862D01*
X10681862Y-10527138D01*
X10908138Y-10527138D01*
X10635000Y-17620000D02*
X10955000Y-17940000D01*
X10955000Y-17620000D02*
X10635000Y-17940000D01*
X10908138Y-17893138D02*
X10908138Y-17666862D01*
X10681862Y-17666862D01*
X10681862Y-17893138D01*
X10908138Y-17893138D01*
X14572000Y-2888000D02*
X14892000Y-3208000D01*
X14892000Y-2888000D02*
X14572000Y-3208000D01*
X14845138Y-3161138D02*
X14845138Y-2934862D01*
X14618862Y-2934862D01*
X14618862Y-3161138D01*
X14845138Y-3161138D01*
X14572000Y-10254000D02*
X14892000Y-10574000D01*
X14892000Y-10254000D02*
X14572000Y-10574000D01*
X14845138Y-10527138D02*
X14845138Y-10300862D01*
X14618862Y-10300862D01*
X14618862Y-10527138D01*
X14845138Y-10527138D01*
X14572000Y-17620000D02*
X14892000Y-17940000D01*
X14892000Y-17620000D02*
X14572000Y-17940000D01*
X14845138Y-17893138D02*
X14845138Y-17666862D01*
X14618862Y-17666862D01*
X14618862Y-17893138D01*
X14845138Y-17893138D01*
X21938000Y-10254000D02*
X22258000Y-10574000D01*
X22258000Y-10254000D02*
X21938000Y-10574000D01*
X22211138Y-10527138D02*
X22211138Y-10300862D01*
X21984862Y-10300862D01*
X21984862Y-10527138D01*
X22211138Y-10527138D01*
X21938000Y-17620000D02*
X22258000Y-17940000D01*
X22258000Y-17620000D02*
X21938000Y-17940000D01*
X22211138Y-17893138D02*
X22211138Y-17666862D01*
X21984862Y-17666862D01*
X21984862Y-17893138D01*
X22211138Y-17893138D01*
X21952000Y-2888000D02*
X22272000Y-3208000D01*
X22272000Y-2888000D02*
X21952000Y-3208000D01*
X22225138Y-3161138D02*
X22225138Y-2934862D01*
X21998862Y-2934862D01*
X21998862Y-3161138D01*
X22225138Y-3161138D01*
D11*
X5335714Y-18600381D02*
X5335714Y-18400381D01*
X5383333Y-18400381D01*
X5411905Y-18409905D01*
X5430952Y-18428953D01*
X5440476Y-18448000D01*
X5450000Y-18486095D01*
X5450000Y-18514667D01*
X5440476Y-18552762D01*
X5430952Y-18571810D01*
X5411905Y-18590857D01*
X5383333Y-18600381D01*
X5335714Y-18600381D01*
X5535714Y-18600381D02*
X5535714Y-18467048D01*
X5535714Y-18505143D02*
X5545238Y-18486095D01*
X5554762Y-18476572D01*
X5573809Y-18467048D01*
X5592857Y-18467048D01*
X5659523Y-18600381D02*
X5659523Y-18467048D01*
X5659523Y-18400381D02*
X5650000Y-18409905D01*
X5659523Y-18419429D01*
X5669047Y-18409905D01*
X5659523Y-18400381D01*
X5659523Y-18419429D01*
X5783333Y-18600381D02*
X5764285Y-18590857D01*
X5754762Y-18571810D01*
X5754762Y-18400381D01*
X5888095Y-18600381D02*
X5869047Y-18590857D01*
X5859523Y-18571810D01*
X5859523Y-18400381D01*
X6116666Y-18600381D02*
X6116666Y-18400381D01*
X6183333Y-18543238D01*
X6250000Y-18400381D01*
X6250000Y-18600381D01*
X6430952Y-18600381D02*
X6430952Y-18495619D01*
X6421428Y-18476572D01*
X6402381Y-18467048D01*
X6364285Y-18467048D01*
X6345238Y-18476572D01*
X6430952Y-18590857D02*
X6411904Y-18600381D01*
X6364285Y-18600381D01*
X6345238Y-18590857D01*
X6335714Y-18571810D01*
X6335714Y-18552762D01*
X6345238Y-18533715D01*
X6364285Y-18524191D01*
X6411904Y-18524191D01*
X6430952Y-18514667D01*
X6526190Y-18467048D02*
X6526190Y-18667048D01*
X6526190Y-18476572D02*
X6545238Y-18467048D01*
X6583333Y-18467048D01*
X6602381Y-18476572D01*
X6611904Y-18486095D01*
X6621428Y-18505143D01*
X6621428Y-18562286D01*
X6611904Y-18581334D01*
X6602381Y-18590857D01*
X6583333Y-18600381D01*
X6545238Y-18600381D01*
X6526190Y-18590857D01*
X6707143Y-18581334D02*
X6716666Y-18590857D01*
X6707143Y-18600381D01*
X6697619Y-18590857D01*
X6707143Y-18581334D01*
X6707143Y-18600381D01*
X6707143Y-18476572D02*
X6716666Y-18486095D01*
X6707143Y-18495619D01*
X6697619Y-18486095D01*
X6707143Y-18476572D01*
X6707143Y-18495619D01*
D12*
X5028095Y-18904905D02*
X5078095Y-18954905D01*
X5078095Y-18904905D02*
X5028095Y-18954905D01*
D11*
X5373809Y-18820381D02*
X5392857Y-18820381D01*
X5411905Y-18829905D01*
X5421428Y-18839429D01*
X5430952Y-18858476D01*
X5440476Y-18896572D01*
X5440476Y-18944191D01*
X5430952Y-18982286D01*
X5421428Y-19001334D01*
X5411905Y-19010857D01*
X5392857Y-19020381D01*
X5373809Y-19020381D01*
X5354762Y-19010857D01*
X5345238Y-19001334D01*
X5335714Y-18982286D01*
X5326190Y-18944191D01*
X5326190Y-18896572D01*
X5335714Y-18858476D01*
X5345238Y-18839429D01*
X5354762Y-18829905D01*
X5373809Y-18820381D01*
X5526190Y-19001334D02*
X5535714Y-19010857D01*
X5526190Y-19020381D01*
X5516666Y-19010857D01*
X5526190Y-19001334D01*
X5526190Y-19020381D01*
X5716666Y-18820381D02*
X5621428Y-18820381D01*
X5611904Y-18915619D01*
X5621428Y-18906095D01*
X5640476Y-18896572D01*
X5688095Y-18896572D01*
X5707143Y-18906095D01*
X5716666Y-18915619D01*
X5726190Y-18934667D01*
X5726190Y-18982286D01*
X5716666Y-19001334D01*
X5707143Y-19010857D01*
X5688095Y-19020381D01*
X5640476Y-19020381D01*
X5621428Y-19010857D01*
X5611904Y-19001334D01*
X5850000Y-18820381D02*
X5869047Y-18820381D01*
X5888095Y-18829905D01*
X5897619Y-18839429D01*
X5907143Y-18858476D01*
X5916666Y-18896572D01*
X5916666Y-18944191D01*
X5907143Y-18982286D01*
X5897619Y-19001334D01*
X5888095Y-19010857D01*
X5869047Y-19020381D01*
X5850000Y-19020381D01*
X5830952Y-19010857D01*
X5821428Y-19001334D01*
X5811904Y-18982286D01*
X5802381Y-18944191D01*
X5802381Y-18896572D01*
X5811904Y-18858476D01*
X5821428Y-18839429D01*
X5830952Y-18829905D01*
X5850000Y-18820381D01*
X6040476Y-18820381D02*
X6059523Y-18820381D01*
X6078571Y-18829905D01*
X6088095Y-18839429D01*
X6097619Y-18858476D01*
X6107143Y-18896572D01*
X6107143Y-18944191D01*
X6097619Y-18982286D01*
X6088095Y-19001334D01*
X6078571Y-19010857D01*
X6059523Y-19020381D01*
X6040476Y-19020381D01*
X6021428Y-19010857D01*
X6011904Y-19001334D01*
X6002381Y-18982286D01*
X5992857Y-18944191D01*
X5992857Y-18896572D01*
X6002381Y-18858476D01*
X6011904Y-18839429D01*
X6021428Y-18829905D01*
X6040476Y-18820381D01*
X6192857Y-19020381D02*
X6192857Y-18887048D01*
X6192857Y-18906095D02*
X6202381Y-18896572D01*
X6221428Y-18887048D01*
X6250000Y-18887048D01*
X6269047Y-18896572D01*
X6278571Y-18915619D01*
X6278571Y-19020381D01*
X6278571Y-18915619D02*
X6288095Y-18896572D01*
X6307143Y-18887048D01*
X6335714Y-18887048D01*
X6354762Y-18896572D01*
X6364285Y-18915619D01*
X6364285Y-19020381D01*
X6459523Y-19020381D02*
X6459523Y-18887048D01*
X6459523Y-18906095D02*
X6469047Y-18896572D01*
X6488095Y-18887048D01*
X6516666Y-18887048D01*
X6535714Y-18896572D01*
X6545238Y-18915619D01*
X6545238Y-19020381D01*
X6545238Y-18915619D02*
X6554762Y-18896572D01*
X6573809Y-18887048D01*
X6602381Y-18887048D01*
X6621428Y-18896572D01*
X6630952Y-18915619D01*
X6630952Y-19020381D01*
X7021428Y-18810857D02*
X6850000Y-19068000D01*
X7278571Y-18820381D02*
X7297619Y-18820381D01*
X7316666Y-18829905D01*
X7326190Y-18839429D01*
X7335714Y-18858476D01*
X7345238Y-18896572D01*
X7345238Y-18944191D01*
X7335714Y-18982286D01*
X7326190Y-19001334D01*
X7316666Y-19010857D01*
X7297619Y-19020381D01*
X7278571Y-19020381D01*
X7259523Y-19010857D01*
X7250000Y-19001334D01*
X7240476Y-18982286D01*
X7230952Y-18944191D01*
X7230952Y-18896572D01*
X7240476Y-18858476D01*
X7250000Y-18839429D01*
X7259523Y-18829905D01*
X7278571Y-18820381D01*
X7430952Y-19001334D02*
X7440476Y-19010857D01*
X7430952Y-19020381D01*
X7421428Y-19010857D01*
X7430952Y-19001334D01*
X7430952Y-19020381D01*
X7564285Y-18820381D02*
X7583333Y-18820381D01*
X7602381Y-18829905D01*
X7611904Y-18839429D01*
X7621428Y-18858476D01*
X7630952Y-18896572D01*
X7630952Y-18944191D01*
X7621428Y-18982286D01*
X7611904Y-19001334D01*
X7602381Y-19010857D01*
X7583333Y-19020381D01*
X7564285Y-19020381D01*
X7545238Y-19010857D01*
X7535714Y-19001334D01*
X7526190Y-18982286D01*
X7516666Y-18944191D01*
X7516666Y-18896572D01*
X7526190Y-18858476D01*
X7535714Y-18839429D01*
X7545238Y-18829905D01*
X7564285Y-18820381D01*
X7821428Y-19020381D02*
X7707143Y-19020381D01*
X7764285Y-19020381D02*
X7764285Y-18820381D01*
X7745238Y-18848953D01*
X7726190Y-18868000D01*
X7707143Y-18877524D01*
X7916666Y-19020381D02*
X7954762Y-19020381D01*
X7973809Y-19010857D01*
X7983333Y-19001334D01*
X8002381Y-18972762D01*
X8011904Y-18934667D01*
X8011904Y-18858476D01*
X8002381Y-18839429D01*
X7992857Y-18829905D01*
X7973809Y-18820381D01*
X7935714Y-18820381D01*
X7916666Y-18829905D01*
X7907143Y-18839429D01*
X7897619Y-18858476D01*
X7897619Y-18906095D01*
X7907143Y-18925143D01*
X7916666Y-18934667D01*
X7935714Y-18944191D01*
X7973809Y-18944191D01*
X7992857Y-18934667D01*
X8002381Y-18925143D01*
X8011904Y-18906095D01*
X8078571Y-18820381D02*
X8211904Y-18820381D01*
X8126190Y-19020381D01*
X8278571Y-18820381D02*
X8278571Y-18858476D01*
X8354762Y-18820381D02*
X8354762Y-18858476D01*
X8650000Y-19096572D02*
X8640476Y-19087048D01*
X8621428Y-19058476D01*
X8611905Y-19039429D01*
X8602381Y-19010857D01*
X8592857Y-18963238D01*
X8592857Y-18925143D01*
X8602381Y-18877524D01*
X8611905Y-18848953D01*
X8621428Y-18829905D01*
X8640476Y-18801334D01*
X8650000Y-18791810D01*
X8735714Y-19020381D02*
X8773809Y-19020381D01*
X8792857Y-19010857D01*
X8802381Y-19001334D01*
X8821428Y-18972762D01*
X8830952Y-18934667D01*
X8830952Y-18858476D01*
X8821428Y-18839429D01*
X8811905Y-18829905D01*
X8792857Y-18820381D01*
X8754762Y-18820381D01*
X8735714Y-18829905D01*
X8726190Y-18839429D01*
X8716666Y-18858476D01*
X8716666Y-18906095D01*
X8726190Y-18925143D01*
X8735714Y-18934667D01*
X8754762Y-18944191D01*
X8792857Y-18944191D01*
X8811905Y-18934667D01*
X8821428Y-18925143D01*
X8830952Y-18906095D01*
X9002381Y-18820381D02*
X8964285Y-18820381D01*
X8945238Y-18829905D01*
X8935714Y-18839429D01*
X8916666Y-18868000D01*
X8907143Y-18906095D01*
X8907143Y-18982286D01*
X8916666Y-19001334D01*
X8926190Y-19010857D01*
X8945238Y-19020381D01*
X8983333Y-19020381D01*
X9002381Y-19010857D01*
X9011905Y-19001334D01*
X9021428Y-18982286D01*
X9021428Y-18934667D01*
X9011905Y-18915619D01*
X9002381Y-18906095D01*
X8983333Y-18896572D01*
X8945238Y-18896572D01*
X8926190Y-18906095D01*
X8916666Y-18915619D01*
X8907143Y-18934667D01*
X9259524Y-19020381D02*
X9259524Y-18820381D01*
X9345238Y-19020381D02*
X9345238Y-18915619D01*
X9335714Y-18896572D01*
X9316666Y-18887048D01*
X9288095Y-18887048D01*
X9269047Y-18896572D01*
X9259524Y-18906095D01*
X9469047Y-19020381D02*
X9450000Y-19010857D01*
X9440476Y-19001334D01*
X9430952Y-18982286D01*
X9430952Y-18925143D01*
X9440476Y-18906095D01*
X9450000Y-18896572D01*
X9469047Y-18887048D01*
X9497619Y-18887048D01*
X9516666Y-18896572D01*
X9526190Y-18906095D01*
X9535714Y-18925143D01*
X9535714Y-18982286D01*
X9526190Y-19001334D01*
X9516666Y-19010857D01*
X9497619Y-19020381D01*
X9469047Y-19020381D01*
X9650000Y-19020381D02*
X9630952Y-19010857D01*
X9621428Y-18991810D01*
X9621428Y-18820381D01*
X9802381Y-19010857D02*
X9783333Y-19020381D01*
X9745238Y-19020381D01*
X9726190Y-19010857D01*
X9716666Y-18991810D01*
X9716666Y-18915619D01*
X9726190Y-18896572D01*
X9745238Y-18887048D01*
X9783333Y-18887048D01*
X9802381Y-18896572D01*
X9811905Y-18915619D01*
X9811905Y-18934667D01*
X9716666Y-18953715D01*
X9888095Y-19010857D02*
X9907143Y-19020381D01*
X9945238Y-19020381D01*
X9964285Y-19010857D01*
X9973809Y-18991810D01*
X9973809Y-18982286D01*
X9964285Y-18963238D01*
X9945238Y-18953715D01*
X9916666Y-18953715D01*
X9897619Y-18944191D01*
X9888095Y-18925143D01*
X9888095Y-18915619D01*
X9897619Y-18896572D01*
X9916666Y-18887048D01*
X9945238Y-18887048D01*
X9964285Y-18896572D01*
X10040476Y-19096572D02*
X10050000Y-19087048D01*
X10069047Y-19058476D01*
X10078571Y-19039429D01*
X10088095Y-19010857D01*
X10097619Y-18963238D01*
X10097619Y-18925143D01*
X10088095Y-18877524D01*
X10078571Y-18848953D01*
X10069047Y-18829905D01*
X10050000Y-18801334D01*
X10040476Y-18791810D01*
D13*
X5078095Y-19193905D02*
G75*
G03*
X5078095Y-19193905I-38100J0D01*
G01*
D11*
X5373809Y-19084381D02*
X5392857Y-19084381D01*
X5411905Y-19093905D01*
X5421428Y-19103429D01*
X5430952Y-19122476D01*
X5440476Y-19160572D01*
X5440476Y-19208191D01*
X5430952Y-19246286D01*
X5421428Y-19265334D01*
X5411905Y-19274857D01*
X5392857Y-19284381D01*
X5373809Y-19284381D01*
X5354762Y-19274857D01*
X5345238Y-19265334D01*
X5335714Y-19246286D01*
X5326190Y-19208191D01*
X5326190Y-19160572D01*
X5335714Y-19122476D01*
X5345238Y-19103429D01*
X5354762Y-19093905D01*
X5373809Y-19084381D01*
X5526190Y-19265334D02*
X5535714Y-19274857D01*
X5526190Y-19284381D01*
X5516666Y-19274857D01*
X5526190Y-19265334D01*
X5526190Y-19284381D01*
X5602381Y-19084381D02*
X5735714Y-19084381D01*
X5650000Y-19284381D01*
X5897619Y-19084381D02*
X5859523Y-19084381D01*
X5840476Y-19093905D01*
X5830952Y-19103429D01*
X5811904Y-19132000D01*
X5802381Y-19170095D01*
X5802381Y-19246286D01*
X5811904Y-19265334D01*
X5821428Y-19274857D01*
X5840476Y-19284381D01*
X5878571Y-19284381D01*
X5897619Y-19274857D01*
X5907143Y-19265334D01*
X5916666Y-19246286D01*
X5916666Y-19198667D01*
X5907143Y-19179619D01*
X5897619Y-19170095D01*
X5878571Y-19160572D01*
X5840476Y-19160572D01*
X5821428Y-19170095D01*
X5811904Y-19179619D01*
X5802381Y-19198667D01*
X5992857Y-19103429D02*
X6002381Y-19093905D01*
X6021428Y-19084381D01*
X6069047Y-19084381D01*
X6088095Y-19093905D01*
X6097619Y-19103429D01*
X6107143Y-19122476D01*
X6107143Y-19141524D01*
X6097619Y-19170095D01*
X5983333Y-19284381D01*
X6107143Y-19284381D01*
X6192857Y-19284381D02*
X6192857Y-19151048D01*
X6192857Y-19170095D02*
X6202381Y-19160572D01*
X6221428Y-19151048D01*
X6250000Y-19151048D01*
X6269047Y-19160572D01*
X6278571Y-19179619D01*
X6278571Y-19284381D01*
X6278571Y-19179619D02*
X6288095Y-19160572D01*
X6307143Y-19151048D01*
X6335714Y-19151048D01*
X6354762Y-19160572D01*
X6364285Y-19179619D01*
X6364285Y-19284381D01*
X6459523Y-19284381D02*
X6459523Y-19151048D01*
X6459523Y-19170095D02*
X6469047Y-19160572D01*
X6488095Y-19151048D01*
X6516666Y-19151048D01*
X6535714Y-19160572D01*
X6545238Y-19179619D01*
X6545238Y-19284381D01*
X6545238Y-19179619D02*
X6554762Y-19160572D01*
X6573809Y-19151048D01*
X6602381Y-19151048D01*
X6621428Y-19160572D01*
X6630952Y-19179619D01*
X6630952Y-19284381D01*
X7021428Y-19074857D02*
X6850000Y-19332000D01*
X7278571Y-19084381D02*
X7297619Y-19084381D01*
X7316666Y-19093905D01*
X7326190Y-19103429D01*
X7335714Y-19122476D01*
X7345238Y-19160572D01*
X7345238Y-19208191D01*
X7335714Y-19246286D01*
X7326190Y-19265334D01*
X7316666Y-19274857D01*
X7297619Y-19284381D01*
X7278571Y-19284381D01*
X7259523Y-19274857D01*
X7250000Y-19265334D01*
X7240476Y-19246286D01*
X7230952Y-19208191D01*
X7230952Y-19160572D01*
X7240476Y-19122476D01*
X7250000Y-19103429D01*
X7259523Y-19093905D01*
X7278571Y-19084381D01*
X7430952Y-19265334D02*
X7440476Y-19274857D01*
X7430952Y-19284381D01*
X7421428Y-19274857D01*
X7430952Y-19265334D01*
X7430952Y-19284381D01*
X7564285Y-19084381D02*
X7583333Y-19084381D01*
X7602381Y-19093905D01*
X7611904Y-19103429D01*
X7621428Y-19122476D01*
X7630952Y-19160572D01*
X7630952Y-19208191D01*
X7621428Y-19246286D01*
X7611904Y-19265334D01*
X7602381Y-19274857D01*
X7583333Y-19284381D01*
X7564285Y-19284381D01*
X7545238Y-19274857D01*
X7535714Y-19265334D01*
X7526190Y-19246286D01*
X7516666Y-19208191D01*
X7516666Y-19160572D01*
X7526190Y-19122476D01*
X7535714Y-19103429D01*
X7545238Y-19093905D01*
X7564285Y-19084381D01*
X7697619Y-19084381D02*
X7821428Y-19084381D01*
X7754762Y-19160572D01*
X7783333Y-19160572D01*
X7802381Y-19170095D01*
X7811904Y-19179619D01*
X7821428Y-19198667D01*
X7821428Y-19246286D01*
X7811904Y-19265334D01*
X7802381Y-19274857D01*
X7783333Y-19284381D01*
X7726190Y-19284381D01*
X7707143Y-19274857D01*
X7697619Y-19265334D01*
X7945238Y-19084381D02*
X7964285Y-19084381D01*
X7983333Y-19093905D01*
X7992857Y-19103429D01*
X8002381Y-19122476D01*
X8011904Y-19160572D01*
X8011904Y-19208191D01*
X8002381Y-19246286D01*
X7992857Y-19265334D01*
X7983333Y-19274857D01*
X7964285Y-19284381D01*
X7945238Y-19284381D01*
X7926190Y-19274857D01*
X7916666Y-19265334D01*
X7907143Y-19246286D01*
X7897619Y-19208191D01*
X7897619Y-19160572D01*
X7907143Y-19122476D01*
X7916666Y-19103429D01*
X7926190Y-19093905D01*
X7945238Y-19084381D01*
X8135714Y-19084381D02*
X8154762Y-19084381D01*
X8173809Y-19093905D01*
X8183333Y-19103429D01*
X8192857Y-19122476D01*
X8202381Y-19160572D01*
X8202381Y-19208191D01*
X8192857Y-19246286D01*
X8183333Y-19265334D01*
X8173809Y-19274857D01*
X8154762Y-19284381D01*
X8135714Y-19284381D01*
X8116666Y-19274857D01*
X8107143Y-19265334D01*
X8097619Y-19246286D01*
X8088095Y-19208191D01*
X8088095Y-19160572D01*
X8097619Y-19122476D01*
X8107143Y-19103429D01*
X8116666Y-19093905D01*
X8135714Y-19084381D01*
X8278571Y-19084381D02*
X8278571Y-19122476D01*
X8354762Y-19084381D02*
X8354762Y-19122476D01*
X8650000Y-19360572D02*
X8640476Y-19351048D01*
X8621428Y-19322476D01*
X8611905Y-19303429D01*
X8602381Y-19274857D01*
X8592857Y-19227238D01*
X8592857Y-19189143D01*
X8602381Y-19141524D01*
X8611905Y-19112953D01*
X8621428Y-19093905D01*
X8640476Y-19065334D01*
X8650000Y-19055810D01*
X8830952Y-19284381D02*
X8716666Y-19284381D01*
X8773809Y-19284381D02*
X8773809Y-19084381D01*
X8754762Y-19112953D01*
X8735714Y-19132000D01*
X8716666Y-19141524D01*
X9021428Y-19284381D02*
X8907143Y-19284381D01*
X8964285Y-19284381D02*
X8964285Y-19084381D01*
X8945238Y-19112953D01*
X8926190Y-19132000D01*
X8907143Y-19141524D01*
X9088095Y-19084381D02*
X9221428Y-19084381D01*
X9135714Y-19284381D01*
X9335714Y-19084381D02*
X9354762Y-19084381D01*
X9373809Y-19093905D01*
X9383333Y-19103429D01*
X9392857Y-19122476D01*
X9402381Y-19160572D01*
X9402381Y-19208191D01*
X9392857Y-19246286D01*
X9383333Y-19265334D01*
X9373809Y-19274857D01*
X9354762Y-19284381D01*
X9335714Y-19284381D01*
X9316666Y-19274857D01*
X9307143Y-19265334D01*
X9297619Y-19246286D01*
X9288095Y-19208191D01*
X9288095Y-19160572D01*
X9297619Y-19122476D01*
X9307143Y-19103429D01*
X9316666Y-19093905D01*
X9335714Y-19084381D01*
X9640476Y-19284381D02*
X9640476Y-19084381D01*
X9726190Y-19284381D02*
X9726190Y-19179619D01*
X9716666Y-19160572D01*
X9697619Y-19151048D01*
X9669047Y-19151048D01*
X9650000Y-19160572D01*
X9640476Y-19170095D01*
X9850000Y-19284381D02*
X9830952Y-19274857D01*
X9821428Y-19265334D01*
X9811905Y-19246286D01*
X9811905Y-19189143D01*
X9821428Y-19170095D01*
X9830952Y-19160572D01*
X9850000Y-19151048D01*
X9878571Y-19151048D01*
X9897619Y-19160572D01*
X9907143Y-19170095D01*
X9916666Y-19189143D01*
X9916666Y-19246286D01*
X9907143Y-19265334D01*
X9897619Y-19274857D01*
X9878571Y-19284381D01*
X9850000Y-19284381D01*
X10030952Y-19284381D02*
X10011905Y-19274857D01*
X10002381Y-19255810D01*
X10002381Y-19084381D01*
X10183333Y-19274857D02*
X10164285Y-19284381D01*
X10126190Y-19284381D01*
X10107143Y-19274857D01*
X10097619Y-19255810D01*
X10097619Y-19179619D01*
X10107143Y-19160572D01*
X10126190Y-19151048D01*
X10164285Y-19151048D01*
X10183333Y-19160572D01*
X10192857Y-19179619D01*
X10192857Y-19198667D01*
X10097619Y-19217715D01*
X10269047Y-19274857D02*
X10288095Y-19284381D01*
X10326190Y-19284381D01*
X10345238Y-19274857D01*
X10354762Y-19255810D01*
X10354762Y-19246286D01*
X10345238Y-19227238D01*
X10326190Y-19217715D01*
X10297619Y-19217715D01*
X10278571Y-19208191D01*
X10269047Y-19189143D01*
X10269047Y-19179619D01*
X10278571Y-19160572D01*
X10297619Y-19151048D01*
X10326190Y-19151048D01*
X10345238Y-19160572D01*
X10421428Y-19360572D02*
X10430952Y-19351048D01*
X10450000Y-19322476D01*
X10459524Y-19303429D01*
X10469047Y-19274857D01*
X10478571Y-19227238D01*
X10478571Y-19189143D01*
X10469047Y-19141524D01*
X10459524Y-19112953D01*
X10450000Y-19093905D01*
X10430952Y-19065334D01*
X10421428Y-19055810D01*
D14*
X5038095Y-19417905D02*
X5038095Y-19497905D01*
X4998095Y-19457905D02*
X5078095Y-19457905D01*
D11*
X5373809Y-19348381D02*
X5392857Y-19348381D01*
X5411905Y-19357905D01*
X5421428Y-19367429D01*
X5430952Y-19386476D01*
X5440476Y-19424572D01*
X5440476Y-19472191D01*
X5430952Y-19510286D01*
X5421428Y-19529334D01*
X5411905Y-19538857D01*
X5392857Y-19548381D01*
X5373809Y-19548381D01*
X5354762Y-19538857D01*
X5345238Y-19529334D01*
X5335714Y-19510286D01*
X5326190Y-19472191D01*
X5326190Y-19424572D01*
X5335714Y-19386476D01*
X5345238Y-19367429D01*
X5354762Y-19357905D01*
X5373809Y-19348381D01*
X5526190Y-19529334D02*
X5535714Y-19538857D01*
X5526190Y-19548381D01*
X5516666Y-19538857D01*
X5526190Y-19529334D01*
X5526190Y-19548381D01*
X5650000Y-19434095D02*
X5630952Y-19424572D01*
X5621428Y-19415048D01*
X5611904Y-19396000D01*
X5611904Y-19386476D01*
X5621428Y-19367429D01*
X5630952Y-19357905D01*
X5650000Y-19348381D01*
X5688095Y-19348381D01*
X5707143Y-19357905D01*
X5716666Y-19367429D01*
X5726190Y-19386476D01*
X5726190Y-19396000D01*
X5716666Y-19415048D01*
X5707143Y-19424572D01*
X5688095Y-19434095D01*
X5650000Y-19434095D01*
X5630952Y-19443619D01*
X5621428Y-19453143D01*
X5611904Y-19472191D01*
X5611904Y-19510286D01*
X5621428Y-19529334D01*
X5630952Y-19538857D01*
X5650000Y-19548381D01*
X5688095Y-19548381D01*
X5707143Y-19538857D01*
X5716666Y-19529334D01*
X5726190Y-19510286D01*
X5726190Y-19472191D01*
X5716666Y-19453143D01*
X5707143Y-19443619D01*
X5688095Y-19434095D01*
X5850000Y-19348381D02*
X5869047Y-19348381D01*
X5888095Y-19357905D01*
X5897619Y-19367429D01*
X5907143Y-19386476D01*
X5916666Y-19424572D01*
X5916666Y-19472191D01*
X5907143Y-19510286D01*
X5897619Y-19529334D01*
X5888095Y-19538857D01*
X5869047Y-19548381D01*
X5850000Y-19548381D01*
X5830952Y-19538857D01*
X5821428Y-19529334D01*
X5811904Y-19510286D01*
X5802381Y-19472191D01*
X5802381Y-19424572D01*
X5811904Y-19386476D01*
X5821428Y-19367429D01*
X5830952Y-19357905D01*
X5850000Y-19348381D01*
X6040476Y-19348381D02*
X6059523Y-19348381D01*
X6078571Y-19357905D01*
X6088095Y-19367429D01*
X6097619Y-19386476D01*
X6107143Y-19424572D01*
X6107143Y-19472191D01*
X6097619Y-19510286D01*
X6088095Y-19529334D01*
X6078571Y-19538857D01*
X6059523Y-19548381D01*
X6040476Y-19548381D01*
X6021428Y-19538857D01*
X6011904Y-19529334D01*
X6002381Y-19510286D01*
X5992857Y-19472191D01*
X5992857Y-19424572D01*
X6002381Y-19386476D01*
X6011904Y-19367429D01*
X6021428Y-19357905D01*
X6040476Y-19348381D01*
X6192857Y-19548381D02*
X6192857Y-19415048D01*
X6192857Y-19434095D02*
X6202381Y-19424572D01*
X6221428Y-19415048D01*
X6250000Y-19415048D01*
X6269047Y-19424572D01*
X6278571Y-19443619D01*
X6278571Y-19548381D01*
X6278571Y-19443619D02*
X6288095Y-19424572D01*
X6307143Y-19415048D01*
X6335714Y-19415048D01*
X6354762Y-19424572D01*
X6364285Y-19443619D01*
X6364285Y-19548381D01*
X6459523Y-19548381D02*
X6459523Y-19415048D01*
X6459523Y-19434095D02*
X6469047Y-19424572D01*
X6488095Y-19415048D01*
X6516666Y-19415048D01*
X6535714Y-19424572D01*
X6545238Y-19443619D01*
X6545238Y-19548381D01*
X6545238Y-19443619D02*
X6554762Y-19424572D01*
X6573809Y-19415048D01*
X6602381Y-19415048D01*
X6621428Y-19424572D01*
X6630952Y-19443619D01*
X6630952Y-19548381D01*
X7021428Y-19338857D02*
X6850000Y-19596000D01*
X7278571Y-19348381D02*
X7297619Y-19348381D01*
X7316666Y-19357905D01*
X7326190Y-19367429D01*
X7335714Y-19386476D01*
X7345238Y-19424572D01*
X7345238Y-19472191D01*
X7335714Y-19510286D01*
X7326190Y-19529334D01*
X7316666Y-19538857D01*
X7297619Y-19548381D01*
X7278571Y-19548381D01*
X7259523Y-19538857D01*
X7250000Y-19529334D01*
X7240476Y-19510286D01*
X7230952Y-19472191D01*
X7230952Y-19424572D01*
X7240476Y-19386476D01*
X7250000Y-19367429D01*
X7259523Y-19357905D01*
X7278571Y-19348381D01*
X7430952Y-19529334D02*
X7440476Y-19538857D01*
X7430952Y-19548381D01*
X7421428Y-19538857D01*
X7430952Y-19529334D01*
X7430952Y-19548381D01*
X7564285Y-19348381D02*
X7583333Y-19348381D01*
X7602381Y-19357905D01*
X7611904Y-19367429D01*
X7621428Y-19386476D01*
X7630952Y-19424572D01*
X7630952Y-19472191D01*
X7621428Y-19510286D01*
X7611904Y-19529334D01*
X7602381Y-19538857D01*
X7583333Y-19548381D01*
X7564285Y-19548381D01*
X7545238Y-19538857D01*
X7535714Y-19529334D01*
X7526190Y-19510286D01*
X7516666Y-19472191D01*
X7516666Y-19424572D01*
X7526190Y-19386476D01*
X7535714Y-19367429D01*
X7545238Y-19357905D01*
X7564285Y-19348381D01*
X7697619Y-19348381D02*
X7821428Y-19348381D01*
X7754762Y-19424572D01*
X7783333Y-19424572D01*
X7802381Y-19434095D01*
X7811904Y-19443619D01*
X7821428Y-19462667D01*
X7821428Y-19510286D01*
X7811904Y-19529334D01*
X7802381Y-19538857D01*
X7783333Y-19548381D01*
X7726190Y-19548381D01*
X7707143Y-19538857D01*
X7697619Y-19529334D01*
X8011904Y-19548381D02*
X7897619Y-19548381D01*
X7954762Y-19548381D02*
X7954762Y-19348381D01*
X7935714Y-19376953D01*
X7916666Y-19396000D01*
X7897619Y-19405524D01*
X8192857Y-19348381D02*
X8097619Y-19348381D01*
X8088095Y-19443619D01*
X8097619Y-19434095D01*
X8116666Y-19424572D01*
X8164285Y-19424572D01*
X8183333Y-19434095D01*
X8192857Y-19443619D01*
X8202381Y-19462667D01*
X8202381Y-19510286D01*
X8192857Y-19529334D01*
X8183333Y-19538857D01*
X8164285Y-19548381D01*
X8116666Y-19548381D01*
X8097619Y-19538857D01*
X8088095Y-19529334D01*
X8278571Y-19348381D02*
X8278571Y-19386476D01*
X8354762Y-19348381D02*
X8354762Y-19386476D01*
X8650000Y-19624572D02*
X8640476Y-19615048D01*
X8621428Y-19586476D01*
X8611905Y-19567429D01*
X8602381Y-19538857D01*
X8592857Y-19491238D01*
X8592857Y-19453143D01*
X8602381Y-19405524D01*
X8611905Y-19376953D01*
X8621428Y-19357905D01*
X8640476Y-19329334D01*
X8650000Y-19319810D01*
X8830952Y-19548381D02*
X8716666Y-19548381D01*
X8773809Y-19548381D02*
X8773809Y-19348381D01*
X8754762Y-19376953D01*
X8735714Y-19396000D01*
X8716666Y-19405524D01*
X9021428Y-19548381D02*
X8907143Y-19548381D01*
X8964285Y-19548381D02*
X8964285Y-19348381D01*
X8945238Y-19376953D01*
X8926190Y-19396000D01*
X8907143Y-19405524D01*
X9192857Y-19415048D02*
X9192857Y-19548381D01*
X9145238Y-19338857D02*
X9097619Y-19481715D01*
X9221428Y-19481715D01*
X9450000Y-19548381D02*
X9450000Y-19348381D01*
X9535714Y-19548381D02*
X9535714Y-19443619D01*
X9526190Y-19424572D01*
X9507143Y-19415048D01*
X9478571Y-19415048D01*
X9459524Y-19424572D01*
X9450000Y-19434095D01*
X9659524Y-19548381D02*
X9640476Y-19538857D01*
X9630952Y-19529334D01*
X9621428Y-19510286D01*
X9621428Y-19453143D01*
X9630952Y-19434095D01*
X9640476Y-19424572D01*
X9659524Y-19415048D01*
X9688095Y-19415048D01*
X9707143Y-19424572D01*
X9716666Y-19434095D01*
X9726190Y-19453143D01*
X9726190Y-19510286D01*
X9716666Y-19529334D01*
X9707143Y-19538857D01*
X9688095Y-19548381D01*
X9659524Y-19548381D01*
X9840476Y-19548381D02*
X9821428Y-19538857D01*
X9811905Y-19519810D01*
X9811905Y-19348381D01*
X9992857Y-19538857D02*
X9973809Y-19548381D01*
X9935714Y-19548381D01*
X9916666Y-19538857D01*
X9907143Y-19519810D01*
X9907143Y-19443619D01*
X9916666Y-19424572D01*
X9935714Y-19415048D01*
X9973809Y-19415048D01*
X9992857Y-19424572D01*
X10002381Y-19443619D01*
X10002381Y-19462667D01*
X9907143Y-19481715D01*
X10078571Y-19538857D02*
X10097619Y-19548381D01*
X10135714Y-19548381D01*
X10154762Y-19538857D01*
X10164285Y-19519810D01*
X10164285Y-19510286D01*
X10154762Y-19491238D01*
X10135714Y-19481715D01*
X10107143Y-19481715D01*
X10088095Y-19472191D01*
X10078571Y-19453143D01*
X10078571Y-19443619D01*
X10088095Y-19424572D01*
X10107143Y-19415048D01*
X10135714Y-19415048D01*
X10154762Y-19424572D01*
X10230952Y-19624572D02*
X10240476Y-19615048D01*
X10259524Y-19586476D01*
X10269047Y-19567429D01*
X10278571Y-19538857D01*
X10288095Y-19491238D01*
X10288095Y-19453143D01*
X10278571Y-19405524D01*
X10269047Y-19376953D01*
X10259524Y-19357905D01*
X10240476Y-19329334D01*
X10230952Y-19319810D01*
D15*
X5064183Y-19755493D02*
X5064183Y-19688317D01*
X4997007Y-19688317D01*
X4997007Y-19755493D01*
X5064183Y-19755493D01*
D11*
X5373809Y-19612381D02*
X5392857Y-19612381D01*
X5411905Y-19621905D01*
X5421428Y-19631429D01*
X5430952Y-19650476D01*
X5440476Y-19688572D01*
X5440476Y-19736191D01*
X5430952Y-19774286D01*
X5421428Y-19793334D01*
X5411905Y-19802857D01*
X5392857Y-19812381D01*
X5373809Y-19812381D01*
X5354762Y-19802857D01*
X5345238Y-19793334D01*
X5335714Y-19774286D01*
X5326190Y-19736191D01*
X5326190Y-19688572D01*
X5335714Y-19650476D01*
X5345238Y-19631429D01*
X5354762Y-19621905D01*
X5373809Y-19612381D01*
X5526190Y-19793334D02*
X5535714Y-19802857D01*
X5526190Y-19812381D01*
X5516666Y-19802857D01*
X5526190Y-19793334D01*
X5526190Y-19812381D01*
X5630952Y-19812381D02*
X5669047Y-19812381D01*
X5688095Y-19802857D01*
X5697619Y-19793334D01*
X5716666Y-19764762D01*
X5726190Y-19726667D01*
X5726190Y-19650476D01*
X5716666Y-19631429D01*
X5707143Y-19621905D01*
X5688095Y-19612381D01*
X5650000Y-19612381D01*
X5630952Y-19621905D01*
X5621428Y-19631429D01*
X5611904Y-19650476D01*
X5611904Y-19698095D01*
X5621428Y-19717143D01*
X5630952Y-19726667D01*
X5650000Y-19736191D01*
X5688095Y-19736191D01*
X5707143Y-19726667D01*
X5716666Y-19717143D01*
X5726190Y-19698095D01*
X5907143Y-19612381D02*
X5811904Y-19612381D01*
X5802381Y-19707619D01*
X5811904Y-19698095D01*
X5830952Y-19688572D01*
X5878571Y-19688572D01*
X5897619Y-19698095D01*
X5907143Y-19707619D01*
X5916666Y-19726667D01*
X5916666Y-19774286D01*
X5907143Y-19793334D01*
X5897619Y-19802857D01*
X5878571Y-19812381D01*
X5830952Y-19812381D01*
X5811904Y-19802857D01*
X5802381Y-19793334D01*
X6040476Y-19612381D02*
X6059523Y-19612381D01*
X6078571Y-19621905D01*
X6088095Y-19631429D01*
X6097619Y-19650476D01*
X6107143Y-19688572D01*
X6107143Y-19736191D01*
X6097619Y-19774286D01*
X6088095Y-19793334D01*
X6078571Y-19802857D01*
X6059523Y-19812381D01*
X6040476Y-19812381D01*
X6021428Y-19802857D01*
X6011904Y-19793334D01*
X6002381Y-19774286D01*
X5992857Y-19736191D01*
X5992857Y-19688572D01*
X6002381Y-19650476D01*
X6011904Y-19631429D01*
X6021428Y-19621905D01*
X6040476Y-19612381D01*
X6192857Y-19812381D02*
X6192857Y-19679048D01*
X6192857Y-19698095D02*
X6202381Y-19688572D01*
X6221428Y-19679048D01*
X6250000Y-19679048D01*
X6269047Y-19688572D01*
X6278571Y-19707619D01*
X6278571Y-19812381D01*
X6278571Y-19707619D02*
X6288095Y-19688572D01*
X6307143Y-19679048D01*
X6335714Y-19679048D01*
X6354762Y-19688572D01*
X6364285Y-19707619D01*
X6364285Y-19812381D01*
X6459523Y-19812381D02*
X6459523Y-19679048D01*
X6459523Y-19698095D02*
X6469047Y-19688572D01*
X6488095Y-19679048D01*
X6516666Y-19679048D01*
X6535714Y-19688572D01*
X6545238Y-19707619D01*
X6545238Y-19812381D01*
X6545238Y-19707619D02*
X6554762Y-19688572D01*
X6573809Y-19679048D01*
X6602381Y-19679048D01*
X6621428Y-19688572D01*
X6630952Y-19707619D01*
X6630952Y-19812381D01*
X7021428Y-19602857D02*
X6850000Y-19860000D01*
X7278571Y-19612381D02*
X7297619Y-19612381D01*
X7316666Y-19621905D01*
X7326190Y-19631429D01*
X7335714Y-19650476D01*
X7345238Y-19688572D01*
X7345238Y-19736191D01*
X7335714Y-19774286D01*
X7326190Y-19793334D01*
X7316666Y-19802857D01*
X7297619Y-19812381D01*
X7278571Y-19812381D01*
X7259523Y-19802857D01*
X7250000Y-19793334D01*
X7240476Y-19774286D01*
X7230952Y-19736191D01*
X7230952Y-19688572D01*
X7240476Y-19650476D01*
X7250000Y-19631429D01*
X7259523Y-19621905D01*
X7278571Y-19612381D01*
X7430952Y-19793334D02*
X7440476Y-19802857D01*
X7430952Y-19812381D01*
X7421428Y-19802857D01*
X7430952Y-19793334D01*
X7430952Y-19812381D01*
X7564285Y-19612381D02*
X7583333Y-19612381D01*
X7602381Y-19621905D01*
X7611904Y-19631429D01*
X7621428Y-19650476D01*
X7630952Y-19688572D01*
X7630952Y-19736191D01*
X7621428Y-19774286D01*
X7611904Y-19793334D01*
X7602381Y-19802857D01*
X7583333Y-19812381D01*
X7564285Y-19812381D01*
X7545238Y-19802857D01*
X7535714Y-19793334D01*
X7526190Y-19774286D01*
X7516666Y-19736191D01*
X7516666Y-19688572D01*
X7526190Y-19650476D01*
X7535714Y-19631429D01*
X7545238Y-19621905D01*
X7564285Y-19612381D01*
X7697619Y-19612381D02*
X7821428Y-19612381D01*
X7754762Y-19688572D01*
X7783333Y-19688572D01*
X7802381Y-19698095D01*
X7811904Y-19707619D01*
X7821428Y-19726667D01*
X7821428Y-19774286D01*
X7811904Y-19793334D01*
X7802381Y-19802857D01*
X7783333Y-19812381D01*
X7726190Y-19812381D01*
X7707143Y-19802857D01*
X7697619Y-19793334D01*
X7888095Y-19612381D02*
X8021428Y-19612381D01*
X7935714Y-19812381D01*
X8183333Y-19679048D02*
X8183333Y-19812381D01*
X8135714Y-19602857D02*
X8088095Y-19745715D01*
X8211904Y-19745715D01*
X8278571Y-19612381D02*
X8278571Y-19650476D01*
X8354762Y-19612381D02*
X8354762Y-19650476D01*
X8650000Y-19888572D02*
X8640476Y-19879048D01*
X8621428Y-19850476D01*
X8611905Y-19831429D01*
X8602381Y-19802857D01*
X8592857Y-19755238D01*
X8592857Y-19717143D01*
X8602381Y-19669524D01*
X8611905Y-19640953D01*
X8621428Y-19621905D01*
X8640476Y-19593334D01*
X8650000Y-19583810D01*
X8811905Y-19679048D02*
X8811905Y-19812381D01*
X8764285Y-19602857D02*
X8716666Y-19745715D01*
X8840476Y-19745715D01*
X9069047Y-19812381D02*
X9069047Y-19612381D01*
X9154762Y-19812381D02*
X9154762Y-19707619D01*
X9145238Y-19688572D01*
X9126190Y-19679048D01*
X9097619Y-19679048D01*
X9078571Y-19688572D01*
X9069047Y-19698095D01*
X9278571Y-19812381D02*
X9259524Y-19802857D01*
X9250000Y-19793334D01*
X9240476Y-19774286D01*
X9240476Y-19717143D01*
X9250000Y-19698095D01*
X9259524Y-19688572D01*
X9278571Y-19679048D01*
X9307143Y-19679048D01*
X9326190Y-19688572D01*
X9335714Y-19698095D01*
X9345238Y-19717143D01*
X9345238Y-19774286D01*
X9335714Y-19793334D01*
X9326190Y-19802857D01*
X9307143Y-19812381D01*
X9278571Y-19812381D01*
X9459524Y-19812381D02*
X9440476Y-19802857D01*
X9430952Y-19783810D01*
X9430952Y-19612381D01*
X9611905Y-19802857D02*
X9592857Y-19812381D01*
X9554762Y-19812381D01*
X9535714Y-19802857D01*
X9526190Y-19783810D01*
X9526190Y-19707619D01*
X9535714Y-19688572D01*
X9554762Y-19679048D01*
X9592857Y-19679048D01*
X9611905Y-19688572D01*
X9621428Y-19707619D01*
X9621428Y-19726667D01*
X9526190Y-19745715D01*
X9697619Y-19802857D02*
X9716666Y-19812381D01*
X9754762Y-19812381D01*
X9773809Y-19802857D01*
X9783333Y-19783810D01*
X9783333Y-19774286D01*
X9773809Y-19755238D01*
X9754762Y-19745715D01*
X9726190Y-19745715D01*
X9707143Y-19736191D01*
X9697619Y-19717143D01*
X9697619Y-19707619D01*
X9707143Y-19688572D01*
X9726190Y-19679048D01*
X9754762Y-19679048D01*
X9773809Y-19688572D01*
X9850000Y-19888572D02*
X9859524Y-19879048D01*
X9878571Y-19850476D01*
X9888095Y-19831429D01*
X9897619Y-19802857D01*
X9907143Y-19755238D01*
X9907143Y-19717143D01*
X9897619Y-19669524D01*
X9888095Y-19640953D01*
X9878571Y-19621905D01*
X9859524Y-19593334D01*
X9850000Y-19583810D01*
D16*
X5028095Y-20035905D02*
X5078095Y-19985905D01*
X5028095Y-19935905D01*
X4978095Y-19985905D01*
X5028095Y-20035905D01*
D11*
X5440476Y-20076381D02*
X5326190Y-20076381D01*
X5383333Y-20076381D02*
X5383333Y-19876381D01*
X5364285Y-19904953D01*
X5345238Y-19924000D01*
X5326190Y-19933524D01*
X5526190Y-20057334D02*
X5535714Y-20066857D01*
X5526190Y-20076381D01*
X5516666Y-20066857D01*
X5526190Y-20057334D01*
X5526190Y-20076381D01*
X5659523Y-19876381D02*
X5678571Y-19876381D01*
X5697619Y-19885905D01*
X5707143Y-19895429D01*
X5716666Y-19914476D01*
X5726190Y-19952572D01*
X5726190Y-20000191D01*
X5716666Y-20038286D01*
X5707143Y-20057334D01*
X5697619Y-20066857D01*
X5678571Y-20076381D01*
X5659523Y-20076381D01*
X5640476Y-20066857D01*
X5630952Y-20057334D01*
X5621428Y-20038286D01*
X5611904Y-20000191D01*
X5611904Y-19952572D01*
X5621428Y-19914476D01*
X5630952Y-19895429D01*
X5640476Y-19885905D01*
X5659523Y-19876381D01*
X5850000Y-19876381D02*
X5869047Y-19876381D01*
X5888095Y-19885905D01*
X5897619Y-19895429D01*
X5907143Y-19914476D01*
X5916666Y-19952572D01*
X5916666Y-20000191D01*
X5907143Y-20038286D01*
X5897619Y-20057334D01*
X5888095Y-20066857D01*
X5869047Y-20076381D01*
X5850000Y-20076381D01*
X5830952Y-20066857D01*
X5821428Y-20057334D01*
X5811904Y-20038286D01*
X5802381Y-20000191D01*
X5802381Y-19952572D01*
X5811904Y-19914476D01*
X5821428Y-19895429D01*
X5830952Y-19885905D01*
X5850000Y-19876381D01*
X6040476Y-19876381D02*
X6059523Y-19876381D01*
X6078571Y-19885905D01*
X6088095Y-19895429D01*
X6097619Y-19914476D01*
X6107143Y-19952572D01*
X6107143Y-20000191D01*
X6097619Y-20038286D01*
X6088095Y-20057334D01*
X6078571Y-20066857D01*
X6059523Y-20076381D01*
X6040476Y-20076381D01*
X6021428Y-20066857D01*
X6011904Y-20057334D01*
X6002381Y-20038286D01*
X5992857Y-20000191D01*
X5992857Y-19952572D01*
X6002381Y-19914476D01*
X6011904Y-19895429D01*
X6021428Y-19885905D01*
X6040476Y-19876381D01*
X6192857Y-20076381D02*
X6192857Y-19943048D01*
X6192857Y-19962095D02*
X6202381Y-19952572D01*
X6221428Y-19943048D01*
X6250000Y-19943048D01*
X6269047Y-19952572D01*
X6278571Y-19971619D01*
X6278571Y-20076381D01*
X6278571Y-19971619D02*
X6288095Y-19952572D01*
X6307143Y-19943048D01*
X6335714Y-19943048D01*
X6354762Y-19952572D01*
X6364285Y-19971619D01*
X6364285Y-20076381D01*
X6459523Y-20076381D02*
X6459523Y-19943048D01*
X6459523Y-19962095D02*
X6469047Y-19952572D01*
X6488095Y-19943048D01*
X6516666Y-19943048D01*
X6535714Y-19952572D01*
X6545238Y-19971619D01*
X6545238Y-20076381D01*
X6545238Y-19971619D02*
X6554762Y-19952572D01*
X6573809Y-19943048D01*
X6602381Y-19943048D01*
X6621428Y-19952572D01*
X6630952Y-19971619D01*
X6630952Y-20076381D01*
X7021428Y-19866857D02*
X6850000Y-20124000D01*
X7278571Y-19876381D02*
X7297619Y-19876381D01*
X7316666Y-19885905D01*
X7326190Y-19895429D01*
X7335714Y-19914476D01*
X7345238Y-19952572D01*
X7345238Y-20000191D01*
X7335714Y-20038286D01*
X7326190Y-20057334D01*
X7316666Y-20066857D01*
X7297619Y-20076381D01*
X7278571Y-20076381D01*
X7259523Y-20066857D01*
X7250000Y-20057334D01*
X7240476Y-20038286D01*
X7230952Y-20000191D01*
X7230952Y-19952572D01*
X7240476Y-19914476D01*
X7250000Y-19895429D01*
X7259523Y-19885905D01*
X7278571Y-19876381D01*
X7430952Y-20057334D02*
X7440476Y-20066857D01*
X7430952Y-20076381D01*
X7421428Y-20066857D01*
X7430952Y-20057334D01*
X7430952Y-20076381D01*
X7564285Y-19876381D02*
X7583333Y-19876381D01*
X7602381Y-19885905D01*
X7611904Y-19895429D01*
X7621428Y-19914476D01*
X7630952Y-19952572D01*
X7630952Y-20000191D01*
X7621428Y-20038286D01*
X7611904Y-20057334D01*
X7602381Y-20066857D01*
X7583333Y-20076381D01*
X7564285Y-20076381D01*
X7545238Y-20066857D01*
X7535714Y-20057334D01*
X7526190Y-20038286D01*
X7516666Y-20000191D01*
X7516666Y-19952572D01*
X7526190Y-19914476D01*
X7535714Y-19895429D01*
X7545238Y-19885905D01*
X7564285Y-19876381D01*
X7697619Y-19876381D02*
X7821428Y-19876381D01*
X7754762Y-19952572D01*
X7783333Y-19952572D01*
X7802381Y-19962095D01*
X7811904Y-19971619D01*
X7821428Y-19990667D01*
X7821428Y-20038286D01*
X7811904Y-20057334D01*
X7802381Y-20066857D01*
X7783333Y-20076381D01*
X7726190Y-20076381D01*
X7707143Y-20066857D01*
X7697619Y-20057334D01*
X7916666Y-20076381D02*
X7954762Y-20076381D01*
X7973809Y-20066857D01*
X7983333Y-20057334D01*
X8002381Y-20028762D01*
X8011904Y-19990667D01*
X8011904Y-19914476D01*
X8002381Y-19895429D01*
X7992857Y-19885905D01*
X7973809Y-19876381D01*
X7935714Y-19876381D01*
X7916666Y-19885905D01*
X7907143Y-19895429D01*
X7897619Y-19914476D01*
X7897619Y-19962095D01*
X7907143Y-19981143D01*
X7916666Y-19990667D01*
X7935714Y-20000191D01*
X7973809Y-20000191D01*
X7992857Y-19990667D01*
X8002381Y-19981143D01*
X8011904Y-19962095D01*
X8183333Y-19943048D02*
X8183333Y-20076381D01*
X8135714Y-19866857D02*
X8088095Y-20009715D01*
X8211904Y-20009715D01*
X8278571Y-19876381D02*
X8278571Y-19914476D01*
X8354762Y-19876381D02*
X8354762Y-19914476D01*
X8650000Y-20152572D02*
X8640476Y-20143048D01*
X8621428Y-20114476D01*
X8611905Y-20095429D01*
X8602381Y-20066857D01*
X8592857Y-20019238D01*
X8592857Y-19981143D01*
X8602381Y-19933524D01*
X8611905Y-19904953D01*
X8621428Y-19885905D01*
X8640476Y-19857334D01*
X8650000Y-19847810D01*
X8735714Y-20076381D02*
X8773809Y-20076381D01*
X8792857Y-20066857D01*
X8802381Y-20057334D01*
X8821428Y-20028762D01*
X8830952Y-19990667D01*
X8830952Y-19914476D01*
X8821428Y-19895429D01*
X8811905Y-19885905D01*
X8792857Y-19876381D01*
X8754762Y-19876381D01*
X8735714Y-19885905D01*
X8726190Y-19895429D01*
X8716666Y-19914476D01*
X8716666Y-19962095D01*
X8726190Y-19981143D01*
X8735714Y-19990667D01*
X8754762Y-20000191D01*
X8792857Y-20000191D01*
X8811905Y-19990667D01*
X8821428Y-19981143D01*
X8830952Y-19962095D01*
X9002381Y-19876381D02*
X8964285Y-19876381D01*
X8945238Y-19885905D01*
X8935714Y-19895429D01*
X8916666Y-19924000D01*
X8907143Y-19962095D01*
X8907143Y-20038286D01*
X8916666Y-20057334D01*
X8926190Y-20066857D01*
X8945238Y-20076381D01*
X8983333Y-20076381D01*
X9002381Y-20066857D01*
X9011905Y-20057334D01*
X9021428Y-20038286D01*
X9021428Y-19990667D01*
X9011905Y-19971619D01*
X9002381Y-19962095D01*
X8983333Y-19952572D01*
X8945238Y-19952572D01*
X8926190Y-19962095D01*
X8916666Y-19971619D01*
X8907143Y-19990667D01*
X9259524Y-20076381D02*
X9259524Y-19876381D01*
X9345238Y-20076381D02*
X9345238Y-19971619D01*
X9335714Y-19952572D01*
X9316666Y-19943048D01*
X9288095Y-19943048D01*
X9269047Y-19952572D01*
X9259524Y-19962095D01*
X9469047Y-20076381D02*
X9450000Y-20066857D01*
X9440476Y-20057334D01*
X9430952Y-20038286D01*
X9430952Y-19981143D01*
X9440476Y-19962095D01*
X9450000Y-19952572D01*
X9469047Y-19943048D01*
X9497619Y-19943048D01*
X9516666Y-19952572D01*
X9526190Y-19962095D01*
X9535714Y-19981143D01*
X9535714Y-20038286D01*
X9526190Y-20057334D01*
X9516666Y-20066857D01*
X9497619Y-20076381D01*
X9469047Y-20076381D01*
X9650000Y-20076381D02*
X9630952Y-20066857D01*
X9621428Y-20047810D01*
X9621428Y-19876381D01*
X9802381Y-20066857D02*
X9783333Y-20076381D01*
X9745238Y-20076381D01*
X9726190Y-20066857D01*
X9716666Y-20047810D01*
X9716666Y-19971619D01*
X9726190Y-19952572D01*
X9745238Y-19943048D01*
X9783333Y-19943048D01*
X9802381Y-19952572D01*
X9811905Y-19971619D01*
X9811905Y-19990667D01*
X9716666Y-20009715D01*
X9888095Y-20066857D02*
X9907143Y-20076381D01*
X9945238Y-20076381D01*
X9964285Y-20066857D01*
X9973809Y-20047810D01*
X9973809Y-20038286D01*
X9964285Y-20019238D01*
X9945238Y-20009715D01*
X9916666Y-20009715D01*
X9897619Y-20000191D01*
X9888095Y-19981143D01*
X9888095Y-19971619D01*
X9897619Y-19952572D01*
X9916666Y-19943048D01*
X9945238Y-19943048D01*
X9964285Y-19952572D01*
X10040476Y-20152572D02*
X10050000Y-20143048D01*
X10069047Y-20114476D01*
X10078571Y-20095429D01*
X10088095Y-20066857D01*
X10097619Y-20019238D01*
X10097619Y-19981143D01*
X10088095Y-19933524D01*
X10078571Y-19904953D01*
X10069047Y-19885905D01*
X10050000Y-19857334D01*
X10040476Y-19847810D01*
D17*
X4968095Y-20194905D02*
X5078095Y-20304905D01*
X5078095Y-20194905D02*
X4968095Y-20304905D01*
X5078095Y-20249905D02*
G75*
G03*
X5078095Y-20249905I-55000J0D01*
G01*
D11*
X5440476Y-20340381D02*
X5326190Y-20340381D01*
X5383333Y-20340381D02*
X5383333Y-20140381D01*
X5364285Y-20168953D01*
X5345238Y-20188000D01*
X5326190Y-20197524D01*
X5526190Y-20321334D02*
X5535714Y-20330857D01*
X5526190Y-20340381D01*
X5516666Y-20330857D01*
X5526190Y-20321334D01*
X5526190Y-20340381D01*
X5726190Y-20340381D02*
X5611904Y-20340381D01*
X5669047Y-20340381D02*
X5669047Y-20140381D01*
X5650000Y-20168953D01*
X5630952Y-20188000D01*
X5611904Y-20197524D01*
X5850000Y-20140381D02*
X5869047Y-20140381D01*
X5888095Y-20149905D01*
X5897619Y-20159429D01*
X5907143Y-20178476D01*
X5916666Y-20216572D01*
X5916666Y-20264191D01*
X5907143Y-20302286D01*
X5897619Y-20321334D01*
X5888095Y-20330857D01*
X5869047Y-20340381D01*
X5850000Y-20340381D01*
X5830952Y-20330857D01*
X5821428Y-20321334D01*
X5811904Y-20302286D01*
X5802381Y-20264191D01*
X5802381Y-20216572D01*
X5811904Y-20178476D01*
X5821428Y-20159429D01*
X5830952Y-20149905D01*
X5850000Y-20140381D01*
X6040476Y-20140381D02*
X6059523Y-20140381D01*
X6078571Y-20149905D01*
X6088095Y-20159429D01*
X6097619Y-20178476D01*
X6107143Y-20216572D01*
X6107143Y-20264191D01*
X6097619Y-20302286D01*
X6088095Y-20321334D01*
X6078571Y-20330857D01*
X6059523Y-20340381D01*
X6040476Y-20340381D01*
X6021428Y-20330857D01*
X6011904Y-20321334D01*
X6002381Y-20302286D01*
X5992857Y-20264191D01*
X5992857Y-20216572D01*
X6002381Y-20178476D01*
X6011904Y-20159429D01*
X6021428Y-20149905D01*
X6040476Y-20140381D01*
X6192857Y-20340381D02*
X6192857Y-20207048D01*
X6192857Y-20226095D02*
X6202381Y-20216572D01*
X6221428Y-20207048D01*
X6250000Y-20207048D01*
X6269047Y-20216572D01*
X6278571Y-20235619D01*
X6278571Y-20340381D01*
X6278571Y-20235619D02*
X6288095Y-20216572D01*
X6307143Y-20207048D01*
X6335714Y-20207048D01*
X6354762Y-20216572D01*
X6364285Y-20235619D01*
X6364285Y-20340381D01*
X6459523Y-20340381D02*
X6459523Y-20207048D01*
X6459523Y-20226095D02*
X6469047Y-20216572D01*
X6488095Y-20207048D01*
X6516666Y-20207048D01*
X6535714Y-20216572D01*
X6545238Y-20235619D01*
X6545238Y-20340381D01*
X6545238Y-20235619D02*
X6554762Y-20216572D01*
X6573809Y-20207048D01*
X6602381Y-20207048D01*
X6621428Y-20216572D01*
X6630952Y-20235619D01*
X6630952Y-20340381D01*
X7021428Y-20130857D02*
X6850000Y-20388000D01*
X7278571Y-20140381D02*
X7297619Y-20140381D01*
X7316666Y-20149905D01*
X7326190Y-20159429D01*
X7335714Y-20178476D01*
X7345238Y-20216572D01*
X7345238Y-20264191D01*
X7335714Y-20302286D01*
X7326190Y-20321334D01*
X7316666Y-20330857D01*
X7297619Y-20340381D01*
X7278571Y-20340381D01*
X7259523Y-20330857D01*
X7250000Y-20321334D01*
X7240476Y-20302286D01*
X7230952Y-20264191D01*
X7230952Y-20216572D01*
X7240476Y-20178476D01*
X7250000Y-20159429D01*
X7259523Y-20149905D01*
X7278571Y-20140381D01*
X7430952Y-20321334D02*
X7440476Y-20330857D01*
X7430952Y-20340381D01*
X7421428Y-20330857D01*
X7430952Y-20321334D01*
X7430952Y-20340381D01*
X7564285Y-20140381D02*
X7583333Y-20140381D01*
X7602381Y-20149905D01*
X7611904Y-20159429D01*
X7621428Y-20178476D01*
X7630952Y-20216572D01*
X7630952Y-20264191D01*
X7621428Y-20302286D01*
X7611904Y-20321334D01*
X7602381Y-20330857D01*
X7583333Y-20340381D01*
X7564285Y-20340381D01*
X7545238Y-20330857D01*
X7535714Y-20321334D01*
X7526190Y-20302286D01*
X7516666Y-20264191D01*
X7516666Y-20216572D01*
X7526190Y-20178476D01*
X7535714Y-20159429D01*
X7545238Y-20149905D01*
X7564285Y-20140381D01*
X7802381Y-20207048D02*
X7802381Y-20340381D01*
X7754762Y-20130857D02*
X7707143Y-20273715D01*
X7830952Y-20273715D01*
X7888095Y-20140381D02*
X8011904Y-20140381D01*
X7945238Y-20216572D01*
X7973809Y-20216572D01*
X7992857Y-20226095D01*
X8002381Y-20235619D01*
X8011904Y-20254667D01*
X8011904Y-20302286D01*
X8002381Y-20321334D01*
X7992857Y-20330857D01*
X7973809Y-20340381D01*
X7916666Y-20340381D01*
X7897619Y-20330857D01*
X7888095Y-20321334D01*
X8078571Y-20140381D02*
X8202381Y-20140381D01*
X8135714Y-20216572D01*
X8164285Y-20216572D01*
X8183333Y-20226095D01*
X8192857Y-20235619D01*
X8202381Y-20254667D01*
X8202381Y-20302286D01*
X8192857Y-20321334D01*
X8183333Y-20330857D01*
X8164285Y-20340381D01*
X8107143Y-20340381D01*
X8088095Y-20330857D01*
X8078571Y-20321334D01*
X8278571Y-20140381D02*
X8278571Y-20178476D01*
X8354762Y-20140381D02*
X8354762Y-20178476D01*
X8650000Y-20416572D02*
X8640476Y-20407048D01*
X8621428Y-20378476D01*
X8611905Y-20359429D01*
X8602381Y-20330857D01*
X8592857Y-20283238D01*
X8592857Y-20245143D01*
X8602381Y-20197524D01*
X8611905Y-20168953D01*
X8621428Y-20149905D01*
X8640476Y-20121334D01*
X8650000Y-20111810D01*
X8811905Y-20207048D02*
X8811905Y-20340381D01*
X8764285Y-20130857D02*
X8716666Y-20273715D01*
X8840476Y-20273715D01*
X9069047Y-20340381D02*
X9069047Y-20140381D01*
X9154762Y-20340381D02*
X9154762Y-20235619D01*
X9145238Y-20216572D01*
X9126190Y-20207048D01*
X9097619Y-20207048D01*
X9078571Y-20216572D01*
X9069047Y-20226095D01*
X9278571Y-20340381D02*
X9259524Y-20330857D01*
X9250000Y-20321334D01*
X9240476Y-20302286D01*
X9240476Y-20245143D01*
X9250000Y-20226095D01*
X9259524Y-20216572D01*
X9278571Y-20207048D01*
X9307143Y-20207048D01*
X9326190Y-20216572D01*
X9335714Y-20226095D01*
X9345238Y-20245143D01*
X9345238Y-20302286D01*
X9335714Y-20321334D01*
X9326190Y-20330857D01*
X9307143Y-20340381D01*
X9278571Y-20340381D01*
X9459524Y-20340381D02*
X9440476Y-20330857D01*
X9430952Y-20311810D01*
X9430952Y-20140381D01*
X9611905Y-20330857D02*
X9592857Y-20340381D01*
X9554762Y-20340381D01*
X9535714Y-20330857D01*
X9526190Y-20311810D01*
X9526190Y-20235619D01*
X9535714Y-20216572D01*
X9554762Y-20207048D01*
X9592857Y-20207048D01*
X9611905Y-20216572D01*
X9621428Y-20235619D01*
X9621428Y-20254667D01*
X9526190Y-20273715D01*
X9697619Y-20330857D02*
X9716666Y-20340381D01*
X9754762Y-20340381D01*
X9773809Y-20330857D01*
X9783333Y-20311810D01*
X9783333Y-20302286D01*
X9773809Y-20283238D01*
X9754762Y-20273715D01*
X9726190Y-20273715D01*
X9707143Y-20264191D01*
X9697619Y-20245143D01*
X9697619Y-20235619D01*
X9707143Y-20216572D01*
X9726190Y-20207048D01*
X9754762Y-20207048D01*
X9773809Y-20216572D01*
X9850000Y-20416572D02*
X9859524Y-20407048D01*
X9878571Y-20378476D01*
X9888095Y-20359429D01*
X9897619Y-20330857D01*
X9907143Y-20283238D01*
X9907143Y-20245143D01*
X9897619Y-20197524D01*
X9888095Y-20168953D01*
X9878571Y-20149905D01*
X9859524Y-20121334D01*
X9850000Y-20111810D01*
X4878095Y-20413905D02*
X5078095Y-20613905D01*
X5078095Y-20413905D02*
X4878095Y-20613905D01*
X4978095Y-20413905D02*
X4978095Y-20613905D01*
X4878095Y-20513905D02*
X5078095Y-20513905D01*
X5326190Y-20423429D02*
X5335714Y-20413905D01*
X5354762Y-20404381D01*
X5402381Y-20404381D01*
X5421428Y-20413905D01*
X5430952Y-20423429D01*
X5440476Y-20442476D01*
X5440476Y-20461524D01*
X5430952Y-20490095D01*
X5316666Y-20604381D01*
X5440476Y-20604381D01*
X5526190Y-20585334D02*
X5535714Y-20594857D01*
X5526190Y-20604381D01*
X5516666Y-20594857D01*
X5526190Y-20585334D01*
X5526190Y-20604381D01*
X5602381Y-20404381D02*
X5726190Y-20404381D01*
X5659523Y-20480572D01*
X5688095Y-20480572D01*
X5707143Y-20490095D01*
X5716666Y-20499619D01*
X5726190Y-20518667D01*
X5726190Y-20566286D01*
X5716666Y-20585334D01*
X5707143Y-20594857D01*
X5688095Y-20604381D01*
X5630952Y-20604381D01*
X5611904Y-20594857D01*
X5602381Y-20585334D01*
X5850000Y-20404381D02*
X5869047Y-20404381D01*
X5888095Y-20413905D01*
X5897619Y-20423429D01*
X5907143Y-20442476D01*
X5916666Y-20480572D01*
X5916666Y-20528191D01*
X5907143Y-20566286D01*
X5897619Y-20585334D01*
X5888095Y-20594857D01*
X5869047Y-20604381D01*
X5850000Y-20604381D01*
X5830952Y-20594857D01*
X5821428Y-20585334D01*
X5811904Y-20566286D01*
X5802381Y-20528191D01*
X5802381Y-20480572D01*
X5811904Y-20442476D01*
X5821428Y-20423429D01*
X5830952Y-20413905D01*
X5850000Y-20404381D01*
X6040476Y-20404381D02*
X6059523Y-20404381D01*
X6078571Y-20413905D01*
X6088095Y-20423429D01*
X6097619Y-20442476D01*
X6107143Y-20480572D01*
X6107143Y-20528191D01*
X6097619Y-20566286D01*
X6088095Y-20585334D01*
X6078571Y-20594857D01*
X6059523Y-20604381D01*
X6040476Y-20604381D01*
X6021428Y-20594857D01*
X6011904Y-20585334D01*
X6002381Y-20566286D01*
X5992857Y-20528191D01*
X5992857Y-20480572D01*
X6002381Y-20442476D01*
X6011904Y-20423429D01*
X6021428Y-20413905D01*
X6040476Y-20404381D01*
X6192857Y-20604381D02*
X6192857Y-20471048D01*
X6192857Y-20490095D02*
X6202381Y-20480572D01*
X6221428Y-20471048D01*
X6250000Y-20471048D01*
X6269047Y-20480572D01*
X6278571Y-20499619D01*
X6278571Y-20604381D01*
X6278571Y-20499619D02*
X6288095Y-20480572D01*
X6307143Y-20471048D01*
X6335714Y-20471048D01*
X6354762Y-20480572D01*
X6364285Y-20499619D01*
X6364285Y-20604381D01*
X6459523Y-20604381D02*
X6459523Y-20471048D01*
X6459523Y-20490095D02*
X6469047Y-20480572D01*
X6488095Y-20471048D01*
X6516666Y-20471048D01*
X6535714Y-20480572D01*
X6545238Y-20499619D01*
X6545238Y-20604381D01*
X6545238Y-20499619D02*
X6554762Y-20480572D01*
X6573809Y-20471048D01*
X6602381Y-20471048D01*
X6621428Y-20480572D01*
X6630952Y-20499619D01*
X6630952Y-20604381D01*
X7021428Y-20394857D02*
X6850000Y-20652000D01*
X7278571Y-20404381D02*
X7297619Y-20404381D01*
X7316666Y-20413905D01*
X7326190Y-20423429D01*
X7335714Y-20442476D01*
X7345238Y-20480572D01*
X7345238Y-20528191D01*
X7335714Y-20566286D01*
X7326190Y-20585334D01*
X7316666Y-20594857D01*
X7297619Y-20604381D01*
X7278571Y-20604381D01*
X7259523Y-20594857D01*
X7250000Y-20585334D01*
X7240476Y-20566286D01*
X7230952Y-20528191D01*
X7230952Y-20480572D01*
X7240476Y-20442476D01*
X7250000Y-20423429D01*
X7259523Y-20413905D01*
X7278571Y-20404381D01*
X7430952Y-20585334D02*
X7440476Y-20594857D01*
X7430952Y-20604381D01*
X7421428Y-20594857D01*
X7430952Y-20585334D01*
X7430952Y-20604381D01*
X7564285Y-20404381D02*
X7583333Y-20404381D01*
X7602381Y-20413905D01*
X7611904Y-20423429D01*
X7621428Y-20442476D01*
X7630952Y-20480572D01*
X7630952Y-20528191D01*
X7621428Y-20566286D01*
X7611904Y-20585334D01*
X7602381Y-20594857D01*
X7583333Y-20604381D01*
X7564285Y-20604381D01*
X7545238Y-20594857D01*
X7535714Y-20585334D01*
X7526190Y-20566286D01*
X7516666Y-20528191D01*
X7516666Y-20480572D01*
X7526190Y-20442476D01*
X7535714Y-20423429D01*
X7545238Y-20413905D01*
X7564285Y-20404381D01*
X7726190Y-20604381D02*
X7764285Y-20604381D01*
X7783333Y-20594857D01*
X7792857Y-20585334D01*
X7811904Y-20556762D01*
X7821428Y-20518667D01*
X7821428Y-20442476D01*
X7811904Y-20423429D01*
X7802381Y-20413905D01*
X7783333Y-20404381D01*
X7745238Y-20404381D01*
X7726190Y-20413905D01*
X7716666Y-20423429D01*
X7707143Y-20442476D01*
X7707143Y-20490095D01*
X7716666Y-20509143D01*
X7726190Y-20518667D01*
X7745238Y-20528191D01*
X7783333Y-20528191D01*
X7802381Y-20518667D01*
X7811904Y-20509143D01*
X7821428Y-20490095D01*
X7945238Y-20404381D02*
X7964285Y-20404381D01*
X7983333Y-20413905D01*
X7992857Y-20423429D01*
X8002381Y-20442476D01*
X8011904Y-20480572D01*
X8011904Y-20528191D01*
X8002381Y-20566286D01*
X7992857Y-20585334D01*
X7983333Y-20594857D01*
X7964285Y-20604381D01*
X7945238Y-20604381D01*
X7926190Y-20594857D01*
X7916666Y-20585334D01*
X7907143Y-20566286D01*
X7897619Y-20528191D01*
X7897619Y-20480572D01*
X7907143Y-20442476D01*
X7916666Y-20423429D01*
X7926190Y-20413905D01*
X7945238Y-20404381D01*
X8183333Y-20404381D02*
X8145238Y-20404381D01*
X8126190Y-20413905D01*
X8116666Y-20423429D01*
X8097619Y-20452000D01*
X8088095Y-20490095D01*
X8088095Y-20566286D01*
X8097619Y-20585334D01*
X8107143Y-20594857D01*
X8126190Y-20604381D01*
X8164285Y-20604381D01*
X8183333Y-20594857D01*
X8192857Y-20585334D01*
X8202381Y-20566286D01*
X8202381Y-20518667D01*
X8192857Y-20499619D01*
X8183333Y-20490095D01*
X8164285Y-20480572D01*
X8126190Y-20480572D01*
X8107143Y-20490095D01*
X8097619Y-20499619D01*
X8088095Y-20518667D01*
X8278571Y-20404381D02*
X8278571Y-20442476D01*
X8354762Y-20404381D02*
X8354762Y-20442476D01*
X8650000Y-20680572D02*
X8640476Y-20671048D01*
X8621428Y-20642476D01*
X8611905Y-20623429D01*
X8602381Y-20594857D01*
X8592857Y-20547238D01*
X8592857Y-20509143D01*
X8602381Y-20461524D01*
X8611905Y-20432953D01*
X8621428Y-20413905D01*
X8640476Y-20385334D01*
X8650000Y-20375810D01*
X8716666Y-20423429D02*
X8726190Y-20413905D01*
X8745238Y-20404381D01*
X8792857Y-20404381D01*
X8811905Y-20413905D01*
X8821428Y-20423429D01*
X8830952Y-20442476D01*
X8830952Y-20461524D01*
X8821428Y-20490095D01*
X8707143Y-20604381D01*
X8830952Y-20604381D01*
X9069047Y-20604381D02*
X9069047Y-20404381D01*
X9154762Y-20604381D02*
X9154762Y-20499619D01*
X9145238Y-20480572D01*
X9126190Y-20471048D01*
X9097619Y-20471048D01*
X9078571Y-20480572D01*
X9069047Y-20490095D01*
X9278571Y-20604381D02*
X9259524Y-20594857D01*
X9250000Y-20585334D01*
X9240476Y-20566286D01*
X9240476Y-20509143D01*
X9250000Y-20490095D01*
X9259524Y-20480572D01*
X9278571Y-20471048D01*
X9307143Y-20471048D01*
X9326190Y-20480572D01*
X9335714Y-20490095D01*
X9345238Y-20509143D01*
X9345238Y-20566286D01*
X9335714Y-20585334D01*
X9326190Y-20594857D01*
X9307143Y-20604381D01*
X9278571Y-20604381D01*
X9459524Y-20604381D02*
X9440476Y-20594857D01*
X9430952Y-20575810D01*
X9430952Y-20404381D01*
X9611905Y-20594857D02*
X9592857Y-20604381D01*
X9554762Y-20604381D01*
X9535714Y-20594857D01*
X9526190Y-20575810D01*
X9526190Y-20499619D01*
X9535714Y-20480572D01*
X9554762Y-20471048D01*
X9592857Y-20471048D01*
X9611905Y-20480572D01*
X9621428Y-20499619D01*
X9621428Y-20518667D01*
X9526190Y-20537715D01*
X9697619Y-20594857D02*
X9716666Y-20604381D01*
X9754762Y-20604381D01*
X9773809Y-20594857D01*
X9783333Y-20575810D01*
X9783333Y-20566286D01*
X9773809Y-20547238D01*
X9754762Y-20537715D01*
X9726190Y-20537715D01*
X9707143Y-20528191D01*
X9697619Y-20509143D01*
X9697619Y-20499619D01*
X9707143Y-20480572D01*
X9726190Y-20471048D01*
X9754762Y-20471048D01*
X9773809Y-20480572D01*
X9850000Y-20680572D02*
X9859524Y-20671048D01*
X9878571Y-20642476D01*
X9888095Y-20623429D01*
X9897619Y-20594857D01*
X9907143Y-20547238D01*
X9907143Y-20509143D01*
X9897619Y-20461524D01*
X9888095Y-20432953D01*
X9878571Y-20413905D01*
X9859524Y-20385334D01*
X9850000Y-20375810D01*
X4878095Y-20733905D02*
X5078095Y-20933905D01*
X5078095Y-20733905D02*
X4878095Y-20933905D01*
X5048806Y-20904616D02*
X5048806Y-20763194D01*
X4907384Y-20763194D01*
X4907384Y-20904616D01*
X5048806Y-20904616D01*
X5316666Y-20724381D02*
X5440476Y-20724381D01*
X5373809Y-20800572D01*
X5402381Y-20800572D01*
X5421428Y-20810095D01*
X5430952Y-20819619D01*
X5440476Y-20838667D01*
X5440476Y-20886286D01*
X5430952Y-20905334D01*
X5421428Y-20914857D01*
X5402381Y-20924381D01*
X5345238Y-20924381D01*
X5326190Y-20914857D01*
X5316666Y-20905334D01*
X5526190Y-20905334D02*
X5535714Y-20914857D01*
X5526190Y-20924381D01*
X5516666Y-20914857D01*
X5526190Y-20905334D01*
X5526190Y-20924381D01*
X5611904Y-20743429D02*
X5621428Y-20733905D01*
X5640476Y-20724381D01*
X5688095Y-20724381D01*
X5707143Y-20733905D01*
X5716666Y-20743429D01*
X5726190Y-20762476D01*
X5726190Y-20781524D01*
X5716666Y-20810095D01*
X5602381Y-20924381D01*
X5726190Y-20924381D01*
X5850000Y-20724381D02*
X5869047Y-20724381D01*
X5888095Y-20733905D01*
X5897619Y-20743429D01*
X5907143Y-20762476D01*
X5916666Y-20800572D01*
X5916666Y-20848191D01*
X5907143Y-20886286D01*
X5897619Y-20905334D01*
X5888095Y-20914857D01*
X5869047Y-20924381D01*
X5850000Y-20924381D01*
X5830952Y-20914857D01*
X5821428Y-20905334D01*
X5811904Y-20886286D01*
X5802381Y-20848191D01*
X5802381Y-20800572D01*
X5811904Y-20762476D01*
X5821428Y-20743429D01*
X5830952Y-20733905D01*
X5850000Y-20724381D01*
X6040476Y-20724381D02*
X6059523Y-20724381D01*
X6078571Y-20733905D01*
X6088095Y-20743429D01*
X6097619Y-20762476D01*
X6107143Y-20800572D01*
X6107143Y-20848191D01*
X6097619Y-20886286D01*
X6088095Y-20905334D01*
X6078571Y-20914857D01*
X6059523Y-20924381D01*
X6040476Y-20924381D01*
X6021428Y-20914857D01*
X6011904Y-20905334D01*
X6002381Y-20886286D01*
X5992857Y-20848191D01*
X5992857Y-20800572D01*
X6002381Y-20762476D01*
X6011904Y-20743429D01*
X6021428Y-20733905D01*
X6040476Y-20724381D01*
X6192857Y-20924381D02*
X6192857Y-20791048D01*
X6192857Y-20810095D02*
X6202381Y-20800572D01*
X6221428Y-20791048D01*
X6250000Y-20791048D01*
X6269047Y-20800572D01*
X6278571Y-20819619D01*
X6278571Y-20924381D01*
X6278571Y-20819619D02*
X6288095Y-20800572D01*
X6307143Y-20791048D01*
X6335714Y-20791048D01*
X6354762Y-20800572D01*
X6364285Y-20819619D01*
X6364285Y-20924381D01*
X6459523Y-20924381D02*
X6459523Y-20791048D01*
X6459523Y-20810095D02*
X6469047Y-20800572D01*
X6488095Y-20791048D01*
X6516666Y-20791048D01*
X6535714Y-20800572D01*
X6545238Y-20819619D01*
X6545238Y-20924381D01*
X6545238Y-20819619D02*
X6554762Y-20800572D01*
X6573809Y-20791048D01*
X6602381Y-20791048D01*
X6621428Y-20800572D01*
X6630952Y-20819619D01*
X6630952Y-20924381D01*
X7021428Y-20714857D02*
X6850000Y-20972000D01*
X7278571Y-20724381D02*
X7297619Y-20724381D01*
X7316666Y-20733905D01*
X7326190Y-20743429D01*
X7335714Y-20762476D01*
X7345238Y-20800572D01*
X7345238Y-20848191D01*
X7335714Y-20886286D01*
X7326190Y-20905334D01*
X7316666Y-20914857D01*
X7297619Y-20924381D01*
X7278571Y-20924381D01*
X7259523Y-20914857D01*
X7250000Y-20905334D01*
X7240476Y-20886286D01*
X7230952Y-20848191D01*
X7230952Y-20800572D01*
X7240476Y-20762476D01*
X7250000Y-20743429D01*
X7259523Y-20733905D01*
X7278571Y-20724381D01*
X7430952Y-20905334D02*
X7440476Y-20914857D01*
X7430952Y-20924381D01*
X7421428Y-20914857D01*
X7430952Y-20905334D01*
X7430952Y-20924381D01*
X7630952Y-20924381D02*
X7516666Y-20924381D01*
X7573809Y-20924381D02*
X7573809Y-20724381D01*
X7554762Y-20752953D01*
X7535714Y-20772000D01*
X7516666Y-20781524D01*
X7707143Y-20743429D02*
X7716666Y-20733905D01*
X7735714Y-20724381D01*
X7783333Y-20724381D01*
X7802381Y-20733905D01*
X7811904Y-20743429D01*
X7821428Y-20762476D01*
X7821428Y-20781524D01*
X7811904Y-20810095D01*
X7697619Y-20924381D01*
X7821428Y-20924381D01*
X7992857Y-20724381D02*
X7954762Y-20724381D01*
X7935714Y-20733905D01*
X7926190Y-20743429D01*
X7907143Y-20772000D01*
X7897619Y-20810095D01*
X7897619Y-20886286D01*
X7907143Y-20905334D01*
X7916666Y-20914857D01*
X7935714Y-20924381D01*
X7973809Y-20924381D01*
X7992857Y-20914857D01*
X8002381Y-20905334D01*
X8011904Y-20886286D01*
X8011904Y-20838667D01*
X8002381Y-20819619D01*
X7992857Y-20810095D01*
X7973809Y-20800572D01*
X7935714Y-20800572D01*
X7916666Y-20810095D01*
X7907143Y-20819619D01*
X7897619Y-20838667D01*
X8135714Y-20724381D02*
X8154762Y-20724381D01*
X8173809Y-20733905D01*
X8183333Y-20743429D01*
X8192857Y-20762476D01*
X8202381Y-20800572D01*
X8202381Y-20848191D01*
X8192857Y-20886286D01*
X8183333Y-20905334D01*
X8173809Y-20914857D01*
X8154762Y-20924381D01*
X8135714Y-20924381D01*
X8116666Y-20914857D01*
X8107143Y-20905334D01*
X8097619Y-20886286D01*
X8088095Y-20848191D01*
X8088095Y-20800572D01*
X8097619Y-20762476D01*
X8107143Y-20743429D01*
X8116666Y-20733905D01*
X8135714Y-20724381D01*
X8278571Y-20724381D02*
X8278571Y-20762476D01*
X8354762Y-20724381D02*
X8354762Y-20762476D01*
X8650000Y-21000572D02*
X8640476Y-20991048D01*
X8621428Y-20962476D01*
X8611905Y-20943429D01*
X8602381Y-20914857D01*
X8592857Y-20867238D01*
X8592857Y-20829143D01*
X8602381Y-20781524D01*
X8611905Y-20752953D01*
X8621428Y-20733905D01*
X8640476Y-20705334D01*
X8650000Y-20695810D01*
X8830952Y-20924381D02*
X8716666Y-20924381D01*
X8773809Y-20924381D02*
X8773809Y-20724381D01*
X8754762Y-20752953D01*
X8735714Y-20772000D01*
X8716666Y-20781524D01*
X8907143Y-20743429D02*
X8916666Y-20733905D01*
X8935714Y-20724381D01*
X8983333Y-20724381D01*
X9002381Y-20733905D01*
X9011905Y-20743429D01*
X9021428Y-20762476D01*
X9021428Y-20781524D01*
X9011905Y-20810095D01*
X8897619Y-20924381D01*
X9021428Y-20924381D01*
X9259524Y-20924381D02*
X9259524Y-20724381D01*
X9345238Y-20924381D02*
X9345238Y-20819619D01*
X9335714Y-20800572D01*
X9316666Y-20791048D01*
X9288095Y-20791048D01*
X9269047Y-20800572D01*
X9259524Y-20810095D01*
X9469047Y-20924381D02*
X9450000Y-20914857D01*
X9440476Y-20905334D01*
X9430952Y-20886286D01*
X9430952Y-20829143D01*
X9440476Y-20810095D01*
X9450000Y-20800572D01*
X9469047Y-20791048D01*
X9497619Y-20791048D01*
X9516666Y-20800572D01*
X9526190Y-20810095D01*
X9535714Y-20829143D01*
X9535714Y-20886286D01*
X9526190Y-20905334D01*
X9516666Y-20914857D01*
X9497619Y-20924381D01*
X9469047Y-20924381D01*
X9650000Y-20924381D02*
X9630952Y-20914857D01*
X9621428Y-20895810D01*
X9621428Y-20724381D01*
X9802381Y-20914857D02*
X9783333Y-20924381D01*
X9745238Y-20924381D01*
X9726190Y-20914857D01*
X9716666Y-20895810D01*
X9716666Y-20819619D01*
X9726190Y-20800572D01*
X9745238Y-20791048D01*
X9783333Y-20791048D01*
X9802381Y-20800572D01*
X9811905Y-20819619D01*
X9811905Y-20838667D01*
X9716666Y-20857715D01*
X9888095Y-20914857D02*
X9907143Y-20924381D01*
X9945238Y-20924381D01*
X9964285Y-20914857D01*
X9973809Y-20895810D01*
X9973809Y-20886286D01*
X9964285Y-20867238D01*
X9945238Y-20857715D01*
X9916666Y-20857715D01*
X9897619Y-20848191D01*
X9888095Y-20829143D01*
X9888095Y-20819619D01*
X9897619Y-20800572D01*
X9916666Y-20791048D01*
X9945238Y-20791048D01*
X9964285Y-20800572D01*
X10040476Y-21000572D02*
X10050000Y-20991048D01*
X10069047Y-20962476D01*
X10078571Y-20943429D01*
X10088095Y-20914857D01*
X10097619Y-20867238D01*
X10097619Y-20829143D01*
X10088095Y-20781524D01*
X10078571Y-20752953D01*
X10069047Y-20733905D01*
X10050000Y-20705334D01*
X10040476Y-20695810D01*
M02*
