%TF.GenerationSoftware,KiCad,Pcbnew,6.0.9-8da3e8f707~116~ubuntu20.04.1*%
%TF.CreationDate,2022-11-18T21:39:17+01:00*%
%TF.ProjectId,WD6502,57443635-3032-42e6-9b69-6361645f7063,rev?*%
%TF.SameCoordinates,Original*%
%TF.FileFunction,Drillmap*%
%TF.FilePolarity,Positive*%
%FSLAX45Y45*%
G04 Gerber Fmt 4.5, Leading zero omitted, Abs format (unit mm)*
G04 Created by KiCad (PCBNEW 6.0.9-8da3e8f707~116~ubuntu20.04.1) date 2022-11-18 21:39:17*
%MOMM*%
%LPD*%
G01*
G04 APERTURE LIST*
%ADD10C,0.038100*%
%ADD11C,0.200000*%
G04 APERTURE END LIST*
D10*
X22606000Y-3048000D02*
G75*
G03*
X22098000Y-2540000I-508000J0D01*
G01*
X22606000Y-3048000D02*
X22606000Y-17780000D01*
X5588000Y-2540000D02*
X22098000Y-2540000D01*
X5588000Y-2540000D02*
G75*
G03*
X5080000Y-3048000I0J-508000D01*
G01*
X22098000Y-18288000D02*
G75*
G03*
X22606000Y-17780000I0J508000D01*
G01*
X5588000Y-18288000D02*
X22098000Y-18288000D01*
X5080000Y-17780000D02*
X5080000Y-3048000D01*
X5080000Y-17780000D02*
G75*
G03*
X5588000Y-18288000I508000J0D01*
G01*
D11*
X5335714Y-18600381D02*
X5335714Y-18400381D01*
X5383333Y-18400381D01*
X5411905Y-18409905D01*
X5430952Y-18428953D01*
X5440476Y-18448000D01*
X5450000Y-18486095D01*
X5450000Y-18514667D01*
X5440476Y-18552762D01*
X5430952Y-18571810D01*
X5411905Y-18590857D01*
X5383333Y-18600381D01*
X5335714Y-18600381D01*
X5535714Y-18600381D02*
X5535714Y-18467048D01*
X5535714Y-18505143D02*
X5545238Y-18486095D01*
X5554762Y-18476572D01*
X5573809Y-18467048D01*
X5592857Y-18467048D01*
X5659523Y-18600381D02*
X5659523Y-18467048D01*
X5659523Y-18400381D02*
X5650000Y-18409905D01*
X5659523Y-18419429D01*
X5669047Y-18409905D01*
X5659523Y-18400381D01*
X5659523Y-18419429D01*
X5783333Y-18600381D02*
X5764285Y-18590857D01*
X5754762Y-18571810D01*
X5754762Y-18400381D01*
X5888095Y-18600381D02*
X5869047Y-18590857D01*
X5859523Y-18571810D01*
X5859523Y-18400381D01*
X6116666Y-18600381D02*
X6116666Y-18400381D01*
X6183333Y-18543238D01*
X6250000Y-18400381D01*
X6250000Y-18600381D01*
X6430952Y-18600381D02*
X6430952Y-18495619D01*
X6421428Y-18476572D01*
X6402381Y-18467048D01*
X6364285Y-18467048D01*
X6345238Y-18476572D01*
X6430952Y-18590857D02*
X6411904Y-18600381D01*
X6364285Y-18600381D01*
X6345238Y-18590857D01*
X6335714Y-18571810D01*
X6335714Y-18552762D01*
X6345238Y-18533715D01*
X6364285Y-18524191D01*
X6411904Y-18524191D01*
X6430952Y-18514667D01*
X6526190Y-18467048D02*
X6526190Y-18667048D01*
X6526190Y-18476572D02*
X6545238Y-18467048D01*
X6583333Y-18467048D01*
X6602381Y-18476572D01*
X6611904Y-18486095D01*
X6621428Y-18505143D01*
X6621428Y-18562286D01*
X6611904Y-18581334D01*
X6602381Y-18590857D01*
X6583333Y-18600381D01*
X6545238Y-18600381D01*
X6526190Y-18590857D01*
X6707143Y-18581334D02*
X6716666Y-18590857D01*
X6707143Y-18600381D01*
X6697619Y-18590857D01*
X6707143Y-18581334D01*
X6707143Y-18600381D01*
X6707143Y-18476572D02*
X6716666Y-18486095D01*
X6707143Y-18495619D01*
X6697619Y-18486095D01*
X6707143Y-18476572D01*
X6707143Y-18495619D01*
M02*
